{"glyphs":{"0":{"ha":733,"x_min":0,"x_max":702,"o":"m 43 0 q 102 23 74 21 l 176 18 l 179 0 l 43 0 m 229 23 l 239 18 q 229 0 235 7 l 229 23 m 288 23 l 519 18 l 523 0 l 288 0 l 288 23 m 573 23 l 583 18 q 573 0 580 7 l 573 23 m 632 28 q 679 18 656 20 l 688 0 l 632 0 l 632 28 m 195 60 l 10 60 l 33 65 q 14 89 25 81 q 7 102 8 94 l 10 117 l 7 168 l 10 214 l 7 256 q 10 294 7 278 l 7 308 l 10 448 l 7 461 l 10 527 l 7 541 l 10 741 q 23 760 14 758 q 7 797 11 777 l 10 811 l 7 820 l 10 825 l 7 834 l 7 899 l 3 913 l 7 951 l 26 960 l 7 993 l 33 1002 l 109 1002 q 179 988 149 1002 l 179 960 q 189 969 186 963 l 185 1011 l 113 1016 q 66 1025 88 1017 l 56 1016 q 10 1044 26 1017 l 23 1095 l 10 1105 q 0 1128 3 1116 l 162 1128 l 192 1133 l 10 1133 q 53 1142 33 1142 l 129 1142 q 195 1151 166 1142 l 205 1156 l 255 1147 q 295 1156 275 1156 l 318 1142 l 470 1142 q 540 1151 507 1142 l 549 1156 l 600 1147 l 600 1156 l 609 1151 l 619 1156 l 662 1156 l 695 1142 q 682 1109 689 1123 q 702 1063 695 1085 l 523 1063 l 500 1058 l 702 1053 q 692 1030 699 1040 l 484 1025 l 635 1025 q 692 1011 667 1024 l 281 1011 l 288 960 l 288 1002 l 487 1002 q 533 960 519 1001 l 573 960 l 579 1002 q 612 951 587 960 q 662 928 641 949 q 652 904 659 913 l 672 890 l 679 876 l 665 857 q 679 829 671 840 q 695 811 685 816 q 682 774 684 793 q 669 764 676 765 l 609 764 q 559 802 580 779 l 460 802 q 510 811 486 811 l 586 811 l 576 816 l 556 816 l 533 820 l 523 816 l 513 820 l 431 816 l 424 820 l 397 816 l 341 820 l 328 816 l 318 816 l 308 820 l 195 816 q 162 764 188 771 l 129 816 l 116 816 l 142 802 l 116 802 q 109 704 116 749 q 132 657 111 667 l 109 657 l 116 643 q 109 602 111 622 q 116 503 115 550 q 109 406 116 451 l 109 359 q 116 349 111 351 l 109 317 l 116 219 l 116 186 q 146 214 138 189 l 146 606 l 142 610 l 146 634 l 146 760 l 189 760 l 189 620 l 192 615 l 189 602 l 189 233 l 205 242 q 245 233 227 240 l 268 242 l 490 233 q 556 247 528 234 l 586 242 q 579 396 586 352 l 586 443 l 579 485 q 586 583 586 536 q 579 680 586 635 q 589 760 583 724 l 682 760 l 679 746 l 682 680 l 679 592 l 682 573 l 682 541 l 679 527 l 682 494 l 679 294 l 682 279 l 682 247 l 679 214 l 682 201 l 679 144 l 686 112 q 688 65 686 85 l 669 60 q 612 33 641 41 q 600 60 601 44 l 576 33 q 519 60 544 41 l 368 60 q 304 42 333 60 q 255 33 279 33 l 255 60 q 245 33 245 47 l 195 33 l 195 60 m 328 159 q 368 168 350 161 l 229 168 q 189 159 207 165 l 328 159 m 417 159 q 427 168 425 161 q 417 159 420 165 m 530 159 l 579 168 l 526 168 l 477 159 l 530 159 m 90 177 q 96 186 95 180 l 96 229 q 90 177 90 201 m 394 177 q 401 186 400 180 l 427 177 l 463 186 l 510 186 q 543 201 529 191 q 579 186 560 191 q 553 205 568 203 l 463 205 l 573 214 l 215 219 l 195 210 l 351 210 l 328 205 l 192 205 q 218 186 204 188 l 308 186 l 351 177 l 394 177 m 202 261 l 351 261 l 341 256 l 192 256 l 202 261 m 467 261 l 533 261 l 533 424 l 553 424 l 553 303 q 579 256 553 262 l 460 256 l 467 261 m 90 289 q 96 303 95 294 q 90 289 91 298 m 90 363 q 96 373 95 367 l 96 527 q 90 517 90 524 l 90 363 m 536 485 q 553 498 543 498 q 536 485 546 486 m 533 722 l 553 722 l 553 559 l 533 559 l 533 722 m 90 587 q 96 602 95 592 q 90 587 91 596 m 90 662 q 96 680 96 671 l 96 816 q 90 746 90 779 l 90 662 m 295 662 l 523 662 l 517 657 l 288 657 l 295 662 m 536 783 q 553 797 543 796 q 536 783 546 785 m 192 802 q 199 811 195 810 l 351 811 q 345 802 348 802 l 192 802 m 401 802 q 410 811 405 809 q 401 802 407 804 m 229 960 l 232 974 l 229 1006 l 225 1011 l 212 1011 l 212 960 l 229 960 m 241 960 l 241 974 l 239 960 l 241 960 m 265 960 q 275 969 272 962 l 275 1011 q 265 960 265 985 m 632 998 q 649 979 643 989 l 632 974 l 632 998 m 182 1025 l 232 1030 l 182 1030 l 132 1025 l 182 1025 m 318 1025 l 368 1030 l 298 1030 l 248 1025 l 318 1025 m 0 1053 l 7 1058 l 3 1035 l 0 1053 m 311 1058 l 368 1063 l 189 1063 l 132 1058 l 311 1058 m 484 1128 l 540 1133 l 361 1133 l 304 1128 l 484 1128 m 0 1147 q 7 1156 3 1155 l 0 1147 m 23 1184 l 10 1198 l 205 1202 l 248 1198 l 288 1202 l 328 1198 l 547 1202 l 589 1198 l 626 1202 l 669 1198 l 682 1184 l 619 1179 l 589 1184 l 579 1179 l 540 1184 l 278 1179 q 252 1184 263 1181 l 241 1179 l 23 1184 z "},"1":{"ha":648,"x_min":-242,"x_max":494,"o":"m -56 1305 l -7 1305 l -47 1295 q -56 1305 -52 1296 m -198 1249 q -159 1239 -178 1247 l -188 1239 l -227 1244 l -203 1244 l -198 1249 m 80 1249 l 114 1239 l 129 1244 l 241 1249 q 285 1239 263 1247 l 245 1244 l 192 1239 l 265 1239 l 285 1215 l 285 391 l 290 382 l 285 377 l 285 283 l 446 283 l 479 288 l 490 269 l 460 269 q 475 245 472 259 l 446 240 q 470 217 459 231 l 455 212 l 421 217 l 392 217 l 372 212 l 323 217 q 285 198 302 214 l 377 198 q 387 208 384 199 l 460 198 l 470 184 l 494 174 l 460 151 l 475 109 q 412 85 447 94 l 231 85 l 192 80 l 412 80 q 455 66 435 77 l 436 61 q 358 47 403 48 l 197 47 l 182 52 l 31 52 l 31 47 l -61 47 q -85 80 -77 62 l 31 80 l 31 85 l -56 85 l -85 90 q -71 109 -72 94 q -52 160 -65 134 l 12 184 l 104 184 l 85 189 l -7 189 l 26 198 l 94 198 q 104 208 101 199 q 26 212 69 212 l -42 212 l -52 226 l 275 235 l -52 240 l -42 259 l 134 264 l -32 269 l -27 273 q 45 288 7 283 l 104 288 l 104 400 l 114 391 l 114 306 q 134 288 118 294 l 138 315 l 134 325 l 134 480 l 119 485 l -32 490 l 138 485 l 134 561 l 138 574 l 134 768 l 138 833 l 138 848 l 134 848 l 138 913 l 134 928 l 134 1050 l 12 1050 l 7 1065 q 85 1079 41 1078 q 134 1093 110 1080 l 21 1093 l 2 1088 l 2 1027 q -7 989 1 1008 l 2 975 l 2 838 l -52 838 l 2 825 l -3 777 l 2 763 l 2 749 l -27 768 l -100 753 q -144 801 -142 758 q -134 838 -142 819 l -144 852 l -144 1041 l -149 1088 l -149 1060 l -159 1074 l -159 1017 l -154 1003 l -159 999 l -149 749 l -163 768 l -212 753 l -227 763 l -227 825 l -222 838 l -227 843 l -227 1187 l -212 1168 l -193 1196 q -174 1126 -180 1166 q -163 1074 -174 1101 l -163 1177 q -154 1225 -163 1200 l -154 1187 q -115 1206 -135 1192 l -91 1140 l -96 1088 q -85 1074 -94 1079 l -81 1149 l -61 1239 l 80 1249 m 309 1249 q 334 1239 322 1247 q 309 1249 319 1239 m -242 1192 l -232 1112 l -232 1027 l -242 1192 m 387 1192 l 397 1112 l 397 1027 l 387 1192 m -144 1173 q -134 1164 -142 1167 q -144 1173 -136 1170 m 2 1140 l 70 1135 l 138 1135 l 70 1140 l 2 1140 m -212 1116 l -212 1074 l -208 1107 l -208 1116 l -212 1116 m 138 1088 l 138 923 l 182 923 l 182 1088 l 138 1088 m 304 1074 l 334 1074 l 334 1013 l 304 1013 l 304 1074 m 104 1041 l 114 961 l 114 876 l 104 1041 m -212 1013 l -208 999 l -208 1013 l -212 1013 m -174 1013 l -169 999 l -163 1008 l -174 1013 m -96 1013 q -81 1003 -92 1004 l -96 1013 m 304 999 l 334 999 l 334 937 l 304 937 l 304 999 m -242 966 q -232 951 -235 961 q -242 966 -239 956 m 392 966 l 397 951 l 387 951 l 392 966 m -212 937 l -212 787 l -208 772 l -208 937 l -212 937 m -174 937 l -174 782 q -163 772 -172 776 l -163 928 q -174 937 -165 935 m -96 937 l -96 777 l -81 772 l -81 932 l -96 937 m -242 890 l -232 810 l -232 726 l -242 890 m 387 890 l 397 810 l 397 726 l 387 890 m 143 862 l 172 848 q 182 862 180 852 l 143 862 m 104 815 q 114 801 111 810 q 104 815 107 805 m 143 787 l 138 622 l 182 622 l 182 787 l 143 787 m 304 772 l 334 772 l 334 711 l 304 711 l 304 772 m -227 739 q -163 721 -195 734 l -183 702 l -218 711 q -227 697 -219 703 l -227 739 m -130 739 l -56 730 l -37 716 q -66 697 -54 709 l -81 711 l -120 697 l -144 711 q -130 739 -140 725 m 104 739 l 114 659 l 114 574 l 104 739 m 304 697 l 334 697 l 334 636 l 304 636 l 304 697 m 392 664 l 397 650 l 387 650 l 392 664 m 387 589 l 397 509 l 397 424 l 387 589 m 143 561 l 172 547 q 182 561 180 551 l 143 561 m 104 513 q 114 499 111 509 q 104 513 107 504 m 143 485 l 138 320 l 182 320 l 182 485 l 143 485 m 304 471 l 334 471 l 334 410 l 304 410 l 304 471 m 304 395 l 334 395 l 334 334 l 304 334 l 304 382 l 299 382 l 304 395 m 392 363 l 397 349 l 387 349 l 392 363 m -76 339 l -7 339 l 7 334 l -61 334 l -76 339 m 338 339 l 412 339 l 479 334 l 407 334 l 338 339 m 358 240 q 372 231 362 233 q 358 240 368 237 m 114 212 q 134 198 121 202 q 114 212 127 208 m -61 19 l 7 19 q -7 0 4 8 l -76 5 l -61 19 m 80 19 q 94 0 90 12 q 80 19 84 7 m 168 19 l 372 19 q 416 5 396 16 l 168 0 l 168 19 z "},"2":{"ha":565,"x_min":-521,"x_max":137,"o":"m -426 1253 l -387 1253 l -379 1249 l -418 1249 l -426 1253 m -288 1253 l -96 1253 l -90 1249 l -282 1249 l -288 1253 m 1 1253 l 40 1253 q 76 1244 57 1253 l 1 1253 m 93 1253 l 104 1244 l 87 1244 l 93 1253 m -410 1244 l 48 1244 q 73 1215 64 1243 l 76 1021 l 73 1006 l 76 962 l 71 909 l 71 774 q 59 745 66 759 q 71 711 63 728 q 51 682 62 696 l 18 677 l 45 672 l 56 657 l 43 652 l 15 633 l -21 633 l -29 629 l -54 633 l -204 629 q -232 614 -218 627 l -90 614 l -90 595 l -126 585 l -235 580 l -240 604 q -260 570 -253 594 q -248 551 -254 564 l -257 536 l -268 522 q -262 512 -264 522 q -271 498 -265 503 q -282 517 -274 507 q -290 498 -289 510 q -296 469 -291 484 l -273 473 l -235 473 l -271 469 q -279 459 -276 467 l -271 439 q -288 406 -279 427 l -290 342 q -307 304 -295 321 l -321 347 l -326 304 l 71 299 l 71 260 q 48 231 65 237 l -332 231 q -362 222 -347 231 l -235 227 q -240 202 -235 213 l -354 202 l -329 188 l -182 197 l -174 188 l -157 197 q -123 188 -141 195 l 65 188 l 71 144 l 96 139 l 84 139 l 54 125 l 65 105 l 81 91 l 43 62 q 18 52 29 61 l 45 47 l -1 52 l -29 47 l -37 52 l -262 47 l -301 52 l -321 47 l -326 52 l -448 47 l -443 42 l -379 37 l -465 37 l -490 33 l -496 47 l -385 52 q -365 62 -375 52 l -493 62 q -504 91 -500 71 q -521 120 -513 99 l -515 178 l -504 202 l -501 182 q -487 154 -497 166 l -473 173 l -471 154 l -471 182 q -463 168 -469 173 l -459 207 q -468 231 -467 214 q -463 265 -468 248 l -463 236 l -451 256 q -440 216 -445 239 l -432 197 l -426 216 l -420 270 q -415 318 -419 293 l -407 328 l -412 357 q -426 386 -421 367 l -401 410 l -387 454 l -404 469 l -432 473 l -385 478 l -376 469 q -359 483 -368 473 q -368 517 -361 500 q -374 551 -374 531 l -357 555 l -357 546 l -349 551 l -376 570 l -370 629 l -359 652 l -357 629 q -343 589 -352 607 l -334 629 l -326 609 l -326 629 l -323 623 q -315 672 -317 646 l -326 652 l -323 677 q -318 706 -323 695 l -318 677 l -309 696 q -298 677 -303 690 q -285 652 -295 659 l -276 706 l -273 764 l -257 774 l -268 783 l -243 788 l -254 779 l -193 783 l -193 788 l -176 779 l -79 788 l -107 783 q -121 779 -117 783 l -71 779 l -71 822 l -32 827 q -24 779 -32 802 q -7 817 -7 785 q 26 827 7 824 l 62 827 l 40 832 l 1 832 q -7 876 -4 851 l -4 939 l -4 1050 l -16 1050 l -9 996 l -9 928 q -16 871 -10 900 q -29 914 -28 886 l -29 982 l -32 832 l -57 832 q -71 866 -71 838 l -74 919 l -74 871 l -85 871 l -87 1040 l -140 1040 l -74 1050 q -101 1069 -86 1063 l -254 1069 q -279 1050 -267 1064 q -315 1059 -296 1050 l -334 1050 q -365 1064 -349 1050 l -459 1069 l -448 1079 l -423 1074 l -415 1079 l -74 1079 q -104 1093 -88 1089 l -138 1098 l -174 1093 l -207 1098 l -395 1093 q -426 1108 -410 1096 l -429 1132 q -440 1118 -435 1130 q -463 1098 -449 1106 l -476 1132 l -498 1127 l -507 1137 q -512 1152 -509 1148 l -515 1132 q -521 1190 -519 1158 l -463 1205 l -454 1200 l -420 1200 q -410 1244 -417 1221 m 101 1229 l 106 1161 l 104 1016 l 106 996 l 104 987 q 87 996 96 987 l 98 1002 q 87 1030 92 1013 q 98 1084 87 1056 l 98 1161 l 101 1229 m 81 1195 l 84 1036 l 81 1025 l 79 1185 l 81 1195 m 123 1195 l 137 1195 l 137 1025 l 123 1025 l 123 1195 m -507 1161 l -507 1171 l -509 1171 l -507 1161 m -468 1147 q -459 1137 -465 1140 l -468 1147 m -418 1142 l -370 1137 l -220 1137 l -268 1142 l -418 1142 m -129 1142 l -82 1137 l -71 1137 l -118 1142 l -129 1142 m -32 1142 l -13 1137 l -7 1142 l -32 1142 m -481 1127 q -473 1118 -477 1126 q -481 1127 -478 1120 m 4 1088 q 12 1079 6 1082 q 4 1088 9 1086 m -468 1079 q -463 1069 -465 1078 q -471 1050 -465 1060 l -468 1079 m -32 1069 l -29 1002 q -21 1045 -28 1024 l -32 1069 m -68 1050 l -68 919 l -52 919 l -52 1050 l -68 1050 m 4 1050 l 4 972 q 12 919 4 947 l 12 996 q 4 1050 12 1022 m -432 1045 l -240 1045 l -235 1040 l -426 1040 l -432 1045 m 87 982 l 104 982 l 106 928 l 104 914 q 87 982 90 940 m 79 962 q 84 948 83 958 q 79 962 81 953 m 123 962 q 137 948 131 961 q 123 962 129 949 m -288 939 l -96 939 l -90 934 l -282 934 l -288 939 m 101 905 q 87 885 99 886 l 101 905 m -68 856 q -52 842 -60 846 q -68 856 -59 852 m 4 856 q 12 842 6 846 q 4 856 10 852 m -87 808 q -74 793 -79 806 q -87 808 -81 795 m -29 808 q -9 793 -18 806 q -29 808 -21 795 m -354 783 l -318 783 l -282 779 l -318 779 l -354 783 m -273 677 l -227 672 l -77 672 l -123 677 l -273 677 m -254 629 q -248 609 -253 617 l -245 629 l -254 629 m -404 629 l -379 629 l -398 623 l -404 629 m -49 614 q -40 585 -43 601 q -49 614 -47 597 m 1 614 q 35 595 18 609 q 1 585 20 588 l 1 614 m -279 604 q -290 580 -286 596 l -285 566 q -262 551 -274 555 q -273 575 -265 566 q -268 604 -272 589 l -279 604 m -276 536 l -271 536 l -273 546 l -276 536 m -309 541 q -304 532 -309 535 q -309 541 -305 536 m -290 532 l -298 522 q -290 532 -291 524 m -349 469 q -362 381 -357 432 l -354 406 q -332 391 -344 393 q -349 469 -337 427 m -313 469 l -323 439 q -313 469 -315 450 m -307 469 l -315 357 l -307 328 q -290 401 -294 358 q -307 469 -292 437 m -143 473 l 48 473 l 54 469 l -138 469 l -143 473 m -318 420 l -323 391 l -323 376 l -318 381 l -313 410 q -318 420 -313 415 m -304 425 l -296 396 l -301 381 l -304 425 m -401 401 q -407 391 -404 399 q -401 401 -402 393 m -329 401 l -326 362 l -334 367 l -343 328 q -351 362 -343 349 l -359 309 l -340 299 q -334 309 -336 300 l -337 338 l -334 347 l -329 333 l -323 362 l -329 401 m -437 323 l -463 313 l -498 313 l -471 318 l -437 323 m -354 323 l -346 304 q -354 323 -353 311 m -288 323 l -98 323 q -90 313 -94 321 l -279 313 q -288 323 -284 315 m -49 323 q -40 313 -43 321 q -49 323 -45 315 m 1 323 l 81 318 l 40 313 q 1 323 22 314 m -385 290 l -390 265 l -370 260 l -368 290 l -385 290 m -351 290 l -357 265 l -340 260 l -224 260 l -220 290 l -351 290 m -179 290 q -171 260 -178 274 q -179 290 -171 276 m -129 290 l -129 260 l 68 256 l 68 290 l -129 290 m -476 236 l -473 212 l -481 227 q -476 236 -479 228 m -193 227 q -184 202 -186 217 q -193 227 -191 212 m -143 227 l 54 227 l 54 202 l -143 202 l -143 227 m -418 212 l -395 207 l -390 212 l -418 212 m -376 212 l -390 202 l -385 188 l -368 188 l -370 197 l -376 212 m -385 178 l -374 163 l -368 178 l -385 178 m -351 178 l -340 163 l -227 163 l -240 178 l -351 178 m -179 178 q -171 163 -177 168 q -179 178 -173 174 m -129 178 q -85 163 -110 164 l 68 163 q 23 178 48 178 l -129 178 m 126 182 q 132 134 132 161 l 126 182 m -501 125 l -504 105 l -496 115 q -501 125 -496 120 m -323 62 q -315 52 -321 55 q -323 62 -317 59 m -273 62 l -227 52 l -77 52 l -77 57 l -273 62 m -35 62 q -26 52 -33 55 q -35 62 -28 59 m -288 42 l -96 42 l -90 37 l -282 37 l -288 42 m 1 42 l 40 42 l 48 37 l 9 37 l 1 42 z "},"3":{"ha":534,"x_min":-365,"x_max":220,"o":"m 59 1308 l 62 1265 l 59 1251 l 59 1308 m 127 1303 l 133 1265 q 127 1251 132 1257 l 127 1303 m -294 1255 l -241 1255 l -263 1251 l -313 1246 l -294 1255 m -138 1255 l 51 1255 l 56 1251 l -132 1251 l -138 1255 m 100 1255 l 196 1246 l 215 1241 l 215 1102 l 220 1021 l 215 1002 l 220 954 q 215 877 215 921 l 215 791 l 220 734 q 196 686 216 699 q 168 681 180 686 l 210 681 l 215 676 l 191 628 l 207 604 l 193 595 l 157 585 l 152 595 l 174 614 l 122 614 l 106 609 l 109 566 l 144 561 l 109 561 l 106 518 l 109 351 l 106 307 l 109 293 l 109 274 q 130 235 113 247 l 29 226 l 21 231 l 18 226 l 114 221 l 130 216 q 114 212 120 216 l 109 188 l 111 125 q 98 154 102 136 q 75 173 88 168 l 73 63 q 37 39 56 47 l -159 44 l -168 39 l -186 44 l -299 39 l -332 49 l -329 68 l -228 68 l -244 73 l -332 77 l -337 87 l -332 135 l -334 149 l -334 226 l -323 260 l -318 168 l -318 254 l -310 326 l -304 326 l -263 336 l -228 331 l -239 326 l -269 326 l -260 312 l -247 302 l -250 250 l 24 245 l 21 274 l 24 355 l 21 379 l 24 384 l 24 523 q -1 566 22 558 l -28 561 l -37 566 l -47 566 q -75 581 -60 568 q -80 566 -76 572 l -116 595 l -138 595 l -138 618 l -121 618 q -80 604 -102 608 l 18 604 q -25 600 -1 600 l -58 595 q -22 566 -40 592 l -22 595 l 13 595 l 24 566 l 24 604 l -17 609 l -25 614 l -45 609 l -61 609 l -107 618 q -130 667 -119 640 q -104 709 -125 700 q -80 719 -93 711 q -88 729 -85 720 q -53 758 -74 751 l 67 758 q 70 795 69 773 l 67 834 l 70 844 l 70 1050 l 67 1097 l 1 1102 l -25 1097 l -34 1102 l -239 1097 l -217 1083 l -116 1083 q -85 1074 -101 1083 l -239 1074 l -247 1078 q -266 1035 -266 1070 l -269 992 l -318 997 l -318 1016 q -326 1035 -323 1023 l -321 1045 l -329 1097 l -332 1150 l -329 1174 q -321 1107 -323 1142 l -318 1126 l -313 1203 q -296 1232 -306 1217 l -288 1213 q -279 1194 -286 1202 l -269 1227 l -266 1246 l 106 1246 l 100 1255 m 146 1255 l 185 1255 q 220 1246 201 1255 l 146 1255 m -356 1198 q -342 1117 -345 1165 l -342 1040 l -351 1030 l -361 1030 l -361 1117 l -365 1136 l -359 1183 l -356 1198 m -266 1145 l -220 1141 l -72 1141 l -119 1145 l -266 1145 m 18 1145 l 43 1141 l 70 1141 l 45 1145 l 18 1145 m 111 1097 l 136 1069 q 111 1040 123 1058 l 109 906 l 111 858 l 109 844 l 109 786 q 127 758 114 766 q 149 753 137 754 q 157 762 155 754 q 138 800 149 783 q 146 848 138 827 l 138 867 q 146 925 139 897 q 157 973 154 947 l 157 1093 l 111 1097 m 75 1093 l 75 925 l 98 925 l 98 1093 l 75 1093 m -45 1083 q -37 1055 -39 1071 q -50 1040 -44 1051 l -45 1083 m 4 1083 l 67 1083 l 67 1055 l 4 1055 l 4 1083 m -214 1069 l -173 1069 l -173 1040 l -214 1040 l -214 1069 m -165 1069 l -124 1069 l -124 1040 l -165 1040 l -165 1069 m 59 1045 q 67 968 67 1011 l 67 877 q 59 954 59 911 l 59 1045 m 122 1045 l 136 1045 l 136 877 l 122 877 l 122 1045 m -315 987 l -274 987 l -269 920 l -269 897 l -288 892 l -294 897 q -274 935 -281 909 q -291 906 -286 931 l -302 920 q -307 906 -302 909 q -318 959 -309 932 l -310 978 l -315 987 m -91 944 l 21 944 l 56 939 l -56 939 l -91 944 m 75 863 q 92 848 83 852 q 98 863 96 852 l 75 863 m 168 839 q 212 834 188 834 q 168 839 193 839 m 59 815 q 67 800 64 811 q 59 815 62 804 m 122 815 q 136 800 130 813 q 122 815 127 802 m 24 791 l 59 791 l 67 786 l 32 786 l 24 791 m 75 786 l 75 753 l 98 753 l 98 786 l 75 786 m -173 700 l -168 662 q -173 648 -169 653 l -173 700 m -157 695 q -151 657 -153 679 l -157 648 l -162 662 l -157 695 m -124 686 l -88 681 l 24 681 l -12 686 l -124 686 m -69 581 l -69 590 l -72 590 l -69 581 m 75 556 q 100 542 87 547 q 75 556 89 552 m 125 509 q 138 494 133 507 q 125 509 130 495 m -279 484 l -250 484 q -271 479 -259 481 l -279 484 m 75 479 l 75 312 l 100 312 l 100 479 l 75 479 m 122 432 l 138 432 l 138 264 l 122 264 l 122 432 m -288 412 q -271 374 -273 405 l -291 370 q -310 393 -300 377 l -288 412 m -315 355 q -310 341 -311 351 q -315 355 -313 345 m -288 326 l -286 274 l -277 279 l -277 326 l -288 326 m -138 331 l -17 331 l 21 326 l -99 326 l -138 331 m -353 279 q -340 197 -344 243 l -340 111 l -365 111 l -365 193 q -353 279 -364 232 m -250 231 l -239 221 l -88 221 l -99 231 l -250 231 m -31 231 q -22 221 -28 224 q -31 231 -25 228 m -244 216 l -104 212 q -94 207 -96 212 l -212 207 q -241 193 -229 206 l 24 193 q 4 207 16 203 l -14 221 l -22 216 l -42 221 l -244 216 m 125 202 q 138 188 133 201 q 125 202 130 189 m -250 178 q -206 173 -231 174 l -72 173 q -116 178 -92 178 l -250 178 m 122 125 l 138 125 q 127 92 136 108 l 122 125 m 64 77 l -124 73 l -116 68 l 35 68 q 64 77 51 68 m -321 1 l -233 1 q -228 -8 -230 0 l -315 -8 q -321 1 -319 -7 m -186 1 q -178 -8 -182 -1 q -186 1 -184 -7 m -138 1 l 13 1 q 54 -8 33 1 l 35 -14 l 26 -8 l -130 -8 q -138 1 -134 -7 z "},"4":{"ha":630,"x_min":-453,"x_max":494,"o":"m -332 1267 q -287 1258 -309 1267 l -400 1258 l -388 1263 l -332 1263 l -332 1267 m 8 1263 l 69 1263 l 130 1258 l 69 1258 l 8 1263 m -311 1249 q -279 1201 -284 1240 l -279 878 l -275 850 l -279 840 l -275 755 l -279 736 l -238 726 l -226 731 l -161 726 l -117 731 l -100 726 l 4 726 q -7 741 1 736 l -36 741 l -36 907 l 4 907 q -7 968 4 938 l -36 968 q -3 983 -22 979 l 4 1030 l 4 1044 l -36 1044 l -36 1144 l -32 1158 q -16 1192 -26 1175 l -7 1168 q 8 1135 -3 1152 l 12 1154 q 28 1192 16 1172 l 24 1168 l 33 1173 l 49 1192 q 37 1201 40 1195 l 61 1215 l 73 1206 q 93 1187 80 1194 l 109 1230 q 130 1196 122 1216 l 130 888 l 134 850 l 130 836 l 130 736 l 134 698 l 130 684 l 130 665 l 162 650 q 174 660 170 652 l 170 698 l 174 712 l 174 812 l 170 850 l 174 864 l 174 1106 l 178 1120 l 174 1173 l 182 1187 q 170 1225 174 1202 l 178 1215 l 231 1230 q 218 1182 230 1205 q 191 1168 203 1181 l 214 1168 q 231 1106 230 1143 l 191 1106 l 191 940 l 231 940 l 231 883 l 191 878 q 202 864 193 868 l 231 864 l 231 854 l 235 854 l 231 826 q 191 793 218 806 l 191 660 l 259 655 l 304 660 q 319 650 313 659 l 385 650 l 401 646 q 389 598 399 623 l 251 598 l 259 584 l 376 584 q 364 570 373 574 l 251 565 l 389 565 q 401 494 397 531 l 429 479 l 336 475 q 319 441 326 460 l 340 441 q 372 422 360 440 l 243 422 l 243 418 l 191 422 l 191 332 l 231 332 l 231 299 q 191 266 221 270 l 231 256 l 214 247 l 174 247 l 170 422 l 130 422 l 130 389 l 134 370 l 130 318 q 121 247 130 284 l 130 209 l 117 152 q 125 114 123 136 l 113 100 l 4 95 l 4 123 q -36 157 -19 130 l -36 299 l 4 299 l 4 347 q -28 375 -14 358 l 4 375 l 4 413 l -56 422 l -323 418 l -363 422 l -376 418 l -400 427 l -376 446 q -311 441 -348 441 l -242 441 l -234 475 l -384 475 l -396 479 l -404 551 l -404 631 l -400 698 q -437 726 -419 707 l -400 726 l -404 755 l -400 788 l -404 802 l -404 897 l -400 964 l -400 973 l -404 1025 q -400 1044 -401 1032 l -404 1120 l -396 1192 l -392 1120 l -388 1130 l -380 1192 q -355 1230 -371 1212 q -328 1192 -346 1208 l -311 1249 m -242 1234 q -230 1130 -231 1186 l -230 930 l -234 911 l -230 859 l -254 859 l -250 878 l -254 883 l -250 954 l -254 987 q -234 1002 -246 998 q -254 1040 -248 1016 l -250 1092 l -254 1111 l -250 1182 l -254 1192 l -254 1225 l -242 1234 m 271 1225 q 283 1196 280 1213 q 271 1225 274 1208 m -441 1196 q -425 1120 -430 1164 l -425 1049 l -437 1044 q -453 1120 -452 1078 l -449 1187 q -441 1196 -445 1188 m 271 1135 q 283 1120 279 1131 q 271 1135 275 1124 m 271 1059 q 283 983 283 1025 l 283 892 q 271 968 271 926 l 271 1059 m -392 1030 l -388 1016 l -388 1030 l -392 1030 m -453 983 q -425 968 -438 981 q -453 983 -440 970 m -392 954 l -392 802 l -388 788 l -388 954 l -392 954 m -453 907 l -425 902 l -425 741 l -453 741 l -453 907 m -258 854 q -234 836 -238 854 q -258 854 -248 842 m 271 831 q 283 817 279 827 q 271 831 275 820 m 271 755 q 283 665 283 713 q 271 755 271 706 m 134 722 l 166 722 q 142 707 155 711 q 134 722 136 712 m 300 722 l 360 722 q 409 707 385 720 l 348 707 q 300 722 323 708 m -250 712 l -279 707 l -262 703 l -234 703 l -250 712 m -93 712 l -56 703 l 4 703 l -40 707 l -93 712 m -279 698 l -275 669 q -202 660 -243 663 l -165 665 l -125 660 l -44 665 q 4 698 -18 673 l -153 703 l -174 698 l -182 703 l -279 698 m -453 679 q -425 665 -438 677 q -453 679 -440 666 m -170 660 q -161 650 -168 654 q -170 660 -162 656 m -97 660 l -56 650 l 4 650 l -40 660 l -97 660 m -392 650 l -392 498 l -388 484 l -388 650 l -392 650 m -279 631 l -222 622 l -24 622 l -81 631 l -279 631 m 231 631 q 312 622 266 622 l 397 622 q 316 631 361 631 l 231 631 m -453 603 l -425 598 l -425 479 l -429 441 l -453 437 l -453 603 m -275 598 l -226 584 l -93 584 q -52 570 -70 583 l -254 570 l -234 565 l -32 565 l -20 589 l -77 598 l -275 598 m 130 598 q 174 584 151 588 q 130 598 153 594 m -279 579 l -279 570 l -275 570 l -275 579 l -279 579 m 130 579 l 162 565 q 174 574 170 567 l 142 570 l 130 579 m 231 579 q 198 565 212 576 q 231 579 216 566 m 486 560 l 494 508 l 486 494 l 477 546 l 486 560 m -311 551 l -242 546 l -24 546 l -93 551 l -311 551 m 231 551 l 312 546 l 397 546 l 316 551 l 231 551 m -275 532 q -230 513 -257 515 l -24 513 q -73 532 -43 530 l -275 532 m 130 532 q 174 513 146 515 q 130 532 157 530 m 235 532 l 231 517 l 239 513 l 397 513 l 393 532 l 235 532 m 437 489 l 445 470 l 441 460 l 437 489 m -174 475 q -161 441 -172 456 q -174 475 -162 460 m -100 475 l -100 441 l 4 441 l 4 475 l -100 475 m 130 475 l 130 441 l 174 441 l 174 475 l 130 475 m 247 475 l 247 441 q 259 465 256 450 q 247 475 256 472 m 271 418 q 283 356 280 390 l 283 285 q 271 347 275 313 l 271 418 m 174 242 l 231 237 l 231 195 l 206 195 q 191 147 195 173 l 191 81 l 186 47 q 174 66 179 54 q 186 95 177 81 q 174 104 179 97 l 174 242 m 271 223 q 283 209 279 220 q 271 223 275 212 m 271 147 q 283 138 278 145 l 279 85 l 271 147 m 4 90 l 113 90 l 109 71 l 77 38 l 101 19 l 89 5 l 28 0 l 8 5 l 8 14 l 4 14 l 8 43 l -36 62 q 4 90 -13 66 m 28 43 l 20 24 l 33 24 l 69 33 l 28 43 z "},"5":{"ha":673,"x_min":-476,"x_max":225,"o":"m -317 1224 l -351 1210 l 161 1210 l 171 1205 l 180 1190 q 168 1176 173 1186 l 180 1147 q 161 1118 174 1133 q 146 1109 154 1116 l 158 1109 q 149 1085 156 1096 l 146 1037 q 152 994 146 1015 l 146 979 l 146 960 l 133 965 l 92 965 l 82 970 l 60 965 l -179 970 l -218 965 l -253 970 l -294 965 l -329 970 q -338 941 -338 960 l -342 825 l -332 840 l -170 840 q -151 802 -152 833 l -313 802 l -349 806 l -342 792 l -342 758 l -167 758 q -135 773 -150 758 q -113 802 -132 798 l -96 840 q -87 792 -94 819 q -77 768 -86 774 q -58 802 -77 795 q -4 840 -39 839 l 28 825 q 15 802 24 812 l 5 797 q -20 802 -5 800 q -30 758 -26 782 l 12 758 q 34 730 27 754 l 43 686 q 62 705 55 691 l 72 715 l 88 701 q 114 705 99 705 l 117 686 l 146 677 q 155 658 155 671 q 136 629 144 648 q 155 600 140 610 l 178 610 l 168 600 q 174 566 173 584 q 180 533 174 551 l 174 523 l 174 192 l -45 182 q -10 197 -28 193 l 69 197 l 79 201 l -310 201 l -275 197 l -154 197 q -182 182 -167 186 l -304 182 l -288 173 l -163 173 l -128 178 l -77 173 l -68 178 l 66 173 l 94 187 l 174 182 l 178 125 l 146 111 l 136 91 l 149 86 l 158 67 l 146 58 l 123 33 q 104 24 114 31 l 98 33 l 79 24 q 69 33 76 31 l 43 28 l 34 33 l -167 28 l -205 33 l -246 28 l -285 33 l -361 28 q -383 33 -374 28 l -300 33 l -332 43 l -374 43 q -406 53 -389 44 q -396 96 -404 76 q -409 134 -404 112 l -406 192 q -393 206 -403 204 l -387 153 l -387 125 l -374 125 l -370 130 l -361 235 q -377 331 -365 280 q -361 360 -372 347 l -377 389 l -355 418 q -332 398 -342 416 l -332 345 l -329 345 l -332 340 l -332 283 q -310 254 -321 271 q -285 235 -299 241 l -87 231 l -77 235 l -52 231 l 24 235 l 31 288 l 31 345 q 40 398 31 371 l 40 273 q 53 235 41 252 l 72 235 q 62 293 72 264 l 72 298 l 72 355 l 75 393 l 75 307 q 79 288 75 292 l 79 446 l -17 446 l -45 451 l 75 451 l 72 465 l 62 494 l 79 494 l 34 523 l 40 547 q 53 566 50 550 l 21 581 l -14 585 l 2 557 l -14 552 l -20 557 l -26 557 q -49 581 -37 564 l -20 595 l -68 638 l -39 648 l 2 648 l 24 653 l -173 658 l -211 653 l -246 658 l -285 653 l -402 658 l -425 672 l -437 663 l -437 672 l -441 672 q -437 691 -438 679 l -409 710 l -326 710 q -307 715 -315 711 l -425 720 q -441 758 -435 736 l -441 883 l -437 941 l -441 979 l -437 989 l -441 1076 l -447 1090 l -447 1027 q -469 998 -450 1002 q -476 1056 -474 1024 l -476 1114 q -466 1166 -474 1139 q -450 1133 -456 1153 l -444 1118 l -428 1162 l -425 1133 l -418 1162 q -402 1200 -413 1181 l -383 1176 q -368 1200 -374 1184 l -351 1219 l -399 1215 l -437 1219 l -317 1224 m -269 1224 q -259 1215 -262 1222 q -269 1224 -264 1216 m -211 1224 l 5 1224 q 15 1215 11 1222 l -201 1215 q -211 1224 -208 1216 m 62 1224 q 72 1215 68 1222 q 62 1224 66 1216 m 120 1224 l 168 1224 l 178 1219 l 130 1215 q 120 1224 123 1216 m -342 1114 q -291 1109 -319 1109 l -135 1109 q -186 1114 -157 1114 l -342 1114 m -30 1114 l 8 1109 l 130 1109 l 92 1114 l -30 1114 m -425 1080 l -425 1046 l -422 1070 l -422 1080 l -425 1080 m -332 1061 q -342 1051 -338 1059 l -157 1056 l -151 1042 l -103 1037 q -96 1056 -102 1047 l -94 1037 l -58 1037 q -45 1046 -52 1037 q 24 1056 -13 1056 l 94 1056 q 123 1037 110 1054 l 88 1037 l 136 1032 l 136 1056 l -71 1065 l -81 1061 l -103 1065 l -332 1061 m -342 1027 q -300 1013 -323 1017 q -342 1027 -319 1023 m -253 1027 q -243 1013 -250 1017 q -253 1027 -245 1023 m -195 1027 q -144 1013 -173 1013 l 31 1013 q -20 1027 8 1027 l -195 1027 m 79 1027 q 88 1013 81 1017 q 79 1027 86 1023 m 136 956 q 146 945 142 953 q 139 883 145 917 l 136 956 m -476 936 l -447 936 q -469 922 -456 926 q -476 936 -474 926 m -425 907 l -425 753 l -422 739 l -422 907 l -425 907 m -211 912 l 8 912 l 15 907 l -205 907 l -211 912 m -476 859 l -447 859 l -447 691 l -476 691 l -476 859 m 130 845 l 142 836 l 130 830 l 130 845 m 37 763 l 161 758 l 174 753 l 47 753 l 37 763 m -195 715 l -167 710 l -71 710 l -100 715 l -195 715 m 88 696 q 101 653 92 673 q 88 696 99 675 m 193 557 q 199 499 198 531 l 199 437 q 212 389 209 415 l 203 355 l 193 365 l 193 557 m 222 552 l 225 470 l 225 384 l 222 552 m 31 475 q 40 460 37 471 q 31 475 34 465 m -377 451 l -157 451 l -151 446 l -370 446 l -377 451 m 193 340 l 212 340 l 199 264 l 199 144 q 193 220 195 178 l 193 340 m -406 298 l -380 298 l -399 293 l -406 298 m -211 298 l 8 298 l 15 293 l -205 293 l -211 298 m 75 259 l 79 245 l 79 259 l 75 259 m 222 245 l 225 201 l 225 139 l 222 245 m -313 225 l -272 220 l -135 220 l -176 225 l -313 225 m -30 225 l 24 220 l 79 220 l 24 225 l -30 225 m -418 225 l -412 153 l -412 91 l -415 77 l -422 149 l -418 225 m -361 192 q -310 187 -338 187 q -361 192 -332 192 m -103 197 q -94 182 -96 193 q -103 197 -100 186 m -310 149 l -269 144 l -135 144 l -176 149 l -310 149 m -30 149 l 24 144 l 79 144 l 24 149 l -30 149 m -387 62 l -370 47 q -387 62 -376 59 m -253 43 q -243 33 -250 36 q -253 43 -245 41 m -195 43 l -141 33 l 31 33 l 31 38 l -195 43 m 79 43 l 88 33 q 79 43 85 41 m -396 24 l -326 24 l -317 19 l -387 19 l -396 24 m -211 24 l 8 24 l 15 19 l -205 19 l -211 24 z "},"6":{"ha":694,"x_min":-134,"x_max":678,"o":"m 376 1247 l 408 1247 q 382 1242 397 1244 l 376 1247 m 181 1210 l 304 1200 l 304 1205 l 327 1200 l 464 1205 q 477 1144 475 1179 l 477 799 l 486 728 l 499 743 l 538 728 l 646 728 l 639 715 l 529 710 l 529 705 l 639 705 l 646 701 l 532 696 l 532 691 l 636 691 q 646 682 642 690 l 532 677 l 532 659 l 639 659 l 591 640 l 532 640 l 561 635 l 620 635 l 646 621 l 636 607 l 519 603 l 509 593 l 480 584 l 480 621 l 509 640 l 477 640 l 477 252 l 467 248 l 425 243 l 477 243 l 477 215 l 480 178 l 473 163 l 477 145 q 470 84 475 117 q 454 121 460 100 l 454 196 l 435 196 l 428 56 l 431 28 l 363 23 l 382 19 q 408 0 395 15 l 178 0 l 178 23 l 256 23 l 25 28 q 71 9 49 26 l 15 0 l -104 0 q -124 28 -124 7 l -134 75 q -85 94 -115 93 l 77 94 l 87 98 l -131 98 l -134 107 l -131 121 l -134 182 l -131 196 l -134 243 l -104 243 l -111 248 l -134 248 l -131 262 l -134 294 l -131 336 l -134 369 l -131 416 l -134 448 l -131 490 l -134 523 l -131 565 q -115 659 -134 631 q -131 691 -119 677 l -134 720 q -127 728 -131 720 l -102 724 l -118 705 q -102 720 -111 709 l -82 728 l -98 728 l -92 747 l 136 747 l 136 752 l 304 752 l 304 841 q 311 897 304 869 l 311 752 q 330 775 323 759 l 366 752 q 379 817 378 781 l 376 846 l 379 854 l 376 977 l 379 1000 l 376 1004 l 350 1000 l 353 958 l 350 943 l 334 943 q 321 1004 330 974 l 220 1004 l 210 995 l 220 972 l 217 948 l 314 948 l 220 943 l 207 901 q 201 911 203 903 l 207 925 q 197 906 200 919 q 191 850 197 878 l 201 841 q 168 799 186 819 q 152 846 152 814 l 123 878 q 152 920 142 889 l 145 920 l 145 916 l 129 920 l 123 920 l 116 948 l 113 1093 l 125 1098 l 142 1112 l 129 1140 l 116 1144 q 129 1177 119 1162 l 149 1168 q 155 1177 155 1170 q 181 1210 166 1194 m 490 1200 q 509 1182 502 1195 l 480 1182 l 490 1200 m 136 1191 q 142 1182 139 1190 q 136 1191 138 1183 m 171 1168 q 181 1158 174 1161 q 171 1168 178 1165 m 435 1168 q 454 1154 444 1158 q 435 1168 445 1164 m 203 1144 q 256 1140 227 1140 q 203 1144 233 1144 m 77 1121 l 103 1121 q 83 1107 94 1111 q 77 1121 79 1112 m 480 1121 l 509 1121 q 486 1107 500 1111 q 480 1121 482 1112 m 129 1093 l 129 943 l 132 930 l 132 1093 l 129 1093 m 435 1093 l 435 930 l 454 930 l 454 1093 l 435 1093 m 217 1074 l 265 1069 l 337 1069 l 288 1074 l 217 1074 m 350 1074 l 370 1069 l 376 1074 l 350 1074 m 220 1060 l 239 1056 l 220 1037 q 252 1019 235 1024 l 379 1019 q 370 1046 377 1033 l 324 1060 l 220 1060 m 288 1056 q 298 1046 294 1054 q 288 1056 292 1048 m 77 1046 l 103 1046 l 103 883 l 77 883 l 77 1046 m 480 1046 l 509 1046 l 509 883 l 480 883 l 480 1046 m 343 1037 q 337 1027 342 1031 l 343 1037 m 304 972 q 311 958 309 967 q 304 972 307 962 m -98 948 l 28 948 l 71 943 l -56 943 l -98 948 m 435 869 q 454 854 444 859 q 435 869 445 865 m 161 864 l 181 854 q 187 864 185 857 l 161 864 m 136 822 q 142 808 140 818 q 136 822 138 812 m 480 822 l 509 822 q 486 808 500 812 q 480 822 482 812 m -131 799 l -98 799 q -124 794 -109 795 l -131 799 m 435 794 l 435 747 l 444 738 l 451 743 l 454 794 l 435 794 m 158 785 l 187 775 l 178 762 l 158 757 l 152 762 l 158 785 m 18 696 l 74 691 l 87 691 l 31 696 l 18 696 m 194 696 l 243 691 l 330 691 l 281 696 l 194 696 m 350 696 l 373 691 l 379 696 l 350 696 m 652 673 l 678 673 q 659 659 670 663 l 652 673 m -33 626 l -33 205 l -24 220 l -24 299 l -4 299 l -1 196 l 2 252 l 2 570 q -10 607 1 590 q -1 579 -3 595 l -1 435 l -24 435 l -24 579 q -30 603 -24 591 l -17 607 q -33 626 -23 618 m 25 626 l 25 603 l 54 603 l 45 598 q 25 561 26 592 l 25 500 l 22 528 l 22 593 q 9 607 17 603 l 9 519 q 18 467 12 491 q 9 420 18 443 q 18 369 15 398 l 9 317 l 9 191 l 22 182 l 22 346 l 64 351 l 31 346 q 25 290 26 321 l 22 182 l 25 168 l 304 168 l 304 271 l 311 267 l 311 168 l 327 168 q 347 182 335 178 l 353 168 l 376 168 l 379 196 l 379 233 l 382 243 l 379 248 l 379 570 l 376 626 q 363 603 367 619 l 376 603 l 353 598 l 359 607 l 353 607 l 314 598 l 311 477 q 304 448 311 458 l 304 579 q 275 598 294 597 l 184 598 l 214 603 l 317 603 q 308 626 315 615 q 275 607 293 612 l 246 626 l 25 626 m -75 607 l -75 481 l -50 481 l -50 607 l -75 607 m 435 570 q 454 556 444 560 q 435 570 445 566 m 480 523 l 509 523 q 486 509 500 513 q 480 523 482 513 m 435 495 l 435 332 l 454 332 l 454 495 l 435 495 m 330 481 l 350 481 l 350 420 l 330 420 l 330 481 m 480 448 l 509 448 l 509 285 l 480 285 l 480 448 m -72 420 q -56 406 -66 410 q -50 420 -52 410 l -72 420 m 330 406 l 350 406 l 350 346 l 330 346 l 330 406 m -20 374 l -1 374 q -24 359 -9 363 l -20 374 m 304 374 q 311 359 309 370 q 304 374 307 364 m -75 346 l -75 182 l -50 182 l -50 346 l -75 346 m -30 351 l -1 351 l -24 346 l -30 351 m 178 351 l 314 351 l 327 346 l 191 346 l 178 351 m 435 271 q 454 257 444 261 q 435 271 445 267 m 480 224 l 509 224 q 486 210 500 214 q 480 224 482 214 m 483 149 l 509 149 l 509 121 l 503 65 q 483 94 493 75 l 480 107 l 483 149 m 194 98 l 249 94 l 425 94 l 370 98 l 194 98 m 464 28 l 460 14 l 457 33 l 464 28 m 119 23 q 129 0 127 14 q 119 23 121 9 z "},"7":{"ha":555,"x_min":-306,"x_max":279,"o":"m -225 1249 q -215 1240 -219 1248 l -225 1249 m -165 1249 q -155 1240 -159 1248 q -165 1249 -161 1242 m -105 1249 l 122 1249 q 132 1240 128 1248 l -95 1240 q -105 1249 -101 1242 m 182 1249 q 193 1240 189 1248 q 182 1249 186 1242 m -245 1196 l -205 1187 l -155 1196 l -142 1187 l -111 1196 l -62 1187 l 109 1187 q 159 1196 132 1188 l 209 1187 l 222 1173 q 229 1196 223 1185 l 246 1196 l 250 1173 l 246 1160 l 246 1151 l 250 1102 l 246 1084 l 246 865 l 250 821 l 246 808 l 146 808 l 146 919 l 142 905 q 136 852 142 878 l 136 986 l 139 1000 l 146 950 l 146 1044 q 125 1057 138 1054 l 122 1031 l 122 741 q 146 768 136 749 q 176 803 146 803 l 236 803 q 246 749 242 779 l 229 665 l 212 683 q 189 673 201 682 q 182 683 189 678 l 172 714 l 159 701 l 153 638 q 122 598 146 610 q 92 566 100 597 q 106 549 98 561 q 92 522 97 539 l 96 504 l 92 455 l 146 455 q 199 450 170 451 q 216 401 214 433 l 209 339 q 222 397 222 363 l 222 450 l 239 446 l 246 401 l 243 384 q 229 326 239 354 l 203 330 l 193 321 q 182 290 191 304 q 189 317 182 302 q 165 353 180 336 q 132 317 157 327 l 96 313 l 109 313 q 132 286 127 311 l 115 286 q 92 313 102 294 l 89 232 q 92 161 92 201 q 85 98 92 132 q 32 94 62 94 l -8 94 l -12 111 l -8 161 l -12 174 l -12 130 l -38 134 l -38 286 l -92 286 q -105 313 -101 295 l -21 313 l -232 321 l -235 330 q -222 348 -235 345 q -232 357 -224 355 l -289 357 q -306 375 -298 363 l -218 375 l -229 379 q -282 384 -252 384 q -306 393 -293 385 l -286 388 l -205 406 l -218 415 l -192 446 l -142 455 q -88 450 -118 451 l -38 460 l -38 535 q -12 566 -33 563 l -1 553 l 15 571 l 45 616 l -88 616 l -64 620 l 39 620 l 49 625 q 68 585 56 604 q 75 620 73 600 l 75 661 l 59 665 q 65 692 60 677 l 72 673 q 85 683 79 675 l 75 705 l 85 768 l 85 901 q 75 910 79 903 q 85 972 76 939 l 75 981 l 79 1031 l 85 1057 l 68 1062 l 28 1057 l 12 1062 l 5 1057 l -1 1062 l -1 1057 l -24 1062 l -35 1057 l -161 1057 q -195 1031 -178 1048 l -195 905 q -189 888 -195 896 q -202 830 -201 865 l -202 808 l -245 808 l -262 848 l -249 848 l -262 901 l -279 901 q -269 946 -278 924 l -279 950 l -262 972 q -279 981 -271 974 l -279 1031 l -265 1031 l -262 1035 l -262 1160 l -245 1169 l -232 1187 l -258 1187 l -245 1196 m 262 1196 q 279 1187 272 1195 q 262 1196 270 1187 m 269 1182 q 279 1084 279 1137 l 279 977 q 259 950 278 956 q 279 919 272 941 l 279 812 l 256 817 q 259 888 259 848 l 256 990 l 259 1097 l 259 1173 l 269 1182 m -192 1093 l -152 1088 l -24 1088 l -64 1093 l -192 1093 m 122 1093 l 139 1088 l 146 1093 l 122 1093 m -175 1031 l -41 1031 l -41 1013 l -175 1013 l -175 1031 m 9 1031 q 18 1013 16 1024 q 9 1031 12 1019 m 125 1031 q 142 1013 136 1027 q 125 1031 132 1017 m -172 1000 l -168 910 l -168 892 l -172 1000 m -249 803 l -205 803 q -202 768 -203 788 l -205 754 q -202 718 -203 739 l -235 714 l -245 718 q -215 732 -230 722 l -205 749 l -215 741 l -249 741 l -252 785 l -249 803 m 259 803 q 276 789 269 802 q 259 803 266 791 m 136 785 q 142 772 140 781 q 136 785 138 776 m 216 758 q 209 723 215 738 l 199 714 l 203 696 l 219 714 l 222 749 q 216 758 222 755 m 129 589 l 132 571 l 122 571 l 129 589 m -235 410 l -222 406 l -239 401 l -235 410 m -88 379 l -48 375 l -8 375 l -48 379 l -88 379 m -239 321 q -215 290 -225 311 q -239 321 -235 293 m -165 313 q -155 286 -157 300 q -165 313 -163 297 m -8 90 l 89 90 l 75 49 q 82 18 77 33 l 65 5 l 2 0 l 28 9 q 42 31 39 21 q 2 18 24 22 l -12 26 l -8 90 m -38 71 l -12 71 q -31 58 -20 62 q -38 71 -36 62 z "},"8":{"ha":720,"x_min":-517,"x_max":202,"o":"m -283 1280 l -274 1276 l -283 1271 l -283 1280 m 40 1280 q 50 1266 47 1277 q 40 1280 44 1270 m 3 1227 q 28 1198 20 1222 q 53 1222 37 1214 q 75 1183 65 1206 l 68 1120 l 75 1072 q 68 1057 73 1063 l 68 907 l 75 839 l 68 825 l 75 791 l 68 728 q 77 679 68 701 l 77 699 q 102 679 90 692 l 199 674 q 183 621 194 647 l 190 591 l 174 591 l 174 422 l 193 422 l 199 374 q 193 359 198 365 q 174 345 183 358 l 193 345 l 180 330 l 193 330 l 199 281 l 183 281 q 174 223 177 255 l 174 146 q 183 106 175 127 l 118 106 l 143 97 l 177 97 l 168 83 l 124 73 q 112 58 117 71 l 134 58 l 130 54 l 84 58 l 59 54 l 50 58 l -252 58 l -264 54 l -296 58 l -441 54 l -476 43 l -433 34 l 153 34 l 186 29 l 124 29 l 140 20 l 183 14 q 153 0 169 5 l 102 0 l 93 9 l 59 5 l 50 9 l -190 0 l -227 5 l -214 5 l -249 9 l -261 5 l -292 9 l -336 0 l -482 0 q -498 14 -490 3 q -473 20 -487 18 l -327 20 l -339 29 l -488 29 q -513 58 -502 41 q -501 92 -504 72 q -517 146 -511 114 l -517 174 q -498 151 -505 170 q -492 121 -498 130 l -492 174 l -476 174 q -492 228 -490 194 l -492 529 q -479 591 -490 561 l -445 611 l -463 640 q -482 665 -475 646 q -439 679 -462 675 q -429 669 -435 671 l -357 669 l -361 703 l -357 776 l -361 800 l -357 805 l -357 1072 l -355 1130 l -342 1179 q -323 1217 -331 1195 l -274 1217 l -261 1213 l -37 1222 l -6 1217 l -212 1213 l 9 1213 l 3 1227 m 68 1227 l 84 1222 l 90 1227 l 96 1154 q 68 1227 73 1164 m -357 1217 l -330 1217 l -351 1213 l -357 1217 m -264 1111 l -239 1106 l -233 1111 l -264 1111 m -50 1111 l -28 1106 l -22 1111 l -50 1111 m 77 1086 q 96 1072 89 1084 q 77 1086 86 1073 m -261 1067 l -264 1023 l -264 844 l -261 795 l -264 776 l -264 737 q -233 674 -256 703 l -237 1067 l -261 1067 m -212 1067 q -168 1019 -180 1046 l -212 1019 l -214 873 q -224 810 -218 844 q -214 820 -218 812 l -218 771 l -212 742 l -212 679 l -22 679 l -18 747 l -22 762 l -18 810 l -22 863 l -18 965 l -22 1019 l -65 1019 l -65 1048 l -22 1043 l -18 1057 l -22 1067 l -212 1067 m -304 1057 l -304 888 l -286 888 l -286 1057 l -304 1057 m -224 1057 l -224 892 l -214 888 l -214 1053 l -224 1057 m -261 1048 l -237 1048 l -237 1019 l -261 1019 l -261 1048 m -121 1048 q -112 1019 -114 1036 q -121 1048 -119 1031 m -261 1009 l -237 1009 l -237 839 l -261 839 l -261 1009 m 77 1009 l 96 1009 l 96 839 l 77 839 l 77 1009 m -304 825 q -286 810 -296 814 q -304 825 -294 821 m -261 776 l -237 776 q -255 762 -245 765 q -261 776 -259 766 m 77 776 q 96 762 89 774 q 77 776 86 762 m -304 747 l -304 674 l -286 674 l -286 747 l -304 747 m -224 747 l -224 679 l -214 674 l -214 742 l -224 747 m 102 751 l 146 751 l 155 747 l 112 747 l 102 751 m -264 684 q -258 669 -263 674 l -264 684 m -212 674 l -165 669 l -22 669 l -68 674 l -212 674 m 112 674 l 155 669 l 190 654 q 155 674 175 668 l 112 674 m -513 674 l -498 674 l -498 640 l -517 645 l -513 674 m -395 645 l -355 640 l -314 640 l -355 645 l -395 645 m -212 645 l -159 640 l 6 640 l -47 645 l -212 645 m -488 621 l -479 621 l -486 606 l -488 621 m -517 591 l -498 591 l -498 180 l -517 180 l -517 591 m -373 572 l -373 529 l -153 529 l -153 568 l -373 572 m -106 568 l -106 529 q -96 557 -99 542 q -106 568 -99 565 m -50 568 l -50 529 l 6 529 l 6 568 l -50 568 m 50 568 l 50 529 l 102 529 l 102 568 l 50 568 m -414 524 l -414 480 l -408 514 q -414 524 -408 521 m -389 514 l -389 490 l -184 490 l -376 485 l -389 422 l -168 422 l -171 403 l -376 403 l -389 397 q -395 311 -394 360 q -389 300 -391 309 l -395 262 l 0 257 q 6 271 5 260 l 3 330 l 3 286 l -3 349 l 6 345 l 6 431 l 3 437 l 6 451 l 6 485 l -43 485 l 6 494 q -31 514 -8 513 l -112 519 l -112 514 l -134 519 l -389 514 m 53 519 l 50 437 l 53 393 l 53 277 l 50 262 l 53 257 l 100 257 l 109 267 l 112 340 l 112 431 l 102 437 l 109 514 l 53 519 m 16 514 q 22 500 16 505 l 47 505 l 16 514 m -153 480 l -106 480 l -106 451 l -153 451 l -153 480 m -96 480 l -50 480 l -50 451 l -96 451 l -96 480 m 71 466 q 87 451 81 464 q 71 466 78 452 m -414 456 l -414 422 l -408 446 q -414 456 -408 452 m 16 437 l 16 267 l 47 267 l 47 437 l 16 437 m -121 422 q -112 403 -115 414 q -121 422 -119 410 m -65 422 l 3 422 l 3 403 l -65 403 l -65 422 m 71 388 l 87 388 l 87 262 l 71 262 l 71 388 m -414 359 q -408 345 -412 349 q -414 359 -409 354 m -414 281 q -408 257 -413 269 q -414 281 -408 270 m -414 233 q -408 209 -413 220 q -414 233 -408 222 m -153 233 l -193 223 l -367 223 l -373 228 l -389 223 q -382 214 -389 216 l -171 209 l -345 209 q -364 203 -357 209 l -121 209 l -121 214 l -102 203 l -34 214 l -3 209 l -47 209 l 6 203 q -3 218 4 214 l -43 223 q -81 233 -60 230 l -106 223 q -112 233 -106 230 l -153 233 m 50 223 q 96 203 69 205 l 53 209 q 102 223 76 210 l 71 218 l 62 223 l 50 223 m -373 180 l -320 174 l -153 174 l -205 180 l -373 180 m -50 180 l 3 174 l 171 174 l 118 180 l -50 180 m 199 155 l 202 140 l 196 106 l 199 155 m -486 106 l -445 97 l -314 97 l -314 102 l -448 106 l -470 102 l -476 106 l -486 106 m -267 106 q -258 97 -264 100 q -267 106 -260 104 m -212 106 q -161 97 -189 98 l 9 97 q -40 106 -13 106 l -212 106 m 56 106 q 65 97 58 100 q 56 106 62 104 m -479 73 l -460 58 l -323 58 l -342 73 l -479 73 m -267 73 q -258 58 -265 62 q -267 73 -260 68 m -212 73 q -161 58 -190 59 l 9 58 l 9 63 q -40 73 -13 73 l -212 73 m 56 73 q 65 58 58 62 q 56 73 63 68 m -267 29 q -258 20 -264 22 q -267 29 -260 26 m -212 29 q -161 20 -189 20 l 9 20 q -40 29 -13 28 l -212 29 m 56 29 q 65 20 58 22 q 56 29 62 26 z "},"9":{"ha":694,"x_min":-134,"x_max":678,"o":"m 382 5 q 408 0 397 3 l 376 0 l 382 5 m 181 37 q 155 70 166 53 q 149 79 155 77 l 129 70 q 116 103 119 85 l 129 107 l 142 136 l 125 149 l 113 154 l 116 299 l 123 327 l 129 327 l 145 332 l 145 327 l 152 327 q 123 369 142 358 l 152 401 q 168 448 152 433 q 201 406 186 429 l 191 397 q 197 341 197 369 q 207 322 200 328 l 201 336 q 207 346 203 344 l 220 304 l 314 299 l 217 299 l 220 275 l 210 252 l 220 243 l 321 243 q 334 304 330 273 l 350 304 l 353 290 l 350 248 l 376 243 l 379 248 l 376 271 l 379 393 l 376 401 l 379 430 q 366 495 378 467 l 330 472 q 311 495 323 488 l 311 351 q 304 406 304 378 l 304 495 l 136 495 l 136 500 l -92 500 l -98 519 l -82 519 l -102 528 q -118 542 -111 538 l -102 523 l -127 519 q -134 528 -131 527 l -131 556 q -115 589 -119 570 q -131 682 -134 616 l -134 724 l -131 757 l -134 799 l -131 831 l -134 878 l -131 911 l -134 953 l -131 985 l -134 1000 l -111 1000 l -104 1004 l -134 1004 l -131 1051 l -134 1065 l -131 1126 l -134 1140 l -131 1149 l 87 1149 l 77 1154 l -85 1154 q -134 1173 -115 1154 l -124 1219 q -104 1247 -124 1240 l 15 1247 l 71 1238 q 25 1219 49 1221 l 256 1224 l 178 1224 l 178 1247 l 408 1247 q 382 1228 395 1232 l 363 1224 l 431 1219 l 428 1191 l 435 1051 l 454 1051 l 454 1126 q 470 1163 460 1147 q 477 1102 475 1131 l 473 1084 l 480 1069 l 477 1032 l 477 1004 l 425 1004 l 467 1000 l 477 995 l 477 607 l 509 607 l 480 626 l 480 663 l 509 654 l 519 644 l 636 640 l 646 626 l 620 612 l 561 612 l 532 607 l 591 607 l 639 589 l 532 589 l 532 570 l 646 565 q 636 556 642 557 l 532 556 l 532 551 l 646 547 l 639 542 l 529 542 l 529 537 l 639 532 l 646 519 l 538 519 l 499 505 l 486 519 l 477 448 l 477 103 q 464 42 475 68 l 327 47 l 304 42 l 304 47 l 181 37 m 480 65 l 509 65 q 490 47 502 52 l 480 65 m 136 56 q 142 65 138 64 q 136 56 139 57 m 171 79 q 181 89 178 82 q 171 79 174 86 m 435 79 q 454 94 445 83 q 435 79 444 90 m 203 103 q 256 107 233 103 q 203 103 227 107 m 77 126 q 83 140 79 136 q 103 126 94 136 l 77 126 m 480 126 q 486 140 482 136 q 509 126 500 136 l 480 126 m 132 154 l 132 317 l 129 304 l 129 154 l 132 154 m 454 154 l 454 317 l 435 317 l 435 154 l 454 154 m 288 173 l 337 178 l 265 178 l 217 173 l 288 173 m 376 173 l 370 178 l 350 173 l 376 173 m 324 187 l 370 201 q 379 229 377 214 l 252 229 q 220 210 235 223 l 239 191 l 220 187 l 324 187 m 288 191 q 298 201 292 199 q 288 191 294 193 m 77 364 l 103 364 l 103 201 l 77 201 l 77 364 m 480 364 l 509 364 l 509 201 l 480 201 l 480 364 m 337 220 q 343 210 342 216 l 337 220 m 304 275 q 311 290 307 286 q 304 275 309 280 m -56 304 l 71 304 l 28 299 l -98 299 l -56 304 m 435 378 q 454 393 445 382 q 435 378 444 388 m 187 383 q 181 393 185 391 l 161 383 l 187 383 m 136 425 q 142 439 138 435 q 136 425 140 429 m 480 425 q 486 439 482 435 q 509 425 500 435 l 480 425 m -124 453 q -98 448 -109 452 l -131 448 l -124 453 m 454 453 l 451 505 l 444 509 l 435 500 l 435 453 l 454 453 m 152 486 l 158 490 l 178 486 l 187 472 l 158 463 l 152 486 m 31 551 l 87 556 l 74 556 l 18 551 l 31 551 m 281 551 l 330 556 l 243 556 l 194 551 l 281 551 m 379 551 l 373 556 l 350 551 l 379 551 m 659 589 q 678 574 670 585 l 652 574 l 659 589 m -33 621 q -17 640 -23 629 l -30 644 q -24 668 -24 656 l -24 812 l -1 812 l -1 668 q -10 640 -3 652 q 2 677 1 657 l 2 995 l -1 1051 l -4 948 l -24 948 l -24 1027 l -33 1042 l -33 621 m 246 621 l 275 640 q 308 621 293 635 q 317 644 315 632 l 214 644 l 184 649 l 275 649 q 304 668 294 650 l 304 799 q 311 770 311 789 l 314 649 l 353 640 l 359 640 l 353 649 l 376 644 l 363 644 q 376 621 367 628 l 379 677 l 379 1000 l 382 1004 l 379 1014 l 379 1051 l 376 1079 l 353 1079 l 347 1065 q 327 1079 335 1069 l 311 1079 l 311 981 l 304 977 l 304 1079 l 25 1079 l 22 1065 l 25 958 q 31 901 26 926 l 64 897 l 22 901 l 22 1065 l 9 1056 l 9 930 l 18 878 q 9 827 15 849 q 18 780 18 804 q 9 728 12 756 l 9 640 q 22 654 17 644 l 22 720 l 25 747 l 25 686 q 45 649 26 655 l 54 644 l 25 644 l 25 621 l 246 621 m -50 640 l -50 766 l -75 766 l -75 640 l -50 640 m 435 677 q 454 691 445 682 q 435 677 444 687 m 480 724 q 486 738 482 734 q 509 724 500 734 l 480 724 m 454 752 l 454 916 l 435 916 l 435 752 l 454 752 m 330 827 l 350 827 l 350 766 l 330 766 l 330 827 m 480 962 l 509 962 l 509 799 l 480 799 l 480 962 m -50 827 q -56 841 -52 837 q -72 827 -66 837 l -50 827 m 330 901 l 350 901 l 350 841 l 330 841 l 330 901 m -24 888 q -1 873 -9 884 l -20 873 l -24 888 m 304 873 q 311 888 307 883 q 304 873 309 878 m -50 901 l -50 1065 l -75 1065 l -75 901 l -50 901 m -24 901 l -1 897 l -30 897 l -24 901 m 191 901 l 327 901 l 314 897 l 178 897 l 191 901 m 435 977 q 454 990 445 980 q 435 977 444 986 m 480 1023 q 486 1037 482 1033 q 509 1023 500 1033 l 480 1023 m 480 1140 l 483 1154 q 503 1182 493 1172 l 509 1126 l 509 1098 l 483 1098 l 480 1140 m 370 1149 l 425 1154 l 249 1154 l 194 1149 l 370 1149 m 457 1215 l 460 1233 l 464 1219 l 457 1215 m 119 1224 q 129 1247 121 1238 q 119 1224 127 1233 z "}," ":{"ha":523,"x_min":0,"x_max":0,"o":""}," ":{"ha":523,"x_min":0,"x_max":0,"o":""},"!":{"ha":386,"x_min":-167,"x_max":187,"o":"m -69 1246 l 7 1246 l 79 1241 l 3 1241 l -69 1246 m 13 1221 l 79 1211 l 121 1216 l 131 1205 l 121 1144 l 105 1144 q 115 1128 109 1128 l 136 1006 l 125 985 l 136 939 l 125 867 l 136 708 q 125 662 134 685 l 136 646 q 125 570 134 612 l 125 406 l 136 349 l 125 328 l 131 318 q 111 338 118 322 l 111 426 q 121 472 111 450 l 111 488 l 111 1077 l 105 1031 l 100 1072 q 90 1144 100 1106 l 54 1149 l 43 1144 q 33 1128 36 1140 q 43 1067 33 1097 l 43 1134 l 59 1139 q 79 1077 73 1112 q 85 995 84 1042 l 85 923 q 79 841 79 887 l 85 677 l 79 662 l 85 616 l 79 452 l 85 400 l 54 400 q 18 370 33 390 l 59 349 l 43 334 l -13 318 q -54 313 -38 318 l -7 313 q 7 302 5 313 l -38 288 l -90 292 l -90 323 q -69 385 -77 351 l -74 467 q 7 472 -38 472 l -23 477 l -74 477 l -69 498 l -74 503 l -69 574 l -74 806 l -69 826 l -74 882 l -69 898 l -69 1067 l -54 1108 l -64 1123 l -74 1159 l -69 1170 l -54 1164 q -33 1185 -39 1170 l 13 1221 m 141 1216 l 167 1211 l 172 1159 l 167 1144 l 151 1144 l 151 1021 l 141 1098 q 131 1149 140 1129 l 141 1216 m 105 1205 q 115 1190 107 1196 l 121 1205 l 105 1205 m 167 1139 l 172 1072 l 167 1010 l 161 1077 l 167 1139 m 33 995 q 43 980 35 985 q 33 995 41 990 m 141 944 l 151 928 q 141 944 144 933 m 161 944 q 172 928 169 939 q 161 944 165 933 m 33 913 l 33 744 q 43 734 35 737 l 43 903 q 33 913 42 909 m 100 862 l 105 774 l 105 682 l 100 862 m 141 862 l 151 774 l 151 682 l 141 862 m 161 862 l 172 774 l 172 682 l 161 862 m 33 667 q 43 652 35 656 q 33 667 41 662 m 141 616 l 151 600 q 141 616 144 605 m 161 616 q 172 600 169 611 q 161 616 165 605 m 33 585 l 33 416 q 43 406 35 409 l 43 574 q 33 585 42 581 m 100 534 l 105 446 l 105 354 l 100 534 m 141 534 l 151 462 l 146 390 l 141 534 m 161 534 l 172 446 l 172 354 l 161 534 m 79 385 q 69 354 78 370 l 79 385 m -161 359 l -151 328 q -125 349 -142 341 q -105 298 -112 325 l -125 292 l -161 313 l -167 338 l -161 359 m -74 262 l 18 262 l 39 256 l -54 256 l -74 262 m 18 231 l 59 205 l 79 220 l 115 226 l 125 190 l 131 149 l 125 138 q 141 154 137 142 l 141 205 l 172 205 l 172 184 q 187 144 176 166 q 167 87 182 117 l 146 36 l 131 52 q 54 72 100 71 q -38 62 14 64 q -69 102 -67 71 l -54 144 l 23 149 l -74 149 l -84 138 l -100 154 q -79 180 -92 169 l -49 184 q -38 174 -47 178 l -23 180 l -38 190 l 18 231 m 125 113 l 121 82 l 141 102 q 125 113 137 110 m 54 102 l 43 77 l 75 77 q 54 102 68 92 m 172 77 q 182 56 180 70 l 172 77 m -64 36 l 13 36 q 33 10 30 28 l -33 0 q -64 36 -60 6 z "},"\"":{"ha":362,"x_min":41,"x_max":355,"o":"m 245 1242 l 298 1242 l 351 1238 l 298 1238 l 245 1242 m 73 1184 l 115 1180 q 100 1164 104 1177 l 118 1176 l 125 1164 q 157 1173 140 1172 q 146 1137 155 1155 l 161 1102 l 157 951 l 161 920 l 157 908 l 161 756 q 143 721 157 737 q 132 701 134 714 q 143 674 142 690 q 125 667 134 673 l 90 659 q 52 671 72 659 l 52 772 l 55 783 q 52 814 52 796 l 52 1075 q 62 1114 53 1095 l 100 1126 l 111 1137 l 94 1141 l 65 1157 q 73 1184 66 1171 m 150 1184 q 157 1176 154 1183 l 150 1184 m 273 1184 l 284 1145 l 298 1168 l 309 1180 l 334 1164 l 348 1176 q 355 1114 353 1149 l 355 865 l 351 849 l 355 795 l 351 783 l 249 783 q 242 846 248 814 l 242 814 l 224 814 l 224 943 q 231 951 224 947 q 245 1025 243 985 l 242 1052 l 245 1063 l 245 1102 l 242 1099 l 242 1063 l 224 1063 l 224 1106 l 231 1161 l 245 1168 l 260 1141 q 273 1184 269 1159 m 291 1141 q 298 1126 292 1133 l 302 1137 l 291 1141 m 41 1137 l 62 1137 q 44 1126 55 1129 l 41 1137 m 41 1075 l 47 1009 l 47 939 l 41 1075 m 224 1013 q 242 1001 235 1012 q 224 1013 231 1002 m 41 888 q 47 877 45 884 q 41 888 43 880 m 41 826 l 47 760 l 47 690 l 41 826 m 245 779 l 319 779 q 355 736 353 779 q 337 674 353 705 q 309 635 335 646 l 281 631 l 263 651 l 231 631 q 224 643 227 635 l 224 701 l 242 701 l 245 779 m 224 764 q 242 752 235 762 q 224 764 231 753 m 309 686 l 305 655 l 302 640 l 309 643 l 316 674 q 309 686 315 682 m 52 655 l 125 655 l 118 640 l 79 627 q 52 655 62 635 m 41 640 l 47 640 l 44 631 l 41 640 m 73 604 l 100 600 l 87 589 l 58 593 l 73 604 m 273 604 q 284 589 280 599 q 273 604 277 595 z "},"#":{"ha":659,"x_min":-444,"x_max":422,"o":"m -165 1233 q -155 1219 -158 1230 q -165 1233 -161 1224 m -202 1193 l -175 1166 l -165 1188 l -151 1175 l -134 1179 l -131 1153 q -121 1175 -128 1165 l -107 1148 l -104 1113 l -127 1108 q -107 1068 -115 1093 l -111 1037 l -97 1028 l -94 1037 l -87 1050 q -94 1108 -92 1065 l -77 1099 l -73 886 l 144 886 l 140 903 l 140 979 q 161 1033 144 1009 l 184 1046 q 174 1059 181 1054 q 151 1095 159 1072 q 174 1108 160 1103 l 184 1099 l 229 1104 l 239 1099 q 249 1055 247 1079 l 245 1046 l 249 1028 q 276 1033 260 1031 l 313 1028 l 252 1028 l 252 895 l 395 895 l 401 890 l 283 890 l 300 886 l 344 886 l 351 872 l 361 886 q 391 877 376 885 l 395 828 l 391 810 l 378 779 l 364 792 l 354 828 l 344 814 l 334 752 l 279 743 q 252 734 265 743 l 313 734 l 313 708 l 256 708 q 252 637 252 676 l 249 587 l 252 570 l 249 530 l 330 530 l 337 485 l 334 472 q 351 441 337 453 l 273 441 q 252 392 267 416 l 252 316 q 249 245 249 285 q 218 218 238 226 l 249 218 l 249 178 l 252 160 l 249 36 q 222 0 245 10 q 229 54 226 24 l 229 129 q 222 174 229 151 l 218 18 l 222 18 l 218 14 l 184 14 l 181 45 l 171 5 q 144 0 159 1 l 140 116 l 147 165 l 144 209 q 154 218 146 215 l 184 222 l 164 222 q 140 262 144 229 l 140 338 l 144 401 l 144 441 l -66 441 l -73 382 l -73 231 q -94 222 -82 224 l -94 231 l -97 231 l -94 258 l -97 334 q -104 396 -97 363 l -104 258 l -107 250 l -107 222 l -205 222 q -212 294 -212 254 l -212 370 l -216 396 l -212 405 l -212 441 l -406 441 q -382 463 -395 455 l -375 498 q -382 507 -377 503 l -389 530 l -365 534 l -324 530 l -267 534 q -212 538 -243 538 l -263 547 l -270 592 l -256 601 l -212 601 q -216 650 -213 633 l -246 650 q -287 667 -268 652 l -273 672 l -236 667 q -212 650 -224 663 q -219 743 -212 711 l -280 743 l -297 752 l -324 748 l -334 752 l -348 752 l -372 757 l -378 752 l -389 752 l -389 770 l -375 792 l -399 797 l -439 797 l -444 814 q -426 846 -438 831 l -389 850 l -402 850 l -399 859 l -372 854 l -321 882 l -212 886 l -212 1019 l -205 1028 q -182 1059 -187 1034 q -209 1095 -197 1072 q -178 1113 -195 1101 l -212 1113 l -212 1131 q -202 1193 -210 1160 m 212 1126 q 249 1113 229 1124 l 232 1108 l 191 1108 l 212 1126 m -131 1099 q -124 1086 -130 1090 q -131 1099 -125 1095 m 222 1099 q 229 1086 223 1090 q 222 1099 227 1095 m 140 1055 q 147 1042 146 1051 q 140 1055 142 1046 m -280 1033 l -222 1033 l -216 1028 l -273 1028 l -280 1033 m -131 1028 l -131 948 q -124 886 -131 918 l -124 966 q -131 1028 -124 996 m -107 1028 l -104 908 q -97 895 -102 899 l -97 970 q -107 1028 -98 1000 m -70 1033 l -39 1033 l -63 1028 l -70 1033 m 73 1033 l 130 1033 l 144 1028 l 86 1028 l 73 1033 m 222 1028 l 222 948 q 229 886 222 918 l 229 966 q 222 1028 229 996 m 144 957 l 147 943 l 147 957 l 144 957 m -341 895 l -222 895 l -216 890 l -334 890 l -341 895 m -70 895 l 86 895 l 137 890 l -19 890 l -70 895 m 405 872 l 422 828 q 408 770 418 799 l 388 792 l 398 810 l 405 872 m 388 859 l 381 846 l 391 837 l 391 854 l 388 859 m 249 792 l 290 788 l 330 788 l 290 792 l 249 792 m -436 779 l -395 779 l -426 774 l -436 779 m -22 752 l -73 743 l -73 650 q -50 667 -64 662 l 117 667 q 86 650 104 654 l -66 650 q -73 641 -70 648 l -73 601 l 140 601 l 140 699 l 130 708 l 76 708 l 73 734 l 137 734 l 52 752 l 39 748 l -22 752 m -131 743 l -131 672 q -124 614 -131 645 l -124 730 q -131 743 -125 739 m -107 743 q -97 734 -104 737 q -107 743 -100 741 m 222 743 l 222 596 q 229 587 222 591 l 229 734 q 222 743 228 741 m -341 734 q -331 708 -334 723 q -341 734 -339 720 m -280 734 l -216 734 l -216 708 l -280 708 l -280 734 m -70 734 l -39 734 l -39 708 l -70 708 l -70 734 m 12 734 q 22 708 19 723 q 12 734 14 720 m -107 708 q -97 667 -104 687 q -107 708 -97 688 m 144 672 l 147 659 l 147 672 l 144 672 m -104 650 l -104 618 l -97 641 q -104 650 -98 647 m -304 596 q -294 561 -298 582 l -304 552 l -314 566 l -304 596 m 90 583 q 144 578 113 578 q 90 583 119 583 m -324 556 l -317 556 l -321 547 l -324 556 m -22 552 q -73 538 -47 549 l -29 538 l -19 534 l 25 534 l 35 538 l 39 534 l 90 534 l 96 538 l 130 538 q 140 547 138 538 l 96 547 l 86 552 l 39 552 l 32 547 q -22 552 7 552 m -399 530 l -392 507 q -399 530 -399 517 m 401 530 l 415 521 l 408 467 q 401 530 402 497 m 371 521 l 378 490 l 371 481 l 371 521 m 90 507 q 144 503 113 503 q 90 507 119 507 m 249 507 l 290 503 l 330 503 l 290 507 l 249 507 m 371 441 l 368 423 l 364 445 l 371 441 m -131 401 l -131 321 q -124 302 -130 311 l -124 382 q -131 401 -125 393 m 222 401 l 222 321 q 229 302 222 311 l 229 382 q 222 401 228 393 m 144 387 l 147 374 l 147 387 l 144 387 m 144 316 l 147 302 l 147 316 l 144 316 m -131 245 q -124 231 -130 236 q -131 245 -125 240 m 222 245 q 229 231 223 236 q 222 245 227 240 m -212 218 l -121 218 q -107 182 -111 205 l -111 129 l -104 116 l -111 85 l -127 71 l -138 85 q -124 129 -129 105 q -131 174 -124 151 l -134 120 q -151 80 -140 100 q -172 107 -162 90 l -192 89 q -199 76 -197 78 q -212 116 -208 94 l -205 138 l -209 147 l -212 160 l -212 218 m -94 218 l -73 218 l -73 169 q -90 120 -84 149 l -97 151 l -94 218 m -144 147 l -148 129 l -138 125 q -144 147 -138 136 m -87 125 l -73 102 q -87 125 -86 103 m 144 102 l 144 71 l 154 76 l 144 102 m 198 58 l 198 18 l 201 49 l 201 58 l 198 58 z "},"$":{"ha":772,"x_min":-182,"x_max":513,"o":"m 127 1222 l 182 1222 q 175 1204 181 1213 l 145 1208 l 138 1204 l 127 1200 l 127 1222 m 197 1222 l 244 1222 l 241 1204 l 197 1208 l 197 1222 m 142 1191 q 182 1147 158 1168 l 186 1085 l 193 1120 l 193 1160 l 241 1164 l 219 1160 l 219 1063 l 267 1063 q 270 1028 269 1048 l 289 1063 l 336 1063 l 340 1028 l 479 1023 l 484 817 l 476 781 q 484 772 480 780 l 479 680 l 469 692 q 461 644 469 669 l 461 662 q 435 710 451 684 l 432 736 l 414 692 l 410 648 q 377 662 393 652 q 406 706 378 688 q 370 759 370 711 l 370 777 l 366 781 l 370 789 l 366 905 l 370 935 l 244 935 q 252 905 245 920 q 219 843 229 880 l 219 745 q 244 680 236 720 l 219 653 q 244 644 231 653 q 230 591 241 621 l 391 591 l 425 583 l 458 591 q 505 574 481 591 q 476 512 497 544 l 479 468 q 502 481 489 477 q 476 419 481 458 l 476 317 l 484 366 l 484 410 l 505 410 l 505 282 l 509 256 q 479 287 494 269 l 487 243 l 469 225 l 336 216 l 435 216 q 498 199 465 212 l 454 185 q 402 155 430 176 q 439 168 420 158 l 461 150 q 402 128 436 135 l 321 128 l 318 155 l 377 155 l 248 159 l 256 155 l 263 128 q 248 115 254 124 l 248 150 q 222 102 248 117 l 241 84 l 200 79 l 189 146 l 156 150 q 145 128 149 141 q 163 102 158 120 q 127 62 147 79 q 87 53 106 62 l 75 106 l 75 159 l 68 128 l 39 128 l 35 71 q 13 128 18 92 l -49 128 l -64 132 l -56 155 l -93 159 l -86 150 l -100 203 l -104 260 l -97 313 q -79 260 -79 294 l -75 185 l -79 172 q -53 159 -68 163 l -56 199 l -56 273 l -53 291 l -60 252 l -60 172 l -71 163 l -71 264 q -79 317 -72 290 l -53 322 l -35 331 l -60 357 l 5 357 q 13 344 11 353 l 17 361 l -64 361 l -79 353 l -90 366 q -71 393 -83 381 l -27 393 l -53 375 l 2 384 l 31 410 q 39 317 39 368 l 39 296 l 75 300 l 75 419 l 57 415 l -64 415 q -49 450 -62 433 l -53 595 l -75 595 l -79 587 l -79 490 l -86 454 q -97 498 -94 475 l -97 578 l -93 595 l -93 640 l 17 640 l 17 622 l 20 631 l 20 692 l 39 692 l 39 595 l 54 595 l 75 591 l 75 732 l 72 750 l 68 785 l 75 798 l 72 817 l 75 887 l 75 931 l 39 926 l 39 829 l 20 821 l 20 869 l 17 887 l 17 644 l -82 644 q -93 653 -89 646 l -93 724 l -97 736 l -97 834 l -93 918 l -97 997 q -49 1019 -75 1005 l 72 1028 l 72 1050 q 17 1067 48 1065 q -53 1059 -12 1061 q -64 1094 -60 1074 l 57 1099 l 75 1076 l 68 1116 q 87 1178 75 1147 q 112 1160 96 1167 l 131 1147 l 142 1191 m -100 1164 l -45 1164 l 5 1160 l -49 1160 l -100 1164 m 248 1164 l 380 1164 l 388 1160 l 256 1160 l 248 1164 m 24 1143 l 39 1116 q 31 1103 37 1108 q 24 1143 25 1120 m 248 1116 q 263 1067 257 1096 q 248 1116 249 1086 m 318 1099 l 469 1099 q 479 1059 478 1080 l 318 1067 l 318 1099 m 490 1094 l 509 1094 l 505 1059 q 490 1094 494 1070 m 182 1067 q 193 1028 183 1047 q 182 1067 193 1048 m -112 1023 l -104 979 l -108 962 l -112 1023 m 428 1019 l 428 878 l 432 865 l 432 1019 l 428 1019 m 494 1023 q 513 975 511 1006 l 509 843 l 513 798 l 505 785 q 487 825 488 799 l 494 1023 m 20 988 l 24 975 l 24 988 l 20 988 m 186 988 q 193 975 186 979 l 186 988 m 248 988 q 300 975 273 979 l 370 975 q 314 988 343 985 l 248 988 m -75 949 l -56 935 q -75 949 -63 945 m 20 935 l 17 918 l 28 926 q 20 935 26 931 m 182 935 l 186 896 l 182 882 l 182 807 l 186 781 l 182 772 l 182 595 l 193 591 l 193 869 l 189 913 l 193 931 l 182 935 m -112 905 q -104 891 -106 901 q -112 905 -109 895 m -79 878 l -79 724 l -53 724 l -53 878 l -79 878 m -112 834 l -104 759 l -104 680 l -112 834 m 248 834 l 252 794 l 252 692 l 248 834 m 487 781 q 509 745 507 774 l 513 706 l 509 692 l 494 728 q 487 781 489 751 m 20 763 q 39 750 31 762 q 20 763 28 751 m 472 728 l 461 719 l 461 688 l 465 688 q 472 728 472 707 m -79 666 q -60 653 -72 656 q -53 666 -55 656 l -79 666 m -112 622 q -104 609 -106 618 q -112 622 -109 613 m 248 604 l 377 604 q 388 595 383 603 l 259 600 l 248 604 m 443 604 q 454 595 450 603 q 443 604 447 597 m 479 565 l 484 551 l 484 565 l 479 565 m -112 551 q -104 454 -104 507 q -112 551 -111 499 m 336 503 l 358 498 l 366 503 l 336 503 m 219 459 q 244 410 233 439 l 219 370 l 244 370 l 244 322 l 219 313 q 230 291 220 299 l 270 291 l 270 296 l 285 291 l 336 291 l 344 296 l 370 296 l 370 340 l 402 361 l 370 361 l 370 401 q 366 441 370 425 l 366 415 l 321 415 l 318 454 l 333 459 l 281 459 l 274 454 l 252 415 l 248 446 l 252 454 l 219 459 m 182 454 l 182 344 q 193 296 182 321 l 193 446 l 182 454 m 428 454 l 428 313 l 432 300 l 432 454 l 428 454 m -141 393 l -108 393 q -130 357 -110 366 q -159 366 -146 359 l -141 393 m -182 340 l -156 340 q -174 326 -163 330 q -182 340 -179 330 m -104 340 l -86 340 l -100 326 l -104 340 m -149 317 l -108 317 l -108 243 l -112 220 l -108 212 l -108 190 l -104 155 l -115 159 l -119 155 q -163 168 -141 155 q -182 146 -170 154 l -182 264 q -163 304 -163 277 l -156 264 l -156 203 l -159 168 q -152 159 -159 162 q -137 172 -140 161 q -152 199 -147 182 l -149 317 m -141 313 l -134 203 l -134 304 q -141 313 -134 311 m 13 313 l 17 300 l 17 313 l 13 313 m -45 220 l 17 216 l 215 216 l 153 220 l -45 220 m -49 159 l 13 155 l 28 155 l -35 159 l -49 159 m -123 146 l -119 128 l -130 128 l -123 146 m 193 75 l 241 75 q 230 58 238 65 l 197 44 l 193 75 m 200 18 l 222 14 q 197 0 212 4 l 200 18 z "},"%":{"ha":925,"x_min":-235,"x_max":677,"o":"m 242 1242 q 275 1233 258 1242 q 242 1242 259 1233 m 205 1187 l 260 1177 l 260 1038 q 293 960 286 1008 l 260 951 l 293 941 l 293 913 q 260 830 271 879 l 260 719 l 293 719 l 293 659 l 270 659 q 293 594 288 632 l 260 585 l 260 422 l 279 422 q 293 362 289 395 l 265 362 l 260 353 l 293 349 l 293 288 l 275 288 q 260 279 265 286 l 260 126 l 283 121 q 237 98 261 113 l 260 84 l 275 66 q 210 47 244 54 l 168 47 l 168 121 q 154 186 159 150 l 256 191 l 154 191 l 168 205 q 159 214 167 211 l 154 260 q 168 311 164 282 l 168 422 q 154 496 155 454 q 168 511 164 500 q 154 524 159 515 l 168 594 l 168 705 l 154 784 q 168 793 158 790 q 154 867 155 825 q 168 876 163 869 l 168 987 l 154 1076 l 177 1136 l 228 1177 l 154 1182 l 205 1182 l 205 1187 m 279 1187 q 293 1177 288 1185 l 279 1187 m 298 1131 l 302 1053 l 302 969 l 298 1131 m -138 886 l -73 886 l -8 881 l -73 881 l -138 886 m 627 886 l 677 886 q 640 881 662 882 l 627 886 m 298 835 l 302 756 l 302 673 l 298 835 m -64 742 l 10 742 l -22 733 l -82 733 l -96 738 l -64 738 l -64 742 m 562 742 l 608 733 l 469 738 l 562 738 l 562 742 m -54 724 l 20 714 l 20 589 l 24 571 l -45 557 l -73 557 q -17 529 -57 530 q -68 496 -39 511 l -96 529 l -128 506 l -147 515 q -156 506 -148 510 q -142 562 -146 528 q -165 585 -155 570 l -170 534 q -193 575 -184 553 l -142 603 l -156 622 l -115 631 l 15 635 l -138 635 q -175 627 -157 634 l -184 654 l -165 668 q -142 654 -152 665 l -124 663 l -138 668 l -124 682 q -54 724 -97 704 m 543 719 l 594 714 q 659 705 625 714 q 677 650 671 682 l 650 631 l 673 631 q 664 575 673 604 l 677 552 q 645 538 664 545 l 659 566 l 627 566 l 557 552 l 441 566 l 455 589 l 478 603 l 460 627 l 497 635 l 465 635 l 450 627 l 450 635 l 446 635 q 465 668 450 653 q 473 659 470 667 l 465 645 l 488 659 l 478 686 l 501 682 l 543 719 m -156 686 q -147 673 -150 682 q -156 686 -153 677 m -110 659 l -92 645 l -87 659 l -110 659 m 112 659 q 121 603 119 634 q 112 659 115 628 m -235 612 q -203 599 -218 611 q -235 612 -221 600 m -231 538 l -208 538 l -226 524 l -231 538 m 298 538 l 302 460 l 302 376 l 298 538 m 511 538 q 608 529 555 537 q 562 496 593 509 l 483 506 l 460 515 l 511 538 m 298 242 l 298 80 l 293 112 l 298 126 l 298 242 m 168 38 l 237 38 l 233 24 l 172 15 l 168 38 z "},"&":{"ha":926,"x_min":-349,"x_max":507,"o":"m 219 1222 l 288 1222 l 356 1217 l 288 1217 l 219 1222 m 13 1195 l 292 1190 l 338 1195 l 352 1185 l 356 829 l 301 824 l 356 824 l 356 760 l 329 755 q 306 732 313 749 l 338 714 l 324 701 q 264 686 298 691 l 118 686 q 77 677 94 686 l 292 677 q 260 659 279 666 l 73 659 l 68 636 l 68 568 l 73 531 l 68 517 l 73 435 l 68 412 l 324 412 q 393 403 357 412 q 338 380 373 381 l 123 380 q 86 375 100 380 l 301 375 l 347 371 l 132 371 q 73 361 104 371 l 361 361 q 402 330 386 353 q 434 357 420 336 q 466 320 453 342 q 420 298 444 313 q 452 265 439 286 l 439 256 l 397 265 l 416 247 l 306 238 l 379 238 q 411 224 399 237 l 342 215 l 228 220 l 228 215 l 214 220 l 164 220 l 146 215 l 73 215 l 59 160 l 68 119 l 59 105 q 36 55 51 80 q -5 23 27 28 l -147 27 q -174 50 -173 28 l -115 60 l -101 96 l -151 96 l -170 92 q -202 115 -190 96 q -138 128 -172 124 l -115 100 l -115 192 q -161 215 -130 214 l -344 224 l -349 275 l -344 288 q -298 311 -317 289 l -298 353 l -326 353 l -298 366 q -243 385 -276 384 l -170 385 l -147 338 l -115 338 l -119 654 l -151 659 l -156 631 l -156 558 l -151 531 l -156 522 l -156 389 l -266 389 q -302 426 -295 392 l -344 426 l -344 586 l -298 586 l -298 627 l -294 646 l -298 691 l -284 732 q -248 769 -270 750 l -234 787 l -216 764 q -179 792 -196 775 q -124 778 -154 783 l -115 842 l -115 970 l -119 970 l -115 975 l -115 1122 q -106 1177 -113 1149 q -83 1135 -92 1159 l -87 1071 q -74 1039 -85 1050 q -51 1085 -68 1063 q -74 1126 -59 1107 l -64 1154 l -37 1144 l -23 1177 l 13 1195 m 411 1195 l 434 1195 q 425 1144 434 1171 q 389 1131 406 1143 l 434 1131 l 434 1076 q 389 1044 402 1074 l 389 911 l 434 911 l 434 861 q 393 838 412 854 q 434 829 414 837 l 370 829 l 370 1030 l 379 1154 q 366 1190 370 1168 l 374 1177 l 411 1195 m 480 1190 q 494 1167 490 1181 q 480 1158 489 1161 l 480 1190 m -83 1099 q -74 1085 -77 1094 q -83 1099 -80 1089 m 480 1099 q 494 1085 489 1095 q 480 1099 484 1088 m 68 1053 l 68 994 l 73 970 l 68 957 l 68 824 q 81 778 68 800 l 141 778 q 173 806 153 795 q 214 787 194 802 l 219 819 l 219 970 l 214 970 l 219 975 l 219 1053 l 68 1053 m 73 1048 l 123 1048 l 123 1025 l 73 1025 l 73 1048 m 151 1048 l 155 1021 l 151 1012 l 151 1048 m 191 1048 q 205 1025 202 1039 q 191 1048 195 1034 m 210 1048 l 214 1021 l 210 1012 l 210 1048 m 480 1025 q 494 952 493 994 l 494 865 q 480 939 480 897 l 480 1025 m 264 998 q 279 989 268 989 l 264 998 m -289 929 l -129 929 l -119 924 l -279 924 l -289 929 m 73 929 l 146 929 l 214 924 l 141 924 l 73 929 m 264 924 l 264 851 q 279 801 265 827 l 279 874 q 264 924 279 899 m -87 911 l -87 851 l -74 856 l -87 911 m 210 879 l 214 819 l 214 806 l 210 879 m -193 856 l -119 856 q -129 824 -119 840 l -188 824 l -202 829 q -193 856 -200 840 m 73 856 l 123 856 l 123 824 l 73 824 l 73 856 m 191 856 q 205 833 201 847 q 191 824 201 827 l 191 856 m -87 838 q -74 778 -87 808 q -87 838 -76 809 m 370 824 l 434 824 l 434 778 l 389 778 l 389 686 l 370 719 l 384 732 q 370 824 371 771 m 480 806 q 494 792 489 802 q 480 806 484 795 m -261 792 l -252 774 l -266 764 l -261 792 m -326 764 l -307 719 l -326 719 l -344 723 l -326 764 m 480 732 q 494 719 489 729 l 480 709 l 480 732 m -156 686 l -124 677 q -115 686 -118 679 l -156 686 m -344 659 l -298 659 q -334 646 -314 650 q -344 659 -341 650 m -87 618 l -83 554 l -87 540 q -74 490 -87 515 l -83 508 l -74 554 l -87 618 m -78 485 q -83 448 -81 469 q -74 439 -82 442 l -78 485 m 73 490 l 123 490 q 86 485 107 486 l 73 490 m 274 490 l 439 490 l 452 485 l 288 485 l 274 490 m -151 412 l -119 412 l -119 389 l -151 389 l -151 412 m 429 412 q 448 389 444 406 q 429 412 437 397 m 471 412 l 503 412 q 480 385 496 396 l 471 412 m 68 393 q 141 385 100 385 l 384 385 q 311 393 351 393 l 68 393 m 466 357 q 507 330 496 357 q 494 279 506 306 l 462 279 l 471 307 l 475 343 l 466 357 m 68 343 l 146 338 l 384 338 l 306 343 l 68 343 m -179 243 l -119 238 l -56 238 l -115 243 l -179 243 m -23 243 l 45 238 l 146 238 l 77 243 l -23 243 m -83 206 q -74 174 -83 191 l -74 201 l -83 206 m -202 174 l -133 174 q -119 165 -125 172 l -188 165 q -202 174 -197 166 m 73 174 l 123 174 l 86 165 q 73 174 78 166 m 191 174 q 205 165 200 172 q 191 174 197 166 m 274 174 l 370 174 l 379 165 l 283 165 q 274 174 277 165 m -83 165 q -74 146 -82 155 q -83 165 -74 157 m -1 68 l -9 32 l -1 27 l 8 60 q -1 68 7 66 m 36 27 q 45 18 41 26 l 41 14 l 36 27 m -193 23 l -115 23 q -129 0 -117 9 l -193 0 l -206 5 l -193 23 m -46 18 q -33 0 -37 12 q -46 18 -42 7 z "},"'":{"ha":362,"x_min":115,"x_max":264,"o":"m 154 1229 l 206 1225 q 189 1207 193 1221 l 211 1220 l 220 1207 q 259 1216 237 1215 q 246 1176 257 1196 l 264 1137 l 259 966 l 264 931 l 259 918 l 264 747 q 241 708 260 726 q 229 686 230 701 q 241 655 240 673 q 220 646 230 654 l 176 637 q 127 651 153 639 l 127 764 l 132 778 q 127 813 129 793 l 127 1106 q 140 1150 130 1128 l 189 1163 l 202 1176 l 180 1181 l 145 1198 q 154 1229 145 1214 m 250 1229 q 259 1220 256 1228 l 250 1229 m 115 1176 l 140 1176 q 119 1163 132 1167 l 115 1176 m 115 1106 l 123 1031 l 123 953 l 115 1106 m 115 896 q 123 883 120 892 q 115 896 117 887 m 115 826 l 123 751 l 123 673 l 115 826 m 127 633 l 220 633 l 211 616 l 163 603 q 127 633 142 611 m 115 616 l 123 616 l 119 607 l 115 616 m 154 576 l 189 572 l 172 559 l 136 563 l 154 576 z "},"(":{"ha":450,"x_min":-177,"x_max":241,"o":"m -87 1246 q -73 1236 -79 1244 q -87 1246 -82 1238 m -3 1246 l 213 1246 l 227 1242 l 11 1242 l -3 1246 m -50 1232 l -7 1226 l 6 1232 l 25 1232 q 100 1226 58 1226 l 171 1232 q 204 1191 199 1225 l 195 1109 q 213 1160 208 1132 l 213 1226 l 232 1221 q 241 1140 241 1185 q 208 1084 237 1106 l 157 1099 q 134 1120 149 1110 l 119 1099 l 115 1074 l -45 1074 l -45 921 l -31 937 l -31 1013 l -26 1023 l -3 1023 l -3 870 q -45 829 -17 845 q -12 779 -37 800 l -45 743 l -45 570 q -31 642 -35 604 l -31 698 q -3 688 -18 698 l -3 530 q -12 519 -3 524 l -45 505 q -31 484 -41 492 q -17 438 -17 460 q -45 382 -36 416 l -45 245 q -31 260 -35 249 l -31 352 q -3 372 -20 366 l -3 266 l 180 266 l 176 260 l 11 260 l -7 195 l -45 179 q -31 164 -42 168 l 39 174 q 86 159 64 173 l -22 159 q -97 154 -55 154 l -163 154 l -177 159 l -177 235 l -172 245 l -177 403 l -172 423 l -177 479 l -172 494 l -177 560 l -172 581 l -177 728 l -172 749 l -177 1048 l -163 1109 l -177 1145 l -172 1165 q -163 1155 -166 1164 q -153 1196 -155 1172 l -149 1226 q -106 1216 -127 1225 l -50 1232 m -31 1130 l 39 1124 l 110 1124 l 39 1130 l -31 1130 m -31 1069 l 86 1069 l 86 1028 l -31 1028 l -31 1069 m 157 1063 q 171 1033 168 1050 q 157 1063 160 1046 m 157 174 q 171 159 166 170 q 157 174 161 163 m -177 149 l -50 149 l -7 128 l -31 98 l 91 98 l 171 113 q 180 98 178 109 q 208 83 195 97 q 237 108 217 100 l 241 47 l 237 83 l 208 67 q 190 52 198 62 l 204 42 l 222 22 l 199 16 q 157 -3 181 2 l 35 -9 l 58 -14 l 180 -14 q 161 -34 176 -26 l 110 -44 l -139 -44 q -168 -14 -163 -41 l -134 -9 l -153 -9 q -177 37 -170 11 l -172 87 l -177 149 m 134 1 l 142 1 l 142 12 l 138 12 l 134 1 m -87 -85 q -73 -100 -78 -89 q -87 -85 -83 -96 m -3 -85 l 81 -85 q 147 -95 113 -85 l 1 -100 l -3 -85 z "},")":{"ha":447,"x_min":-177,"x_max":241,"o":"m 152 1246 q 138 1236 146 1238 q 152 1246 144 1244 m 54 1242 l -163 1242 l -149 1246 l 67 1246 l 54 1242 m 171 1216 q 213 1226 192 1225 l 218 1196 q 227 1155 220 1172 q 237 1165 231 1164 l 241 1145 l 227 1109 l 241 1048 l 237 749 l 241 728 l 237 581 l 241 560 l 237 494 l 241 479 l 237 423 l 241 403 l 237 245 l 241 235 l 241 159 l 227 154 l 161 154 q 86 159 119 154 l -22 159 q 25 174 1 173 l 96 164 q 110 179 107 168 l 72 195 l 54 260 l -111 260 l -115 266 l 67 266 l 67 372 q 96 352 85 366 l 96 260 q 110 245 100 249 l 110 382 q 81 438 101 416 q 96 484 81 460 q 110 505 105 492 l 77 519 q 67 530 68 524 l 67 688 q 96 698 82 698 l 96 642 q 110 570 100 604 l 110 743 l 77 779 q 110 829 102 800 q 67 870 81 845 l 67 1023 l 91 1023 l 96 1013 l 96 937 l 110 921 l 110 1074 l -50 1074 l -54 1099 l -68 1120 q -92 1099 -83 1110 l -144 1084 q -177 1140 -172 1106 q -168 1221 -176 1185 l -149 1226 l -149 1160 q -130 1109 -142 1132 l -139 1191 q -106 1232 -134 1225 l -36 1226 q 39 1232 6 1226 l 58 1232 l 72 1226 l 115 1232 l 171 1216 m 25 1130 l -45 1124 l 25 1124 l 96 1130 l 25 1130 m 96 1028 l -22 1028 l -22 1069 l 96 1069 l 96 1028 m -92 1063 q -106 1033 -96 1046 q -92 1063 -102 1050 m -92 174 q -106 159 -96 163 q -92 174 -102 170 m 237 87 l 241 37 q 218 -9 234 11 l 199 -9 l 232 -14 q 204 -44 228 -41 l -45 -44 l -97 -34 q -115 -14 -111 -26 l 6 -14 l 30 -9 l -92 -3 q -134 16 -116 2 l -158 22 l -139 42 l -125 52 q -144 67 -133 62 l -172 83 l -177 47 l -172 108 q -144 83 -153 100 q -115 98 -131 97 q -106 113 -113 109 l -26 98 l 96 98 l 72 128 l 115 149 l 241 149 l 237 87 m -73 12 l -78 12 l -78 1 l -68 1 l -73 12 m 152 -85 q 138 -100 148 -96 q 152 -85 142 -89 m 63 -100 l -83 -95 q -17 -85 -49 -85 l 67 -85 l 63 -100 z "},"*":{"ha":1166,"x_min":-541,"x_max":-4,"o":"m -319 1230 l -281 1230 l -245 1227 l -283 1227 l -319 1230 m -273 1217 q -263 1169 -264 1196 l -263 1139 l -243 1139 l -243 1194 l -241 1116 l -243 1111 q -248 1106 -244 1108 l -263 1106 q -243 1088 -254 1099 l -241 1073 l -243 1068 l -160 1068 l -263 1065 l -263 977 l -243 977 l -243 1013 l -241 1040 l -241 962 l -22 962 l -4 957 l -6 937 l -49 929 l -6 929 l -9 919 l -24 901 l -12 891 q -54 879 -28 881 l -37 894 l -183 894 q -178 884 -183 888 q -147 879 -163 884 l -241 879 l -241 800 l -243 790 l -263 775 l -245 775 l -269 770 l -314 770 l -314 806 q -321 853 -319 827 l -314 859 q -321 884 -320 870 l -321 894 l -445 894 l -445 884 l -430 884 l -442 879 l -541 879 q -533 886 -539 884 l -536 907 l -518 914 l -528 929 l -420 929 l -425 932 l -533 932 l -541 944 l -518 949 q -513 944 -517 946 l -500 949 l -513 952 l -536 952 q -521 960 -529 957 l -513 952 q -470 962 -494 960 l -319 962 q -314 970 -315 964 q -321 1015 -319 989 l -314 1023 q -321 1055 -319 1038 q -314 1103 -314 1078 l -314 1143 l -317 1152 l -309 1159 q -321 1184 -316 1170 q -304 1192 -311 1187 q -273 1217 -292 1204 m -513 1068 l -430 1068 l -410 1065 l -493 1065 l -513 1068 m -64 1068 l -12 1068 l -4 1065 l -57 1065 l -64 1068 m -243 932 l -201 929 l -135 929 l -178 932 l -243 932 m -490 894 q -483 884 -489 888 q -490 894 -484 890 m -228 894 q -220 884 -227 888 q -228 894 -222 890 m -263 884 l -263 816 l -243 816 l -243 884 l -263 884 m -372 884 q -364 879 -368 883 q -372 884 -369 880 m -110 884 q -102 879 -105 883 q -110 884 -106 880 m -314 768 l -251 768 q -243 743 -244 756 q -263 737 -254 743 l -263 689 l -266 680 q -311 662 -283 665 q -321 687 -319 673 l -291 687 l -296 689 q -321 712 -319 691 l -314 768 m -243 717 l -241 709 l -245 689 l -243 717 m -314 659 q -279 654 -298 659 q -286 642 -279 647 l -311 639 l -319 642 l -314 659 z "},"+":{"ha":1166,"x_min":-541,"x_max":578,"o":"m -79 1230 l 0 1230 l 73 1224 l -5 1224 l -79 1230 m 16 1203 q 37 1103 36 1159 l 37 1040 l 79 1040 l 79 1156 l 84 993 l 79 983 q 68 972 77 977 l 37 972 q 79 935 58 958 l 84 904 l 79 893 l 252 893 l 37 888 l 37 704 l 79 704 l 79 778 l 84 836 l 84 673 l 541 673 l 578 662 l 572 620 l 484 604 l 572 604 l 568 583 l 536 547 l 562 526 q 473 499 526 504 l 509 531 l 205 531 q 215 510 205 519 q 278 499 247 509 l 84 499 l 84 336 l 79 315 l 37 283 l 73 283 l 26 273 l -68 273 l -68 347 q -84 447 -79 391 l -68 457 q -84 510 -81 481 l -84 531 l -341 531 l -341 510 l -310 510 l -336 499 l -541 499 q -525 515 -537 510 l -530 557 l -494 573 l -515 604 l -289 604 l -299 610 l -525 610 l -541 635 l -494 646 q -483 635 -492 640 l -457 646 l -483 652 l -530 652 q -499 667 -517 663 l -483 652 q -394 673 -444 668 l -79 673 q -68 688 -71 677 q -84 783 -79 730 l -68 799 q -84 867 -79 829 q -68 967 -68 913 l -68 1051 l -73 1067 l -58 1082 q -84 1135 -73 1105 q -47 1151 -61 1143 q 16 1203 -22 1177 m -483 893 l -310 893 l -268 888 l -441 888 l -483 893 m 452 893 l 562 893 l 578 888 l 467 888 l 452 893 m 79 610 l 168 604 l 304 604 l 215 610 l 79 610 m -436 531 q -420 510 -433 517 q -436 531 -422 523 m 111 531 q 126 510 113 517 q 111 531 124 523 m 37 510 l 37 368 l 79 368 l 79 510 l 37 510 m -189 510 q -173 499 -179 508 q -189 510 -182 501 m 357 510 q 373 499 367 508 q 357 510 363 501 m -68 268 l 63 268 q 79 216 76 243 q 37 205 57 216 l 37 105 l 31 84 q -63 47 -5 53 q -84 100 -79 70 l -21 100 l -31 105 q -84 153 -79 109 l -68 268 m 79 163 l 84 147 l 73 105 l 79 163 m -68 42 q 5 31 -35 41 q -10 5 3 16 l -63 0 l -79 5 l -68 42 z "},",":{"ha":386,"x_min":106,"x_max":256,"o":"m 146 388 l 199 384 q 181 366 186 380 l 203 379 l 212 366 q 251 375 230 374 q 238 336 249 355 l 256 296 l 251 125 l 256 90 l 251 77 l 256 -94 q 234 -133 252 -114 q 220 -155 222 -140 q 234 -185 233 -167 q 212 -194 222 -186 l 168 -203 q 119 -190 145 -202 l 119 -76 l 124 -63 q 119 -28 121 -47 l 119 265 q 133 309 121 287 l 181 322 l 194 336 l 172 340 l 137 357 q 146 388 138 373 m 243 388 q 251 379 248 387 l 243 388 m 106 336 l 133 336 q 111 322 124 326 l 106 336 m 106 265 l 115 191 l 115 112 l 106 265 m 106 55 q 115 42 113 51 q 106 55 109 46 m 106 -14 l 115 -89 l 115 -168 l 106 -14 m 119 -208 l 212 -208 l 203 -224 l 155 -238 q 119 -208 134 -229 m 106 -224 l 115 -224 l 111 -233 l 106 -224 m 146 -264 l 181 -269 l 163 -281 l 128 -277 l 146 -264 z "},"-":{"ha":688,"x_min":-409,"x_max":376,"o":"m -300 1017 l -221 1017 l -203 1013 l -282 1013 l -300 1017 m -60 1017 l 241 1017 l 250 1013 l -51 1013 l -60 1017 m -286 878 l 14 878 l 23 873 l -278 873 l -286 878 m 167 878 l 219 878 l 254 873 l 202 873 l 167 878 m -264 834 l 267 834 q 276 825 273 833 l 276 747 q 237 708 267 720 q 197 690 221 693 l -33 690 l -12 699 q 32 703 13 699 l -256 699 q -203 690 -230 699 l -300 690 q -347 703 -323 690 l -330 699 l -343 734 l -330 743 l -309 751 l -330 773 l -182 777 l -182 782 l -334 782 l -347 804 l -326 812 l -286 791 l -278 812 l -264 834 m 363 821 l 376 812 l 372 777 l 363 821 m -38 782 l 36 777 l 272 777 l 197 782 l -38 782 m 315 755 l 307 734 l 311 764 l 315 755 m -409 760 q -395 747 -401 756 q -409 760 -404 750 m -291 716 l -313 699 l -273 699 l -291 716 m 189 703 l 224 699 l 237 699 l 237 703 l 189 703 m -138 699 q -125 690 -130 697 q -138 699 -133 692 m -264 677 l 84 673 l 123 677 l 136 673 l 250 677 l 202 673 l 224 664 l 254 664 l 237 651 l -230 651 q -264 664 -249 652 l 41 664 l 45 673 l -264 677 m 115 673 q 123 664 116 667 q 115 673 122 669 z "},"­":{"ha":688,"x_min":-409,"x_max":376,"o":"m -300 1017 l -221 1017 l -203 1013 l -282 1013 l -300 1017 m -60 1017 l 241 1017 l 250 1013 l -51 1013 l -60 1017 m -286 878 l 14 878 l 23 873 l -278 873 l -286 878 m 167 878 l 219 878 l 254 873 l 202 873 l 167 878 m -264 834 l 267 834 q 276 825 273 833 l 276 747 q 237 708 267 720 q 197 690 221 693 l -33 690 l -12 699 q 32 703 13 699 l -256 699 q -203 690 -230 699 l -300 690 q -347 703 -323 690 l -330 699 l -343 734 l -330 743 l -309 751 l -330 773 l -182 777 l -182 782 l -334 782 l -347 804 l -326 812 l -286 791 l -278 812 l -264 834 m 363 821 l 376 812 l 372 777 l 363 821 m -38 782 l 36 777 l 272 777 l 197 782 l -38 782 m 315 755 l 307 734 l 311 764 l 315 755 m -409 760 q -395 747 -401 756 q -409 760 -404 750 m -291 716 l -313 699 l -273 699 l -291 716 m 189 703 l 224 699 l 237 699 l 237 703 l 189 703 m -138 699 q -125 690 -130 697 q -138 699 -133 692 m -264 677 l 84 673 l 123 677 l 136 673 l 250 677 l 202 673 l 224 664 l 254 664 l 237 651 l -230 651 q -264 664 -249 652 l 41 664 l 45 673 l -264 677 m 115 673 q 123 664 116 667 q 115 673 122 669 z "},".":{"ha":338,"x_min":0,"x_max":280,"o":"m 57 404 l 212 404 l 227 400 l 72 400 l 57 404 m 0 283 l 31 283 l 7 279 l 0 283 m 155 283 l 239 283 l 250 279 l 167 279 l 155 283 m 136 264 l 193 264 l 235 250 q 250 208 245 231 l 250 151 l 231 125 l 246 113 q 231 83 242 98 l 182 79 l 216 75 l 231 75 q 212 57 224 65 l 178 38 l 212 15 q 167 4 192 8 q 151 19 157 9 l 98 22 l 41 15 l 34 19 l 41 34 q 12 60 25 44 q 41 75 24 71 l 12 83 q 0 121 2 101 q 12 159 3 138 l 50 174 l 31 197 l 45 197 l 41 200 l 19 193 l 7 208 q 50 227 24 220 l 76 223 q 38 238 57 228 l 57 253 l 68 241 l 136 264 m 276 227 l 280 174 l 280 121 l 276 227 m 140 200 l 193 197 l 246 197 l 193 200 l 140 200 m 22 31 q 31 7 28 20 l 15 12 l 22 31 m 87 15 q 98 0 95 9 q 87 15 90 5 z "},"/":{"ha":420,"x_min":0,"x_max":186,"o":"m 62 1260 l 167 1260 l 181 1254 l 76 1254 l 62 1260 m 119 1231 q 176 1219 148 1230 l 181 1056 l 186 1033 l 186 1015 l 181 968 l 186 951 l 181 735 l 186 665 l 181 601 q 186 508 186 561 l 181 490 l 186 210 l 181 193 l 186 146 l 181 129 l 181 -52 l 186 -75 l 176 -75 l 138 -98 l 167 -134 q 85 -174 134 -164 l 129 -186 l 85 -215 l 81 -52 l 62 -52 q 38 -5 39 -39 q 148 6 90 6 l 176 12 l 90 12 q 38 24 66 12 q 81 41 60 24 l 38 41 l 38 117 l 81 117 l 81 309 l 38 327 l 38 397 q 76 414 59 397 l 38 414 l 38 490 l 62 490 l 81 496 l 81 688 l 38 706 q 71 788 42 749 q 38 823 45 790 q 66 863 39 855 q 81 991 80 923 l 81 1067 q 52 1079 65 1068 l 38 1161 l 62 1173 l 47 1143 l 71 1143 q 81 1166 79 1156 q 119 1231 82 1208 m 0 1103 q 9 1085 7 1097 q 0 1103 3 1090 m 0 1009 l 9 910 l 9 805 l 0 1009 m 0 730 q 9 712 7 724 q 0 730 3 718 m 0 636 l 9 537 l 9 432 l 0 636 m 0 356 q 9 338 7 351 q 0 356 3 345 m 0 263 l 9 163 l 9 59 l 0 263 m 0 -17 q 9 -34 7 -22 q 0 -17 3 -28 m 62 -262 l 100 -262 l 71 -279 l 62 -262 z "},":":{"ha":323,"x_min":75,"x_max":299,"o":"m 139 774 l 250 774 l 261 771 l 150 771 l 139 774 m 98 687 l 120 687 l 104 684 l 98 687 m 210 687 l 269 687 l 277 684 l 218 684 l 210 687 m 196 673 l 237 673 l 267 663 q 277 633 273 649 l 277 592 l 264 573 l 275 565 q 264 543 272 553 l 229 541 l 253 538 l 264 538 q 250 524 259 530 l 226 511 l 250 494 q 218 486 236 490 q 207 497 210 490 l 169 500 l 128 494 l 123 497 l 128 508 q 106 527 116 515 q 128 538 116 534 l 106 543 q 98 570 100 555 q 106 597 100 583 l 134 608 l 120 625 l 131 625 l 128 627 l 112 622 l 104 633 q 134 646 115 642 l 153 644 q 125 654 139 647 l 139 665 l 147 657 l 196 673 m 296 646 l 299 608 l 299 570 l 296 646 m 199 627 l 237 625 l 275 625 l 237 627 l 199 627 m 115 505 q 120 489 119 498 l 109 492 l 115 505 m 161 494 q 169 484 166 490 q 161 494 163 488 m 235 85 l 123 85 l 113 87 l 224 87 l 235 85 m 275 172 l 254 172 l 270 174 l 275 172 m 164 172 l 104 172 l 96 174 l 156 174 l 164 172 m 178 185 l 137 185 l 107 196 q 96 226 100 210 l 96 267 l 110 286 l 99 294 q 110 315 102 305 l 145 318 l 121 321 l 110 321 q 123 334 115 328 l 148 348 l 123 364 q 156 372 138 369 q 167 361 163 369 l 205 359 l 245 364 l 251 361 l 245 351 q 267 332 257 344 q 245 321 258 325 l 267 315 q 275 288 274 303 q 267 261 273 276 l 240 250 l 254 234 l 243 234 l 245 231 l 262 237 l 270 226 q 240 212 258 217 l 221 215 q 248 204 234 212 l 235 193 l 227 201 l 178 185 m 77 212 l 75 250 l 75 288 l 77 212 m 175 231 l 137 234 l 99 234 l 137 231 l 175 231 m 259 353 q 254 370 255 361 l 264 367 l 259 353 m 213 364 q 205 375 208 368 q 213 364 211 371 z "},";":{"ha":362,"x_min":98,"x_max":299,"o":"m 146 388 l 199 384 q 181 366 186 380 l 203 379 l 212 366 q 251 375 230 374 q 238 336 249 355 l 256 296 l 251 125 l 256 90 l 251 77 l 256 -94 q 234 -133 252 -114 q 220 -155 222 -140 q 234 -185 233 -167 q 212 -194 222 -186 l 168 -203 q 119 -190 145 -202 l 119 -76 l 124 -63 q 119 -28 121 -47 l 119 265 q 133 309 121 287 l 181 322 l 194 336 l 172 340 l 137 357 q 146 388 138 373 m 243 388 q 251 379 248 387 l 243 388 m 106 336 l 133 336 q 111 322 124 326 l 106 336 m 106 265 l 115 191 l 115 112 l 106 265 m 106 55 q 115 42 113 51 q 106 55 109 46 m 106 -14 l 115 -89 l 115 -168 l 106 -14 m 119 -208 l 212 -208 l 203 -224 l 155 -238 q 119 -208 134 -229 m 106 -224 l 115 -224 l 111 -233 l 106 -224 m 146 -264 l 181 -269 l 163 -281 l 128 -277 l 146 -264 m 139 774 l 250 774 l 261 771 l 150 771 l 139 774 m 98 687 l 120 687 l 104 684 l 98 687 m 210 687 l 269 687 l 277 684 l 218 684 l 210 687 m 196 673 l 237 673 l 267 663 q 277 633 273 649 l 277 592 l 264 573 l 275 565 q 264 543 272 553 l 229 541 l 253 538 l 264 538 q 250 524 259 530 l 226 511 l 250 494 q 218 486 236 490 q 207 497 210 490 l 169 500 l 128 494 l 123 497 l 128 508 q 106 527 116 515 q 128 538 116 534 l 106 543 q 98 570 100 555 q 106 597 100 583 l 134 608 l 120 625 l 131 625 l 128 627 l 112 622 l 104 633 q 134 646 115 642 l 153 644 q 125 654 139 647 l 139 665 l 147 657 l 196 673 m 296 646 l 299 608 l 299 570 l 296 646 m 199 627 l 237 625 l 275 625 l 237 627 l 199 627 m 115 505 q 120 489 119 498 l 109 492 l 115 505 m 161 494 q 169 484 166 490 q 161 494 163 488 z "},";":{"ha":362,"x_min":98,"x_max":299,"o":"m 146 388 l 199 384 q 181 366 186 380 l 203 379 l 212 366 q 251 375 230 374 q 238 336 249 355 l 256 296 l 251 125 l 256 90 l 251 77 l 256 -94 q 234 -133 252 -114 q 220 -155 222 -140 q 234 -185 233 -167 q 212 -194 222 -186 l 168 -203 q 119 -190 145 -202 l 119 -76 l 124 -63 q 119 -28 121 -47 l 119 265 q 133 309 121 287 l 181 322 l 194 336 l 172 340 l 137 357 q 146 388 138 373 m 243 388 q 251 379 248 387 l 243 388 m 106 336 l 133 336 q 111 322 124 326 l 106 336 m 106 265 l 115 191 l 115 112 l 106 265 m 106 55 q 115 42 113 51 q 106 55 109 46 m 106 -14 l 115 -89 l 115 -168 l 106 -14 m 119 -208 l 212 -208 l 203 -224 l 155 -238 q 119 -208 134 -229 m 106 -224 l 115 -224 l 111 -233 l 106 -224 m 146 -264 l 181 -269 l 163 -281 l 128 -277 l 146 -264 m 139 774 l 250 774 l 261 771 l 150 771 l 139 774 m 98 687 l 120 687 l 104 684 l 98 687 m 210 687 l 269 687 l 277 684 l 218 684 l 210 687 m 196 673 l 237 673 l 267 663 q 277 633 273 649 l 277 592 l 264 573 l 275 565 q 264 543 272 553 l 229 541 l 253 538 l 264 538 q 250 524 259 530 l 226 511 l 250 494 q 218 486 236 490 q 207 497 210 490 l 169 500 l 128 494 l 123 497 l 128 508 q 106 527 116 515 q 128 538 116 534 l 106 543 q 98 570 100 555 q 106 597 100 583 l 134 608 l 120 625 l 131 625 l 128 627 l 112 622 l 104 633 q 134 646 115 642 l 153 644 q 125 654 139 647 l 139 665 l 147 657 l 196 673 m 296 646 l 299 608 l 299 570 l 296 646 m 199 627 l 237 625 l 275 625 l 237 627 l 199 627 m 115 505 q 120 489 119 498 l 109 492 l 115 505 m 161 494 q 169 484 166 490 q 161 494 163 488 z "},"<":{"ha":610,"x_min":-327,"x_max":412,"o":"m 145 1138 l 310 1138 l 320 1133 l 155 1133 l 145 1138 m 300 1065 l 320 1026 q 345 1055 326 1050 l 393 1046 q 412 1065 400 1057 l 408 1060 l 412 1046 l 408 983 l 397 977 l 408 943 l 388 934 l 378 914 l 339 914 l 345 924 q 383 958 364 937 l 310 954 q 291 929 292 946 l 325 909 q 305 900 318 903 q 262 885 281 899 l 228 876 l 159 876 l 159 871 l 233 871 q 271 856 252 870 l 222 831 q 237 807 225 817 q 203 778 224 791 l 155 773 l 164 788 l 140 802 q 81 788 111 798 q 111 764 94 774 l 87 730 l 18 720 l -39 720 l -30 715 l 47 715 q 72 701 61 711 l 47 695 l 9 666 l 33 637 l -25 618 l -54 618 l -25 637 q -83 647 -52 644 q -132 623 -109 639 q -88 593 -110 612 l -74 569 l -93 564 q -127 549 -112 561 l -98 540 l -117 520 l -35 491 l 9 457 l 4 433 q 52 423 26 423 l 28 443 l 67 443 l 125 423 q 81 404 106 410 q 33 379 58 395 q 87 360 57 368 l 101 350 l 130 360 l 106 385 l 135 379 q 184 360 157 366 l 228 355 l 145 355 l 155 340 l 198 311 q 208 282 208 300 l 262 287 l 325 273 q 286 248 309 256 l 159 253 l 169 248 l 247 248 l 237 229 q 286 204 257 214 q 345 184 313 199 q 359 155 347 165 l 359 184 l 388 165 l 397 117 l 388 102 q 378 39 386 72 l 363 24 l 334 39 l 305 29 l 315 0 q 271 24 296 15 l 305 29 l 291 49 l 252 39 l 203 63 q 179 92 188 73 l 252 92 l 189 102 l 130 121 q 159 151 140 137 q 130 175 148 166 l 58 180 l 62 151 q 52 180 52 161 q 18 190 38 189 l 4 170 l -16 195 q -30 243 -19 216 l -1 248 l -83 282 l -35 311 l -74 336 l -146 340 l -176 355 l -171 336 l -176 331 l -186 389 l -200 374 l -229 389 l -239 365 q -263 385 -254 372 l -273 428 l -254 418 q -273 448 -268 429 l -254 457 q -268 486 -256 474 q -327 506 -296 490 q -278 535 -303 517 l -302 559 l -146 564 l -297 564 l -317 554 l -327 578 l -317 589 l -278 598 q -268 589 -277 593 l -273 618 q -239 656 -264 641 l -224 637 l -195 647 l -176 695 l -171 671 l -176 666 q -157 686 -165 672 l -113 661 q -93 720 -101 687 q -117 744 -112 724 l -64 753 l -74 744 q -39 753 -57 746 l -54 759 q -20 802 -34 777 q 4 851 -13 827 q 43 831 19 839 l 72 842 l 92 871 q 125 851 109 866 l 159 895 q 184 939 165 918 l 228 968 l 242 1031 l 262 1046 l 281 1021 q 300 1065 299 1038 m 325 1012 q 334 992 326 1001 l 339 1006 l 325 1012 m 247 992 l 237 977 l 252 977 l 252 992 l 247 992 m -64 983 l 101 983 l 111 977 l -54 977 l -64 983 m 349 972 q 359 963 351 966 q 349 972 358 969 m 47 900 q 62 876 58 890 q 47 900 52 885 m 72 885 l 81 861 l 67 856 l 72 885 m -268 827 l -103 827 l -93 822 l -258 822 l -268 827 m -88 701 l -93 681 l -79 681 l -74 695 l -88 701 m -195 676 q -205 666 -197 669 l -195 676 m -74 520 l -25 511 q -74 520 -47 511 m 135 515 l 213 515 l 222 511 l 145 511 l 135 515 m -317 462 q -327 472 -323 463 l -317 462 m -93 408 q -16 404 -58 404 l 67 404 q -10 408 33 408 l -93 408 m -127 365 l -146 340 l -117 340 q -108 360 -109 348 l -127 365 m -195 340 l -191 321 l -205 326 l -195 340 m 359 229 l 374 214 q 359 229 361 215 m 271 199 l 286 184 l 296 199 l 271 199 m 67 184 l 67 195 l 62 195 l 67 184 m 67 165 q 81 136 78 154 l 67 165 m 349 121 l 345 68 q 354 49 345 58 l 359 102 q 349 121 357 113 m 233 39 q 242 24 239 35 q 233 39 235 29 m 222 34 l 228 5 l 203 15 l 222 34 z "},"=":{"ha":688,"x_min":-415,"x_max":376,"o":"m -300 1017 l -221 1017 l -203 1013 l -282 1013 l -300 1017 m -60 1017 l 241 1017 l 250 1013 l -51 1013 l -60 1017 m -286 878 l 14 878 l 23 873 l -278 873 l -286 878 m 167 878 l 219 878 l 254 873 l 202 873 l 167 878 m -264 834 l 267 834 q 276 825 273 833 l 276 747 q 237 708 267 720 q 197 690 221 693 l -33 690 l -12 699 q 32 703 13 699 l -256 699 q -203 690 -230 699 l -300 690 q -347 703 -323 690 l -330 699 l -343 734 l -330 743 l -309 751 l -330 773 l -182 777 l -182 782 l -334 782 l -347 804 l -326 812 l -286 791 l -278 812 l -264 834 m 363 821 l 376 812 l 372 777 l 363 821 m -38 782 l 36 777 l 272 777 l 197 782 l -38 782 m 315 755 l 307 734 l 311 764 l 315 755 m -409 760 q -395 747 -401 756 q -409 760 -404 750 m -291 716 l -313 699 l -273 699 l -291 716 m 189 703 l 224 699 l 237 699 l 237 703 l 189 703 m -138 699 q -125 690 -130 697 q -138 699 -133 692 m -264 677 l 84 673 l 123 677 l 136 673 l 250 677 l 202 673 l 224 664 l 254 664 l 237 651 l -230 651 q -264 664 -249 652 l 41 664 l 45 673 l -264 677 m 115 673 q 123 664 116 667 q 115 673 122 669 m -306 652 l -227 652 l -210 648 l -288 648 l -306 652 m -66 652 l 235 652 l 243 648 l -57 648 l -66 652 m -292 513 l 8 513 l 17 509 l -284 509 l -292 513 m 161 513 l 213 513 l 248 509 l 196 509 l 161 513 m -271 469 l 261 469 q 270 460 266 468 l 270 382 q 231 342 260 355 q 191 326 215 328 l -39 326 l -18 334 q 26 338 7 334 l -262 334 q -210 326 -236 334 l -306 326 q -354 338 -329 326 l -336 334 l -349 369 l -336 378 l -315 387 l -336 408 l -188 412 l -188 417 l -340 417 l -354 439 l -332 448 l -292 425 l -284 448 l -271 469 m 357 456 l 370 448 l 366 412 l 357 456 m -44 417 l 30 412 l 265 412 l 191 417 l -44 417 m 309 391 l 300 369 l 304 399 l 309 391 m -415 395 q -401 382 -407 391 q -415 395 -411 385 m -297 351 l -319 334 l -279 334 l -297 351 m 182 338 l 218 334 l 231 334 l 231 338 l 182 338 m -144 334 q -131 326 -136 332 q -144 334 -139 327 m -271 312 l 78 308 l 117 312 l 130 308 l 243 312 l 196 308 l 218 299 l 248 299 l 231 286 l -236 286 q -271 299 -255 288 l 35 299 l 39 308 l -271 312 m 109 308 q 117 299 110 302 q 109 308 116 304 z "},">":{"ha":701,"x_min":-327,"x_max":412,"o":"m -68 1133 l -234 1133 l -224 1138 l -59 1138 l -68 1133 m -215 1065 q -195 1021 -213 1038 l -176 1046 l -157 1031 l -142 968 l -98 939 q -74 895 -80 918 l -39 851 q -5 871 -23 866 l 14 842 l 43 831 q 81 851 66 839 q 106 802 99 827 q 140 759 120 777 l 125 753 q 159 744 142 746 l 150 753 l 203 744 q 179 720 198 724 q 198 661 187 687 l 242 686 q 262 666 251 672 l 257 671 l 262 695 l 281 647 l 310 637 l 325 656 q 359 618 349 641 l 354 589 q 363 598 362 593 l 403 589 l 412 578 l 403 554 l 383 564 l 233 564 l 388 559 l 363 535 q 412 506 389 517 q 354 486 382 490 q 339 457 342 474 l 359 448 q 339 418 354 429 l 359 428 l 349 385 q 325 365 339 372 l 315 389 l 286 374 l 271 389 l 262 331 l 257 336 l 262 355 l 233 340 l 159 336 l 121 311 l 169 282 l 87 248 l 116 243 q 101 195 105 216 l 81 170 l 67 190 q 33 180 47 189 q 23 151 33 161 l 28 180 l -45 175 q -74 151 -62 166 q -45 121 -55 137 l -103 102 l -166 92 l -93 92 q -117 63 -102 73 l -166 39 l -205 49 l -220 29 l -186 24 q -229 0 -211 15 l -220 29 l -249 39 l -278 24 l -292 39 q -302 102 -300 72 l -312 117 l -302 165 l -273 184 l -273 155 q -258 184 -261 165 q -200 204 -228 199 q -151 229 -172 214 l -161 248 l -83 248 l -74 253 l -200 248 q -239 273 -224 256 l -176 287 l -122 282 q -113 311 -122 300 l -68 340 l -59 355 l -142 355 l -98 360 q -50 379 -71 366 l -20 385 l -45 360 l -16 350 l -1 360 q 52 379 28 368 q 4 404 27 395 q -39 423 -21 410 l 18 443 l 58 443 l 33 423 q 81 433 59 423 l 77 457 l 121 491 l 203 520 l 184 540 l 213 549 q 179 564 198 561 l 159 569 l 174 593 q 218 623 195 612 q 169 647 194 639 q 111 637 137 644 l 140 618 l 111 618 l 52 637 l 77 666 l 38 695 l 14 701 q 38 715 24 711 l 116 715 l 125 720 l 67 720 l -1 730 l -25 764 q 4 788 -7 774 q -54 802 -24 798 l -79 788 l -68 773 l -117 778 q -151 807 -139 791 q -137 831 -140 817 l -186 856 q -146 871 -166 870 l -74 871 l -74 876 l -142 876 l -176 885 q -220 900 -195 899 q -239 909 -232 903 l -205 929 q -224 954 -207 946 l -297 958 q -258 924 -279 937 l -254 914 l -292 914 l -302 934 l -321 943 l -312 977 l -321 983 l -327 1046 l -321 1060 l -327 1065 q -307 1046 -314 1057 l -258 1055 q -234 1026 -239 1050 l -215 1065 m -254 1006 l -249 992 q -239 1012 -239 1001 l -254 1006 m -166 992 l -166 977 l -151 977 l -161 992 l -166 992 m 140 977 l -25 977 l -16 983 l 150 983 l 140 977 m -263 972 q -273 963 -272 969 q -263 972 -264 966 m 38 900 q 23 876 34 885 q 38 900 27 890 m 18 856 l 4 861 l 14 885 l 18 856 m 345 822 l 179 822 l 189 827 l 354 827 l 345 822 m 159 695 l 164 681 l 179 681 l 174 701 l 159 695 m 291 666 q 281 676 283 669 l 291 666 m 159 520 q 111 511 133 511 l 159 520 m -59 511 l -137 511 l -127 515 l -50 515 l -59 511 m 412 472 q 403 462 408 463 l 412 472 m 96 408 q 18 404 53 408 l 101 404 q 179 408 144 404 l 96 408 m 193 360 q 203 340 194 348 l 233 340 l 213 365 l 193 360 m 291 326 l 276 321 l 281 340 l 291 326 m -273 229 q -288 214 -276 215 l -273 229 m -210 199 l -200 184 l -186 199 l -210 199 m 23 195 l 18 195 l 18 184 l 23 195 m 4 136 q 18 165 7 154 l 4 136 m -263 121 q -273 102 -271 113 l -268 49 q -258 68 -260 58 l -263 121 m -146 39 q -157 24 -150 29 q -146 39 -153 35 m -117 15 l -142 5 l -137 34 l -117 15 z "},"?":{"ha":772,"x_min":0,"x_max":749,"o":"m 159 1240 l 253 1240 l 273 1235 l 178 1235 l 159 1240 m 223 1180 l 689 1180 q 744 1165 715 1179 l 476 1165 l 441 1160 l 724 1160 q 749 1116 747 1146 l 744 1071 l 749 1056 l 749 937 l 744 907 l 749 897 l 749 813 l 704 808 l 749 808 l 749 783 l 744 749 l 749 739 l 749 724 l 744 709 q 749 669 747 692 q 699 654 726 659 q 744 630 724 648 l 724 595 l 739 570 l 724 555 l 669 545 l 541 551 q 491 536 515 550 l 680 530 l 491 526 l 491 506 l 665 506 l 654 501 l 466 496 l 476 491 l 694 491 l 684 471 l 689 481 l 491 476 q 476 422 490 450 l 456 401 l 466 387 l 481 377 l 466 347 q 446 337 450 345 l 456 317 l 436 313 l 397 292 q 427 283 414 290 l 302 283 l 313 288 l 352 288 l 342 302 l 337 337 l 347 347 l 337 397 l 347 456 l 347 590 l 387 615 q 401 630 397 619 l 377 640 l 342 665 q 387 689 361 681 l 412 689 l 387 669 l 427 665 l 436 669 l 476 684 l 506 689 l 431 694 l 491 699 l 506 749 l 500 813 l 506 873 l 506 1046 q 496 1056 505 1053 l 277 1056 l 277 972 l 184 972 l 277 967 l 277 897 l 253 892 l 238 873 l 253 863 l 268 843 l 248 828 l 193 813 l 129 818 l 119 873 l 119 897 l 114 903 l 114 873 l 119 833 l 109 818 l 50 813 l 60 828 l 50 863 l 60 918 l 60 1051 q 50 1081 58 1064 l 64 1091 l 50 1131 l 50 1165 l 75 1160 l 90 1145 q 99 1156 91 1151 q 114 1101 110 1129 l 119 1036 l 124 1076 l 129 947 q 139 907 130 926 l 139 1042 q 163 1086 143 1065 l 184 1101 l 134 1135 q 163 1165 142 1154 l 208 1156 l 273 1160 l 198 1165 l 223 1180 m 178 1156 l 174 1141 l 184 1141 l 178 1156 m 0 1106 l 45 1106 q 10 1091 31 1095 q 0 1106 3 1095 m 119 1106 q 129 1091 127 1102 q 119 1106 122 1095 m 109 1076 l 109 907 l 114 1066 l 109 1076 m 541 1027 l 541 957 l 545 903 l 545 972 l 541 1027 m 580 1027 l 575 853 l 575 903 l 575 714 q 605 699 587 703 l 595 843 l 605 947 l 605 1027 l 580 1027 m 0 1027 l 45 1027 l 45 853 l 0 853 l 0 1027 m 416 922 l 486 922 l 500 918 l 431 918 l 416 922 m 129 838 q 139 823 131 828 q 129 838 137 833 m 50 808 l 114 804 l 144 808 l 213 808 q 228 793 227 804 l 163 768 l 124 774 l 69 759 q 50 808 55 781 m 0 789 l 45 789 q 10 774 31 778 q 0 789 3 779 m 50 753 l 109 739 l 99 724 l 54 714 q 50 753 51 731 m 139 744 l 208 739 l 198 724 l 149 719 l 134 724 l 139 744 m 491 654 l 526 650 l 536 654 l 491 654 m 277 625 l 292 615 q 277 625 283 616 m 491 581 q 590 566 534 566 l 680 566 q 694 575 688 567 l 491 581 m 268 551 l 298 551 l 298 377 l 268 377 l 268 551 m 273 313 q 292 302 283 311 q 273 313 281 303 m 357 273 l 397 273 l 431 253 l 412 248 l 357 243 l 342 253 l 357 273 m 441 223 q 476 213 457 222 l 441 213 q 486 189 464 205 l 491 203 l 486 213 l 515 203 l 545 203 q 530 178 543 189 l 456 178 l 486 174 l 481 144 l 491 124 q 541 109 517 122 q 506 90 518 105 l 545 90 l 521 79 l 471 75 l 481 84 q 441 99 464 97 l 382 84 l 421 69 q 451 50 436 62 l 431 39 l 372 25 l 302 30 q 313 75 303 52 l 328 84 l 307 99 q 273 60 299 75 l 258 99 q 268 114 260 108 l 238 119 l 169 119 l 174 124 l 277 124 l 283 144 q 268 159 272 150 l 277 178 l 298 169 q 307 149 299 157 q 332 163 322 151 l 347 144 q 357 174 349 158 l 352 213 l 362 189 l 382 203 l 416 174 l 441 223 m 337 213 l 342 169 l 328 178 q 337 213 329 194 m 119 203 l 253 203 l 248 178 l 119 178 l 114 198 l 119 203 m 357 163 l 352 134 l 367 154 q 357 163 366 159 m 491 119 l 526 114 l 536 114 l 536 119 l 491 119 m 119 114 l 189 114 q 253 104 218 114 l 184 104 q 119 114 155 105 m 119 90 l 193 90 q 248 79 220 89 l 129 79 q 119 90 122 79 m 332 5 l 382 5 q 342 0 365 1 l 332 5 z "},"@":{"ha":1044,"x_min":-486,"x_max":583,"o":"m -431 1114 l -368 1114 l -306 1109 l -368 1109 l -431 1114 m 365 1114 l 415 1114 l 448 1109 l 398 1109 l 365 1114 m -343 1067 l -314 1059 l 17 1063 l 50 1059 l 104 1063 l 117 1059 l 432 1063 l 444 1055 l 176 1050 l 168 1046 l 402 1046 l 448 1042 l 452 1017 l 448 1008 l 448 996 l 452 954 l 448 908 l 452 820 l 448 766 l 452 753 l 448 631 q 440 618 447 623 q 448 560 448 591 l 452 485 l 331 485 l 277 476 q 243 485 259 477 l 180 485 l 168 480 l 239 480 q 252 443 239 461 l 323 443 l 323 476 l 452 480 l 444 422 l 432 422 l 386 414 q 402 388 390 398 q 356 351 385 362 l 298 347 l 285 351 l -176 347 l -189 351 l -193 347 l -205 347 l -189 355 l -210 368 l -193 409 l -210 418 l -210 480 l -83 480 l -83 443 l 29 443 q 42 485 32 461 q 54 535 44 509 l -62 535 q -71 522 -68 532 l -83 514 l 0 514 q 8 476 6 497 l -54 476 q -151 485 -95 484 l -210 485 l -210 531 q -201 610 -201 567 l -205 665 l -172 665 l -155 682 q -172 690 -164 682 l -138 686 l 58 690 q 25 724 47 709 l 25 694 l 12 728 l -180 728 l -193 732 l -197 753 l -184 783 l -205 795 q -193 849 -202 821 q -168 833 -178 844 l -142 849 l -130 837 q -109 858 -118 845 l -66 849 q 17 841 -31 842 l 222 841 l 264 829 q 285 841 272 838 l 281 824 l 239 820 q 256 783 242 800 l 239 774 l 239 618 l 243 618 l 239 614 l 239 510 l 294 514 q 323 489 311 506 l 323 614 l 319 598 l 319 518 q 306 535 310 524 l 306 640 q 323 631 315 633 l 323 946 q 264 929 295 935 q 248 958 253 941 l -16 958 q -96 933 -55 941 q -113 958 -107 943 q -151 933 -127 944 q -230 958 -186 947 l -302 958 l -302 870 l -289 862 l -302 854 q -289 783 -302 820 l -289 682 q -302 652 -291 665 l -302 610 q -293 598 -300 602 q -302 531 -300 569 q -289 522 -294 529 l -289 418 q -302 330 -298 378 l -302 271 q -289 262 -298 264 q -214 237 -260 238 l 79 241 l 92 237 l 159 241 l 172 237 l 461 237 l 473 212 l 490 203 l 528 212 l 528 178 l 545 166 q 566 212 553 187 q 583 195 574 207 l 574 157 l 549 153 l 536 166 q 469 153 507 154 l 386 153 l 386 111 l 323 111 l 323 132 l 285 111 l 248 111 l 248 153 l -50 153 l -50 116 l -113 111 l -113 153 q -172 111 -128 113 q -235 153 -191 150 l -423 153 q -431 166 -429 157 l -431 212 l -406 216 l -431 216 l -431 946 q -410 1017 -414 977 l -423 1046 l -398 1063 l -348 1050 l -343 1067 m -473 1059 q -460 1050 -466 1057 q -473 1059 -469 1051 m -268 1050 l -197 1046 l 29 1046 l -41 1050 l -268 1050 m -481 1042 q -460 1004 -461 1030 l -460 224 q -469 216 -462 220 q -486 258 -481 235 l -486 950 l -481 996 l -486 1025 l -481 1042 m -402 1021 l -402 1029 l -406 1029 l -402 1021 m -268 1021 l -218 1017 l -163 1017 l -214 1021 l -268 1021 m 285 1021 l 314 1017 l 323 1021 l 285 1021 m 352 933 l 352 829 l 373 829 l 373 933 l 352 933 m 306 929 q 319 862 318 900 l 319 787 q 306 854 306 816 l 306 929 m -322 908 q -314 896 -321 900 q -322 908 -315 904 m -71 908 l 227 908 l 227 887 l -71 887 l -71 908 m -322 841 l -322 703 q -314 694 -321 697 l -314 833 q -322 841 -315 838 m 352 774 q 373 762 359 764 q 352 774 366 771 m -83 753 l -29 749 l 29 749 l -25 753 l -83 753 m 63 728 q 79 694 64 709 q 63 728 79 713 m 88 728 l 84 690 l 109 690 l 109 728 l 92 694 l 88 728 m 130 728 l 130 694 l 159 694 l 159 728 l 130 728 m 306 732 q 319 720 315 729 q 306 732 310 722 m -210 711 l -142 711 l -79 707 l -146 707 l -210 711 m 352 707 l 352 560 l 373 560 l 373 707 l 352 707 m -322 640 q -314 627 -321 631 q -322 640 -315 635 m -322 572 l -322 434 q -314 426 -321 429 l -314 564 q -322 572 -315 570 m -54 564 l 17 560 l 33 560 l -37 564 l -54 564 m 63 564 l 63 510 q 79 476 64 492 l 79 531 q 63 564 78 549 m 130 564 l 130 501 q 159 476 134 479 l 159 539 q 130 564 156 562 m 88 535 l 88 476 l 92 476 l 92 501 l 96 476 l 92 447 l 104 443 l 104 476 l 109 535 l 88 535 m 12 531 q 25 476 22 506 q 12 531 16 501 m -104 506 q -96 493 -103 497 q -104 506 -98 501 m 352 506 q 373 493 359 496 q 352 506 366 503 m 440 414 l 444 397 l 432 397 l 440 414 m -322 372 q -314 359 -321 363 q -322 372 -315 368 m -50 355 l 21 351 l 248 351 l 176 355 l -50 355 m -71 338 l 218 338 l 227 334 l -62 334 l -71 338 m -322 304 q -314 241 -322 274 l -314 288 q -322 304 -315 296 m 507 245 q 519 216 516 234 q 507 245 511 228 m -268 216 l -197 212 l 29 212 l -41 216 l -268 216 m 168 216 l 239 212 l 465 212 l 394 216 l 168 216 m -486 212 l -460 212 l -465 153 l -481 149 l -486 153 l -486 212 m 465 187 l 465 195 l 461 195 l 465 187 m 490 187 l 477 157 l 498 157 q 490 187 497 173 m 507 149 q 519 128 517 141 q 507 149 510 136 m 440 141 q 432 128 439 132 l 440 141 m -481 116 l -465 107 l -486 103 l -481 116 z "},"A":{"ha":1027,"x_min":-62,"x_max":1217,"o":"m 684 1255 l 774 1250 l 744 1244 l 709 1250 l 694 1244 l 480 1244 l 510 1250 l 684 1250 l 684 1255 m 152 1250 l 222 1250 l 286 1244 l 216 1244 l 152 1250 m 729 1240 l 739 1190 l 734 1170 l 1038 1175 l 1048 1135 l 1028 1120 l 789 1115 q 739 1100 762 1115 l 983 1100 q 1043 1085 1013 1099 l 1048 1021 l 1043 1001 l 1048 951 l 1043 921 l 1048 911 l 1048 876 q 1058 812 1057 847 l 1048 772 l 1073 772 l 1098 802 l 1098 772 q 1143 747 1118 757 l 1147 802 q 1162 787 1158 798 l 1153 742 l 1153 722 q 1113 747 1136 737 q 1048 732 1080 747 l 1063 722 q 1043 682 1052 706 l 1048 627 l 1043 608 l 1048 453 l 1043 438 l 1048 393 l 1043 359 l 1048 349 l 1043 338 l 1048 334 l 1043 279 l 1048 264 l 1048 199 l 1043 184 l 958 184 q 903 194 930 184 l 894 264 l 903 334 l 894 488 q 903 517 896 501 l 799 523 l 754 517 l 739 523 l 734 344 l 684 344 q 669 404 673 370 l 665 478 q 654 517 665 498 l 654 408 l 645 438 l 645 517 l 570 523 l 515 517 l 475 523 l 465 517 l 306 523 l 306 363 l 301 344 l 306 184 l 252 184 l 216 179 l 306 179 l 306 149 q 267 104 300 119 q 237 79 247 98 q 261 50 255 71 q 197 30 233 37 l 152 35 l 152 70 l 161 85 l 152 130 l 152 453 q 137 517 151 486 l 137 433 q 127 383 136 410 l 127 517 l 33 523 l 17 517 l -52 528 q -62 548 -61 536 l 37 553 q 52 563 47 554 q -12 578 22 573 l -62 583 q -42 593 -55 589 l 12 617 l 152 617 l 152 637 l 82 647 q 7 657 47 648 l 152 657 l 142 662 l 62 662 q -7 652 30 662 q -42 682 -28 661 l 27 697 l 152 697 l 152 732 q 87 747 122 743 q 47 737 64 745 q 33 747 38 739 l 33 797 l 57 802 l 122 797 l 122 802 q 142 772 126 786 l 142 797 l 152 871 l 152 1031 q 182 1070 152 1062 l 222 1095 l 540 1100 q 570 1115 556 1101 l 296 1115 l 227 1125 q 191 1155 205 1133 q 256 1175 218 1174 l 500 1175 q 560 1155 530 1169 q 620 1175 589 1159 l 645 1160 l 650 1195 q 665 1160 653 1178 l 665 1190 l 680 1225 l 690 1200 l 690 1160 l 724 1160 l 724 1165 l 729 1240 m 306 1140 l 371 1135 l 570 1135 l 505 1140 l 306 1140 m 734 1140 q 814 1135 770 1135 l 894 1135 q 814 1140 859 1140 l 734 1140 m 645 1115 q 660 1105 649 1106 q 645 1115 656 1112 m 306 1061 l 306 1025 l 311 1050 l 311 1061 l 306 1061 m 386 1061 l 386 1025 q 401 1050 397 1034 q 386 1061 397 1058 m 475 1061 l 475 1025 l 669 1025 l 669 1061 l 475 1061 m 734 1061 q 764 1025 735 1031 l 829 1025 q 799 1061 829 1055 l 734 1061 m 167 1006 q 197 991 180 995 q 206 1006 203 995 l 167 1006 m 306 1006 l 306 851 l 545 851 q 535 806 544 829 l 316 806 l 306 772 l 570 772 l 570 791 l 605 806 q 645 802 622 803 l 645 782 q 665 846 658 812 l 665 911 l 669 926 l 665 946 l 669 991 l 665 1006 l 306 1006 m 690 1006 q 724 991 704 996 q 690 1006 710 1001 m 734 1006 l 739 956 l 734 831 q 764 851 746 844 l 888 851 l 903 961 l 903 1006 l 884 1006 q 844 986 862 1004 l 839 861 q 824 911 828 884 l 824 1006 l 734 1006 m 127 956 q 137 941 134 951 q 127 956 130 945 m 645 956 q 654 941 652 951 q 645 956 648 945 m 167 926 l 167 842 q 206 802 170 808 l 206 926 l 167 926 m 690 926 l 690 802 l 724 802 l 724 926 l 690 926 m 102 851 q 117 821 113 838 q 102 812 112 814 l 102 851 m 620 851 q 635 817 631 838 l 620 806 l 620 851 m 894 846 q 903 831 896 837 q 894 846 902 842 m 1138 851 q 1153 821 1149 838 q 1138 812 1148 814 l 1138 851 m 734 817 l 734 772 l 894 772 l 894 806 l 749 806 l 734 817 m 1183 802 l 1213 802 l 1217 777 l 1207 757 q 1183 802 1191 776 m -62 772 l 17 772 l 27 767 l -52 767 l -62 772 m 306 747 q 386 732 341 732 l 545 732 q 530 717 541 722 l 306 717 l 306 672 l 311 672 q 376 692 346 676 l 376 672 l 446 672 l 450 697 l 605 697 q 665 687 635 696 l 669 702 l 665 737 l 669 747 l 475 747 l 460 737 l 386 742 q 346 737 369 738 q 306 747 326 739 m 734 747 l 744 732 l 839 732 l 829 747 l 734 747 m 888 737 q 844 712 869 723 l 844 672 l 879 672 l 879 697 l 903 677 q 888 737 903 707 m 102 732 q 117 717 112 728 q 102 732 106 721 m 127 732 q 137 702 135 719 q 127 732 129 715 m 620 732 q 635 717 630 728 q 620 732 625 721 m 645 732 q 654 702 652 719 q 645 732 647 715 m 739 717 l 734 682 l 739 672 l 739 697 l 804 697 l 804 677 q 819 717 817 694 l 739 717 m 167 687 q 197 672 180 676 q 206 687 203 676 l 167 687 m 690 687 q 714 672 699 675 q 724 687 722 676 l 690 687 m 475 662 l 520 657 l 669 657 l 625 662 l 475 662 m 734 662 l 779 657 l 829 657 l 784 662 l 734 662 m 306 647 l 311 617 l 311 642 l 306 647 m 391 647 l 386 617 l 401 617 q 391 647 400 631 m 475 647 l 475 617 l 650 617 l 669 623 l 665 647 l 475 647 m 739 647 l 734 623 l 764 617 l 829 617 q 799 647 829 642 l 739 647 m -47 623 q -57 612 -49 616 l -47 623 m 127 578 q 142 553 129 562 q 127 578 140 568 m 306 578 l 306 553 l 570 553 l 570 578 l 306 578 m 645 578 q 660 553 647 562 q 645 578 658 568 m 734 578 l 734 553 l 894 553 l 894 578 l 734 578 m 167 517 l 167 453 q 206 433 184 439 l 206 498 q 167 517 190 512 m 690 517 l 690 433 l 724 433 l 724 517 l 690 517 m 824 478 q 844 463 836 476 q 824 478 832 465 m 824 398 q 844 319 843 363 l 844 224 q 824 304 825 259 l 824 398 m 167 368 q 197 353 180 358 q 206 368 203 358 l 167 368 m 690 368 q 714 353 699 357 q 724 368 722 358 l 690 368 m 669 338 l 734 334 l 734 274 q 699 239 731 245 l 724 269 q 690 283 709 281 q 680 259 688 267 l 665 279 l 669 338 m 127 319 q 137 304 134 314 q 127 319 130 309 m 645 319 q 654 304 652 314 q 645 319 648 309 m 167 289 l 167 115 l 206 115 l 206 289 l 167 289 m 127 239 l 137 155 l 137 64 l 127 239 m 894 179 l 1048 179 l 1048 144 q 998 104 1038 111 l 1008 50 l 954 20 q 909 10 933 19 q 918 20 910 16 q 903 94 908 56 l 894 179 m 824 159 q 844 144 836 157 q 824 159 832 146 m 301 104 l 306 85 l 291 79 l 301 104 m 1043 104 l 1048 85 l 1033 79 l 1043 104 m 824 79 q 844 25 843 60 q 824 79 825 44 m 167 50 q 197 35 180 39 q 206 50 203 39 l 167 50 m 167 20 q 222 5 191 20 l 176 0 l 161 5 l 172 15 l 167 20 z "},"B":{"ha":846,"x_min":0,"x_max":994,"o":"m 345 1239 l 349 1173 l 726 1168 q 744 1117 739 1147 q 726 1084 738 1099 l 744 1084 l 741 915 l 741 985 q 730 1037 741 1010 q 704 1004 707 1035 l 701 872 l 704 872 q 741 863 721 872 l 730 844 q 696 867 719 865 q 686 835 686 854 l 701 821 l 686 797 l 638 787 l 663 783 l 678 783 q 660 750 671 766 l 865 745 l 861 741 l 649 736 q 689 722 668 726 l 960 717 l 986 722 l 990 694 l 986 665 l 990 656 l 990 355 l 986 332 l 990 317 l 990 157 q 994 120 993 141 l 931 101 l 957 77 q 946 45 954 60 l 840 40 q 818 31 829 40 l 895 31 l 891 26 l 238 26 l 242 21 l 293 21 l 245 16 q 213 -12 223 16 q 205 -50 212 -35 l 205 -16 l 198 -35 l 195 -16 q 172 16 191 7 l 191 21 q 165 31 176 24 l 275 31 q 312 40 294 31 l 209 35 l 157 40 l 125 73 q 110 125 111 92 l 110 237 l 132 237 l 139 298 l 110 298 q 125 313 115 309 q 139 359 135 334 q 110 393 125 372 l 110 529 l 139 543 l 37 543 l 37 571 q 47 585 44 574 l 33 595 q 3 585 20 586 l 0 637 q 18 656 5 653 q 37 632 26 641 l 52 680 q 81 717 55 709 q 110 745 101 720 l 110 816 q 139 848 119 836 l 139 886 l 62 886 l 37 891 l 117 891 q 139 901 128 891 l 117 901 l 139 928 l 139 976 l 125 976 q 110 1027 111 995 l 110 1098 q 132 1140 116 1122 q 161 1126 142 1127 l 165 1140 q 176 1126 170 1130 q 201 1168 183 1149 l 231 1149 q 268 1173 245 1166 l 304 1173 q 315 1183 312 1175 l 319 1230 l 319 1173 l 345 1173 l 345 1239 m 209 1197 l 290 1197 l 231 1187 l 151 1187 l 209 1197 m 418 1197 l 667 1197 l 678 1187 l 425 1192 l 418 1197 m 774 1164 q 788 1126 784 1149 l 770 1126 l 774 1164 m 704 1112 q 741 1098 721 1102 q 704 1112 724 1108 m 345 1088 l 399 1084 l 506 1084 l 451 1088 l 345 1088 m 770 1065 q 788 1051 781 1063 q 770 1065 778 1053 m 495 1032 q 458 994 487 999 l 352 994 l 349 1027 q 319 1013 333 1027 l 319 933 q 330 872 319 903 q 345 811 344 847 q 319 797 330 810 l 337 797 l 345 736 l 334 736 l 349 722 l 469 722 q 506 750 492 722 q 535 722 518 736 q 561 741 549 728 l 576 783 l 587 802 l 597 764 q 620 778 610 767 l 631 886 l 425 886 l 627 891 l 634 952 l 631 981 q 608 1027 617 999 l 568 1032 l 557 1027 q 543 994 553 1010 l 543 1023 l 495 1032 m 297 1027 q 271 994 293 1003 l 253 994 l 253 905 q 286 891 268 895 l 250 886 l 253 835 l 250 806 l 253 797 l 253 745 l 271 745 l 268 741 q 250 731 258 739 l 260 722 q 297 736 279 722 l 297 933 l 293 933 q 297 971 296 949 l 297 1027 m 349 989 l 352 947 l 352 840 l 349 989 m 770 989 q 788 947 788 976 q 781 891 787 918 l 770 924 l 770 989 m 799 891 l 942 891 l 986 886 l 843 886 l 799 891 m 561 811 l 568 774 l 561 760 l 557 774 q 561 811 560 789 m 349 745 l 477 745 l 484 741 l 355 741 l 349 745 m 935 736 q 928 745 930 736 l 935 736 m 960 661 q 968 646 962 652 q 960 661 966 656 m 55 637 l 88 632 l 139 632 l 106 637 l 55 637 m 436 637 l 498 632 l 696 632 l 634 637 l 436 637 m 818 637 q 876 632 844 633 q 818 637 850 637 m 960 585 l 960 430 q 968 420 962 424 l 968 576 q 960 585 967 583 m 374 581 l 345 519 q 418 510 377 511 l 876 510 l 873 534 l 876 538 l 799 548 l 799 576 l 744 576 q 733 543 743 557 l 733 576 l 678 581 q 671 543 677 562 l 425 543 q 374 581 410 576 m 293 576 l 297 562 l 297 576 l 293 576 m 253 543 l 253 510 l 297 510 l 293 543 l 253 543 m 253 491 q 297 477 273 479 l 253 491 m 345 491 q 385 473 359 473 l 480 468 l 370 468 q 345 439 355 460 q 319 402 323 433 l 323 271 l 345 271 l 345 223 q 323 195 333 212 q 355 214 341 198 l 488 214 l 484 172 l 370 172 l 326 186 q 282 172 303 182 l 253 172 l 253 143 l 286 138 l 297 138 l 297 181 l 326 181 q 349 138 342 167 l 506 143 l 506 172 l 543 172 l 543 214 q 553 200 550 210 l 561 138 q 590 172 572 157 q 612 214 608 183 l 869 214 l 869 186 q 825 172 849 176 l 627 172 l 627 143 l 876 138 l 873 228 q 876 284 876 252 l 825 284 l 829 289 l 865 289 q 876 298 873 290 l 873 425 l 876 491 l 608 487 l 572 491 l 561 491 l 561 487 l 345 491 m 253 468 l 250 425 l 253 412 l 253 294 l 264 289 l 253 275 l 253 214 l 275 214 q 297 191 288 205 l 297 294 l 293 332 l 297 402 l 297 430 l 293 468 l 253 468 m 608 473 l 861 473 l 869 468 l 616 468 l 608 473 m 349 388 l 352 345 l 352 237 l 349 388 m 960 359 q 968 345 962 351 q 960 359 966 355 m 418 289 l 671 289 l 678 284 l 425 284 l 418 289 m 960 284 l 960 130 q 968 120 962 123 l 968 275 q 960 284 967 281 m 139 111 l 139 73 l 154 92 l 139 111 m 986 106 l 990 73 l 972 73 q 986 106 980 86 m 902 58 l 920 45 q 902 58 913 55 m 370 40 q 381 31 374 33 q 370 40 378 37 m 436 40 q 495 31 463 31 l 696 31 q 638 40 671 39 l 436 40 m 751 40 q 762 31 755 33 q 751 40 760 37 m 418 21 l 671 21 l 678 16 l 425 16 l 418 21 m 799 21 l 920 21 l 928 16 l 806 16 l 799 21 m 180 7 q 187 -2 184 6 q 180 7 182 -1 z "},"C":{"ha":888,"x_min":-129,"x_max":808,"o":"m 7 1175 l 138 1175 l 170 1170 l 115 1166 l 130 1161 l 186 1161 l 198 1166 l 210 1166 l 242 1175 q 254 1161 245 1166 l 266 1166 l 342 1175 l 553 1175 l 585 1170 l 529 1166 l 545 1161 l 601 1161 l 613 1166 l 625 1166 l 657 1175 q 669 1161 661 1166 l 681 1166 l 757 1175 l 808 1170 l 781 1170 l 800 1156 q 789 1124 797 1141 l 800 1111 q 764 1070 797 1079 l 789 1065 q 772 1047 785 1056 q 757 975 758 1016 l 760 947 l 757 939 l 757 924 l 741 920 l 757 920 l 757 788 l 736 779 q 705 788 720 780 q 732 802 720 789 l 705 802 q 713 861 705 829 l 732 861 l 732 929 q 673 943 704 939 l 146 943 l 151 897 l 146 293 l 151 261 l 151 238 l 685 238 q 732 279 704 260 l 732 338 l 741 366 l 757 370 l 760 366 l 760 302 q 772 229 761 271 q 753 197 766 212 l 529 197 l 545 193 l 768 193 l 764 179 l 753 102 l 760 61 q 736 47 748 58 l 732 61 l 732 147 l 728 147 q 665 170 701 161 l 469 175 l 469 170 l 429 175 l 190 170 l 151 165 l 397 165 l 406 134 l 429 115 l 433 152 l 433 115 l 617 111 l 617 84 l 609 52 l 565 56 l 322 52 l 382 39 l 545 39 l 585 34 l 382 34 q 306 24 347 26 l 15 24 l -17 20 l -85 34 l 3 47 l 182 47 l -81 56 l -96 52 l -96 70 l -93 115 l -53 115 l -109 120 q -117 130 -115 121 l -53 130 l -53 170 l -113 170 l -129 193 l -17 193 l -28 197 l -109 197 l -93 224 l -53 229 l -85 229 l -53 243 l -53 293 l -89 293 l -53 298 l -53 438 l -89 438 l -53 448 l -53 1006 l -41 1043 l -49 1057 l -53 1075 q -28 1102 -44 1092 q -1 1147 -19 1125 l 55 1166 l -28 1166 l 7 1175 m 322 1166 l 357 1161 l 397 1161 l 361 1166 l 322 1166 m 146 1070 l 206 1065 l 397 1065 l 338 1070 l 146 1070 m 529 1070 l 589 1065 l 705 1065 l 645 1070 l 529 1070 m 58 1025 q 71 1006 60 1013 q 58 1025 69 1018 m 94 1025 q 155 1011 123 1015 l 374 1011 l 90 1006 l 119 1002 l 681 1006 l 533 1006 l 557 1011 l 692 1011 l 701 1006 q 732 1020 718 1007 l 158 1025 l 126 1020 l 119 1025 l 94 1025 m 71 993 l 71 970 l 126 970 l 126 993 l 71 993 m 146 993 l 146 970 l 190 970 l 190 993 l 146 993 m 250 993 q 262 970 252 979 q 250 993 260 984 m 322 993 l 322 970 l 605 970 l 605 993 l 322 993 m 665 993 q 677 970 667 979 q 665 993 675 984 m 58 943 q 94 897 70 915 q 58 857 75 883 l 58 770 q 71 725 59 744 l 71 829 l 94 829 l 94 702 q 62 656 89 671 q 87 611 66 631 l 58 574 l 58 429 l 71 425 l 71 507 q 94 538 71 532 l 94 443 l 111 443 q 94 406 100 428 q 58 361 83 380 q 94 320 68 334 l 71 298 l 98 298 l 71 293 q 58 283 63 291 l 58 234 l 62 234 l 79 248 l 115 234 l 126 302 l 122 343 l 126 357 l 122 943 l 71 939 l 58 943 m 705 774 l 753 774 q 741 756 749 764 l 705 743 l 705 774 m 709 715 l 736 711 q 709 697 725 701 l 705 711 l 709 715 m 728 588 l 760 588 l 736 584 l 728 588 m 151 443 l 322 443 l 378 438 l 206 438 l 151 443 m 509 443 l 764 443 l 777 438 l 522 438 l 509 443 m 741 384 q 760 374 751 383 q 741 384 749 374 m 717 374 l 725 374 l 721 366 l 717 374 m 302 298 l 577 298 l 585 293 l 310 293 l 302 298 m 146 229 l 206 224 l 397 224 l 338 229 l 146 229 m 529 229 l 589 224 l 709 224 l 649 229 l 529 229 m 115 197 l 182 193 l 397 193 l 330 197 l 115 197 m 58 175 q 71 165 62 168 q 58 175 67 172 m 111 175 l 94 165 l 122 165 l 111 175 m 437 130 l 450 120 q 437 130 442 122 m 509 130 l 696 130 q 705 120 701 128 l 517 120 q 509 130 513 121 m 641 111 q 669 84 658 103 q 692 102 678 94 l 725 106 q 709 79 722 89 l 689 52 l 677 79 l 653 61 q 641 111 644 85 m -37 -16 l 126 -16 q 166 -25 146 -16 l 3 -25 l -28 -30 l -37 -16 m 230 -16 q 242 -25 237 -18 q 230 -16 235 -23 m 302 -16 q 342 -25 320 -16 q 302 -16 323 -25 z "},"D":{"ha":959,"x_min":-189,"x_max":842,"o":"m 40 1204 q 61 1161 44 1181 l 95 1161 l 95 1185 l 108 1180 l 100 1161 l 519 1156 q 553 1128 541 1148 l 562 1095 l 579 1109 l 592 1090 l 570 1057 q 583 1029 572 1041 l 579 1015 l 583 972 l 592 982 q 600 1029 593 1004 l 660 1029 l 656 1024 l 600 1024 l 617 977 q 647 949 629 962 q 639 911 646 930 q 656 868 641 889 l 677 831 q 690 798 680 812 q 698 788 695 795 l 690 798 l 690 783 l 702 769 l 685 750 q 711 722 695 735 q 736 684 724 706 l 745 656 l 736 646 l 749 632 q 766 651 754 644 l 779 627 l 762 618 l 749 589 l 758 580 l 833 571 l 783 571 q 791 552 784 559 l 804 438 q 812 406 804 422 l 812 486 l 804 524 l 821 524 q 838 476 833 503 l 838 349 l 833 315 l 838 306 l 842 108 l 795 94 q 770 70 781 87 q 808 51 789 64 l 774 27 l 639 22 l 656 13 l 715 13 q 745 9 732 13 l 117 9 q 100 -5 105 4 q 91 -58 98 -31 l 78 -48 l 95 -43 l 95 -1 q 87 9 94 5 q 44 -5 65 8 l 40 -53 l 40 9 l -92 9 l -130 13 l 57 13 l 10 22 l -104 22 q -146 41 -126 26 l -180 70 l -180 197 q -146 226 -170 218 l -151 283 q -180 296 -168 284 l -146 296 l -146 339 q -180 363 -161 353 l -180 524 l -151 524 q -180 543 -163 536 l -163 552 l -146 557 l -146 580 l -155 585 q -180 594 -167 585 l -155 594 l -180 608 l -155 618 l -189 623 l -146 632 l -146 651 l -184 651 l -163 656 l -180 661 l -180 826 l -155 826 l -146 878 q -176 901 -163 886 q -146 930 -151 902 q -172 963 -147 957 q -180 1019 -178 988 l -180 1081 q -163 1128 -176 1103 l -130 1105 l -113 1128 l -109 1105 l -92 1147 l -70 1161 l -62 1147 l -40 1137 l -28 1156 l 40 1161 l 40 1204 m -66 1185 l 27 1185 l -40 1175 l -134 1175 l -66 1185 m 176 1185 l 465 1185 l 477 1175 l 184 1180 l 176 1185 m 587 1152 q 604 1128 597 1143 q 596 1114 603 1120 q 587 1152 589 1131 m 511 1100 q 532 1086 519 1089 l 541 1100 l 511 1100 m 125 1076 l 189 1072 l 278 1072 l 214 1076 l 125 1076 m 418 1076 l 456 1072 l 498 1072 l 460 1076 l 418 1076 m 587 1053 q 613 1038 602 1052 q 587 1053 598 1041 m 265 1019 q 239 982 257 1000 l 129 982 l 168 968 l 168 944 l 184 958 l 452 958 l 431 982 l 397 982 l 397 1005 l 350 1015 q 333 987 338 1004 q 265 1019 305 1012 m 36 1015 q 2 982 29 988 q -19 944 -10 966 l -15 882 l -19 868 l -15 826 l -19 793 l -15 783 l -19 713 l -11 656 l 31 651 l -15 651 l -15 632 l -11 627 q 36 637 12 628 l 31 680 l 36 694 l 36 1015 m 70 1015 l 70 939 l 95 939 l 95 1015 l 70 1015 m 125 1015 l 129 1000 l 129 1015 l 125 1015 m 125 968 l 125 949 l 129 944 l 129 963 l 125 968 m 452 949 l 235 944 q 197 939 213 944 l 414 939 q 452 949 435 939 m 134 944 l 155 939 l 163 944 l 134 944 m 197 925 l 269 920 l 498 920 l 427 925 l 197 925 m 197 906 q 252 887 220 888 l 460 887 q 405 906 438 905 l 197 906 m 125 901 l 134 887 q 125 901 132 897 m 70 878 q 95 859 79 865 q 70 878 87 872 m 184 878 q 168 821 168 857 q 129 812 151 814 l 129 840 l 125 873 l 125 699 q 168 670 140 677 l 168 627 l 189 623 l 320 627 l 358 623 l 197 623 l 367 618 q 350 608 361 612 l 218 608 l 168 594 l 168 519 l 129 509 q 125 571 129 552 l 125 334 l 134 372 l 168 372 l 168 264 l 690 259 l 668 269 q 626 278 646 269 l 694 278 l 707 325 l 702 363 l 707 377 l 677 420 q 656 462 664 438 q 643 490 652 475 l 651 538 l 617 557 l 634 557 l 639 571 l 634 604 l 634 618 l 622 675 q 604 661 612 670 l 587 623 q 575 684 579 650 q 549 717 566 704 q 532 769 538 739 l 596 769 l 587 774 q 528 783 560 774 l 511 807 l 524 821 q 498 854 523 846 l 503 821 l 481 812 l 481 873 l 184 878 m 660 882 l 745 873 l 673 873 q 660 882 665 875 m 486 873 l 486 863 l 490 863 l 490 873 l 486 873 m 176 868 l 477 868 l 477 836 l 176 836 l 176 868 m 70 798 q 95 783 81 787 q 70 798 84 793 m 129 750 l 168 750 q 138 736 155 740 q 129 750 132 741 m 486 750 l 519 750 q 494 736 509 740 l 486 750 m 70 722 l 70 656 q 95 623 71 629 l 95 689 q 70 722 95 716 m 545 713 l 570 661 q 562 599 570 631 l 558 670 q 545 713 547 687 m 125 675 l 125 632 l 129 665 l 125 675 m 176 656 l 346 656 l 363 651 l 193 651 l 176 656 m 639 623 l 673 618 l 681 623 l 639 623 m -15 608 q -6 552 -15 580 q 31 543 13 551 l 14 543 q -15 509 -11 541 l -19 486 l -15 476 l -15 452 l -19 415 l -15 406 l -15 278 l 2 278 q 31 269 16 277 l 6 269 l 10 259 q 36 296 35 266 l 31 320 l 36 330 l 36 467 l 31 467 l 36 481 l 36 547 l 31 580 l 36 604 l -15 608 m 125 608 l 125 580 q 155 594 137 590 l 125 608 m 70 599 l 70 557 l 95 557 l 95 599 l 70 599 m 804 599 q 825 585 817 596 q 804 599 813 587 m 728 571 q 753 514 730 535 l 762 571 l 728 571 m 176 552 l 341 552 l 354 543 l 189 543 q 176 552 181 544 m 617 538 l 626 524 q 617 538 620 528 m 70 495 q 95 481 81 485 q 70 495 84 491 m 129 448 l 168 448 q 138 433 155 438 q 129 448 132 438 m 70 420 l 70 259 l 95 259 l 95 420 l 70 420 m 668 410 l 685 372 q 668 410 673 386 m 804 344 q 812 330 806 334 q 804 344 811 339 m 125 315 l 125 259 l 163 259 q 125 315 128 270 m 176 278 l 465 278 q 477 269 472 276 l 189 269 q 176 278 181 270 m 541 278 q 553 269 549 276 q 541 278 546 270 m 804 269 l 804 113 q 812 103 806 106 l 812 259 q 804 269 812 265 m -15 250 l -15 226 l 31 226 l 14 221 l -15 221 l -15 197 l 14 197 q 36 174 26 189 l 36 250 l -15 250 m 125 250 l 125 174 l 129 193 l 256 197 q 243 155 256 176 l 155 155 q 125 169 140 158 l 91 164 q 142 122 119 155 l 278 122 q 290 155 279 140 l 320 155 l 320 197 q 333 183 329 194 q 354 132 338 153 q 397 183 378 151 q 473 197 431 197 l 698 197 q 685 155 697 176 l 418 155 l 418 122 l 707 122 l 707 155 l 702 155 l 702 221 l 617 226 l 707 226 q 698 250 706 239 l 431 250 q 418 235 421 246 l 290 235 q 214 250 258 249 l 125 250 m 129 231 l 168 231 l 168 207 l 129 207 l 129 231 m 176 226 l 469 226 l 477 221 l 184 221 l 176 226 m 70 193 q 95 178 81 183 q 70 193 84 189 m 31 169 l -15 146 l -15 122 l 27 122 q 53 164 36 144 l 31 169 m -146 94 l -146 56 l -130 75 l -146 94 m 833 89 l 838 56 l 817 56 q 833 89 826 69 m 736 41 l 758 27 q 736 41 749 37 m 121 22 q 134 13 124 16 q 121 22 130 20 m 197 22 q 265 13 227 14 l 498 13 q 431 22 468 22 l 197 22 m 562 22 q 575 13 566 16 q 562 22 572 20 m -130 4 l 23 4 l 36 -1 l -117 -1 l -130 4 m 176 4 l 469 4 l 477 -1 l 184 -1 l 176 4 m 617 4 l 758 4 l 766 -1 l 626 -1 l 617 4 z "},"E":{"ha":867,"x_min":-530,"x_max":724,"o":"m -205 1208 q -144 1195 -175 1208 q -205 1208 -176 1197 m -74 1208 q -60 1195 -64 1205 q -74 1208 -70 1198 m 10 1208 l 339 1208 l 344 1195 l 15 1195 l 10 1208 m 414 1208 q 428 1195 424 1205 q 414 1208 418 1198 m 498 1208 l 559 1208 q 607 1199 583 1208 l 551 1195 q 498 1208 526 1195 m -121 1162 q -37 1149 -85 1161 q 33 1162 -3 1159 q 43 1144 34 1153 l 349 1144 l 367 1149 q 437 1162 401 1159 q 447 1144 438 1153 q 522 1162 480 1162 l 522 1144 l 607 1144 l 616 1131 l 621 1112 l 616 1103 l 607 1126 q 578 1112 593 1122 l 602 1080 l 583 1061 q 490 1048 542 1051 l 296 1048 l 278 1043 l 498 1043 q 555 1029 530 1042 q 452 1020 508 1021 l 33 1020 q 20 1011 24 1019 l 20 979 l 95 979 q 20 951 58 975 l 20 873 l 24 854 l 344 854 l 330 850 l 24 850 l 15 836 l 15 777 l 99 777 l 99 753 l 47 753 l 15 749 l 15 703 l 123 703 l 127 722 l 208 712 l 269 722 q 292 703 277 711 l 461 699 l 81 699 l 90 694 q 20 671 55 689 l 85 671 q 99 662 94 669 l 20 657 l 367 657 l 372 639 l 367 574 l 344 556 l 344 515 l 71 510 q 20 496 46 510 l 170 492 l 208 496 l 222 492 l 254 492 l 273 487 q 231 432 267 450 l 227 455 q 174 432 208 433 l 90 427 l 85 331 l 90 313 l 85 212 l 99 161 l 24 152 q -51 165 -9 165 l -56 152 l -131 152 l -131 119 l -46 119 l -46 161 l 15 161 l 15 129 l 62 119 q 71 161 62 141 q 85 119 81 142 q 123 133 104 119 q 174 193 159 153 q 208 119 183 157 l 208 152 l 254 152 l 254 179 q 353 193 297 193 l 574 193 q 588 152 584 174 l 278 152 l 278 119 l 612 119 l 612 152 q 654 96 614 110 q 588 69 617 94 q 635 46 611 62 l 607 32 q 527 14 569 29 l 513 9 l -258 9 l -149 14 l -192 23 l -262 23 l -276 28 l -276 46 q -262 69 -273 58 l -276 115 l -276 427 q -286 418 -283 427 q -295 349 -286 385 l -295 432 l -332 427 l -347 432 q -385 492 -378 452 l -366 492 l -328 496 l -314 492 l -295 492 l -300 510 l -478 515 l -380 515 l -366 533 l -380 538 l -530 538 l -521 597 l -478 579 l -441 639 q -375 657 -411 654 l -295 657 l -295 685 l -276 657 l -281 699 l -328 694 l -380 699 q -328 722 -357 713 l -281 703 l -276 740 l -276 846 l -473 850 l -460 854 l -276 854 l -276 1057 l -262 1094 q -253 993 -253 1048 l -220 983 l -220 1043 l -210 1144 l -121 1144 l -121 1162 m 663 1126 q 673 1107 671 1119 l 663 1126 m -295 1098 l -286 1020 l -286 937 l -295 1098 m -131 1048 l -60 1043 l -46 1043 l -117 1048 l -131 1048 m 15 1048 l 57 1043 l 123 1043 l 81 1048 l 15 1048 m -131 1020 l -135 983 l -74 979 l -131 965 l -135 914 l -131 901 l -131 864 l -135 850 l -131 818 l -131 786 q -117 777 -127 779 l -51 777 l -46 753 l -46 979 l -56 1020 l -117 1015 l -131 1020 m 1 997 l 1 841 l 15 836 l 15 993 l 1 997 m 170 979 q 184 970 178 977 q 170 979 176 971 m 254 979 l 461 979 q 522 970 490 979 l 315 970 q 254 979 287 970 m -56 951 l -51 873 l -51 790 l -56 951 m -117 947 l -112 869 l -112 790 l -117 947 m -253 924 q -220 910 -239 914 q -253 924 -233 920 m -295 878 q -286 864 -289 873 q -295 878 -292 868 m -253 850 l -253 722 l -220 722 l -220 850 l -253 850 m 1 777 q 15 768 4 768 l 1 777 m -319 777 q -304 753 -308 768 q -319 777 -315 763 m 170 777 q 184 753 180 768 q 170 777 174 763 m 254 777 l 508 777 l 503 758 l 254 753 l 254 777 m 15 763 l 15 753 l 20 753 l 20 763 l 15 763 m -131 753 l -131 703 l -46 703 l -51 753 l -131 753 m -253 699 l -229 689 q -220 699 -223 690 l -253 699 m -74 699 l -46 685 q -74 699 -58 694 m 1 699 q 15 657 1 677 q 1 699 14 678 m 471 703 q 508 689 489 701 l 485 685 l 264 685 l 315 694 l 498 694 l 471 703 m -319 694 l -304 689 l -319 685 l -319 694 m 170 694 l 184 689 l 170 685 l 170 694 m -131 685 q -51 671 -96 672 q -131 685 -85 684 m -319 671 q -304 662 -310 669 q -319 671 -313 663 m 170 671 q 184 662 178 669 q 170 671 176 663 m 254 671 l 452 671 l 503 666 l 311 662 q 254 671 283 662 m -455 606 l -412 602 l -276 602 l -319 606 l -455 606 m 85 606 l 151 602 l 367 602 l 301 606 l 85 606 m 278 538 l 278 515 q 311 528 295 519 l 278 538 m -253 515 l -253 492 l -220 496 q -253 515 -234 509 m -131 515 q -117 496 -128 503 q -131 515 -119 508 m -112 515 q -56 501 -86 503 q -112 515 -81 510 m -286 510 q -276 496 -283 501 q -286 510 -278 505 m -290 492 q -281 482 -289 486 q -290 492 -282 488 m -131 492 l -60 482 l -46 487 l -117 492 l -131 492 m 15 492 l 66 482 l 123 482 l 71 492 l 15 492 m 198 492 q 208 482 199 486 q 198 492 206 488 m -131 460 l -60 455 l -46 455 l -117 460 l -131 460 m 15 460 l 52 455 l 62 460 l 15 460 m 85 460 l 113 455 l 123 460 l 85 460 m -253 432 l -253 395 l -220 395 q -253 432 -220 425 m -131 427 l -135 395 l -102 391 q -51 377 -77 391 l -69 377 q -131 363 -100 376 l -135 326 l -131 313 l -131 298 l -135 248 l -131 235 l -131 193 l -51 193 l -46 170 l -46 308 l -51 303 l -51 230 l -56 253 l -56 326 l -51 363 l -51 326 l -46 363 q -56 427 -47 394 l -131 427 m 20 427 l 20 391 l 57 391 q 43 377 53 381 l 20 377 l 20 267 l 57 267 l 38 262 q 15 189 16 232 l 57 193 l 62 170 l 62 290 l 57 313 l 62 321 l 57 427 l 20 427 m 1 409 l 1 253 l 15 248 l 15 404 l 1 409 m -319 391 q -304 377 -309 387 q -319 391 -314 380 m 90 391 q 99 377 96 387 q 90 391 93 381 m 170 391 q 184 377 180 387 q 170 391 174 380 m -117 359 l -112 280 l -112 202 l -117 359 m -253 336 q -229 321 -244 325 q -220 336 -222 326 l -253 336 m -295 290 q -286 276 -289 286 q -295 290 -292 280 m -253 262 l -253 101 l -220 101 l -220 262 l -253 262 m 90 267 l 283 267 l 344 262 l 151 262 l 90 267 m 498 267 l 564 267 l 625 262 l 559 262 l 498 267 m -295 216 l -286 138 l -286 55 l -295 216 m 1 189 q 15 179 4 180 l 1 189 m 710 138 l 724 129 l 720 92 l 710 138 m 659 83 q 649 55 657 69 l 659 83 m -253 41 q -229 28 -244 31 q -220 41 -222 32 l -253 41 m -51 23 q -37 14 -47 16 q -51 23 -41 20 m 33 23 q 109 14 67 14 l 367 14 q 292 23 334 22 l 33 23 m 437 23 q 452 14 441 16 q 437 23 448 20 m -262 5 l -159 5 l -144 0 l -248 0 l -262 5 m 10 5 l 334 5 l 344 0 l 20 0 l 10 5 m 498 5 l 574 5 l 583 0 l 508 0 l 498 5 z "},"F":{"ha":850,"x_min":-402,"x_max":717,"o":"m -96 1221 q -35 1206 -65 1220 q -96 1221 -66 1209 m 35 1221 q 48 1206 44 1217 q 35 1221 39 1211 m 118 1221 l 443 1221 l 448 1206 l 123 1206 l 118 1221 m 517 1221 q 531 1206 527 1217 q 517 1221 522 1211 m 601 1221 l 661 1221 q 707 1211 684 1221 l 652 1206 q 601 1221 627 1206 m 58 1211 q 71 1193 67 1204 l 58 1211 m -12 1206 q 53 1175 11 1179 l 76 1183 l 104 1175 l 109 1202 q 146 1156 124 1179 l 425 1156 l 498 1175 l 541 1175 l 545 1156 q 554 1170 552 1160 l 624 1175 l 629 1156 l 703 1156 l 717 1151 l 717 1118 l 707 1137 l 680 1128 q 699 1086 684 1107 q 629 1058 669 1067 l 382 1054 l 656 1054 l 666 1044 q 591 1030 632 1033 l 127 1030 l 146 1017 l 206 1012 l 174 1012 l 178 1002 l 415 1002 l 448 989 l 606 989 q 619 979 616 987 l 433 979 l 355 989 l 169 989 l 99 970 l 188 966 l 132 961 q 118 886 119 928 l 118 863 l 340 863 l 355 859 l 118 859 l 118 803 l 95 793 q 151 785 120 787 l 136 770 l 95 770 q 109 738 96 753 q 146 720 123 726 l 201 715 l 113 715 l 95 720 l 99 705 l 169 696 l 355 692 l 340 673 l 359 640 q 290 612 332 616 l 141 608 l 327 608 q 336 599 333 608 l 355 576 l 309 576 q 234 557 277 564 l 304 548 l 322 543 q 271 520 300 528 l 118 520 q 104 501 116 509 l 95 548 l 99 473 l 95 460 l 95 427 q 118 357 97 393 l 118 204 l 99 204 l 99 223 l 95 195 l 99 176 l 95 167 l 39 167 l 30 181 l 35 251 l 30 413 l 35 427 l 30 478 l 35 496 l 35 548 l 11 552 l 11 529 l -21 478 q -3 427 -7 451 l -21 427 l -26 413 l -21 380 l -21 367 l 11 367 l 11 214 q -31 167 -16 197 q -86 163 -62 167 l -21 163 q -12 144 -21 153 l -26 111 q 11 60 -24 77 q -21 28 7 34 l -26 56 q -35 70 -28 64 l -26 98 l -58 98 q -91 70 -80 89 l -54 46 l -114 23 l -156 28 q -165 37 -161 29 l -160 65 l -146 75 l -156 88 l -165 158 l -165 520 l -351 520 q -365 529 -359 522 q -323 552 -350 551 l -341 557 l -351 566 l -346 640 q -304 692 -339 675 l -262 696 l -184 696 l -184 747 l -267 743 l -258 757 l -300 766 l -286 785 l -262 808 l -220 812 l -207 808 l -189 808 l -165 812 q -179 859 -165 836 l -328 859 l -365 863 l -179 863 q -165 942 -166 897 l -165 1035 q -151 1095 -163 1066 l -142 1054 l -142 1007 q -109 994 -128 998 l -109 1035 l -100 1156 l -12 1156 l -16 1193 l -12 1206 m -184 1109 l -174 1030 l -174 947 l -184 1109 m 95 1058 l 159 1054 l 229 1054 l 164 1058 l 95 1058 m 11 1030 l -21 1017 l 30 1017 q 11 1030 24 1027 m 359 1017 l 420 1017 l 433 1012 l 373 1012 l 359 1017 m -21 989 l -21 966 l 30 966 l -21 989 m 48 979 l 48 905 l 53 845 l 53 919 l 48 979 m 81 979 q 76 905 76 947 q 90 845 76 875 l 90 919 q 81 979 90 947 m 11 961 l 11 798 q 30 808 21 799 l 35 845 l 30 854 l 30 961 l 11 961 m 359 966 l 420 966 l 433 961 l 373 961 l 359 966 m -142 933 q -109 919 -128 924 q -142 933 -123 928 m -184 886 q -174 873 -177 882 q -184 886 -180 877 m -142 859 l -142 808 l -109 812 l -109 859 l -142 859 m -26 859 l -21 845 l -21 859 l -26 859 m 95 826 l 99 812 l 99 826 l 95 826 m -21 793 q 35 785 3 787 q -21 793 9 791 m -21 770 q 11 729 -17 744 l -21 720 l 2 720 q 35 761 29 728 q -21 770 9 768 m -184 766 q -170 757 -180 760 q -184 766 -174 764 m -142 747 l -142 696 l -109 696 l -114 747 l -142 747 m -174 743 q -165 696 -174 720 l -165 733 q -174 743 -166 739 m 35 720 l -21 715 l -26 696 l 30 696 l 35 720 m 48 710 l 53 696 l 53 710 l 48 710 m 76 710 q 90 696 79 701 q 76 710 87 706 m 322 636 q 332 622 324 627 q 322 636 330 631 m -397 617 l -388 604 l -393 562 l -402 576 l -397 617 m -341 612 l -300 608 l -165 608 l -207 612 l -341 612 m 141 557 l 211 552 l 224 552 l 155 557 l 141 557 m -142 552 l -142 399 l -109 399 l -109 552 l -142 552 m -184 515 l -174 436 l -174 353 l -184 515 m 48 488 l 53 473 l 53 488 l 48 488 m 81 488 q 90 473 82 479 q 81 488 88 483 m 99 441 q 118 427 110 439 q 99 441 107 429 m 48 413 l 48 264 l 53 251 l 53 413 l 48 413 m 76 413 l 76 255 l 90 251 l 90 408 l 76 413 m -142 339 q -119 325 -134 328 q -109 339 -112 329 l -142 339 m -184 292 q -174 279 -177 288 q -184 292 -180 283 m -142 264 l -142 102 l -109 102 l -109 264 l -142 264 m -26 264 l -21 251 l -21 264 l -26 264 m -184 218 l -174 139 l -174 56 l -184 218 m 48 191 l 53 176 l 53 191 l 48 191 m 81 191 q 90 176 82 182 q 81 191 88 186 m 35 163 l 95 163 l 99 70 l 118 70 l 113 46 q 90 88 98 65 l 76 65 q 53 28 70 45 l 48 116 l 48 28 q 30 70 31 43 l 35 163 m 99 144 q 118 130 110 142 q 99 144 107 132 m 58 88 q 71 65 60 74 q 58 88 70 79 m -142 42 q -119 28 -134 31 q -109 42 -112 32 l -142 42 m 85 46 q 71 28 83 36 l 85 46 m -146 5 l -104 5 l -137 0 l -146 5 z "},"G":{"ha":900,"x_min":48,"x_max":1156,"o":"m 169 1199 l 333 1199 q 341 1186 338 1195 l 191 1186 l 178 1190 q 169 1199 172 1191 m 406 1199 q 419 1186 415 1196 q 406 1199 410 1190 m 484 1199 l 785 1199 l 790 1186 l 488 1186 l 484 1199 m 854 1199 q 867 1186 863 1196 q 854 1199 859 1190 m 932 1199 l 992 1199 q 1005 1190 1001 1198 q 937 1186 975 1186 l 932 1199 m 363 1160 q 428 1152 393 1160 q 441 1139 431 1143 q 458 1160 445 1152 l 505 1160 l 505 1139 l 777 1139 q 824 1160 803 1145 l 876 1160 l 876 1143 q 919 1160 895 1154 q 966 1139 944 1152 l 1010 1139 q 1001 1122 1008 1129 q 988 1078 991 1103 q 954 1048 981 1055 l 906 1053 l 893 1048 l 760 1048 l 730 1044 l 966 1044 q 984 992 983 1023 l 954 970 l 954 987 l 906 987 l 906 983 l 893 987 l 488 983 l 454 987 q 445 979 448 987 l 454 802 l 445 789 l 432 798 l 432 975 q 423 987 431 983 l 367 983 l 367 233 l 350 220 q 367 199 361 213 l 367 172 l 475 172 l 518 168 l 531 172 l 570 168 l 583 172 l 859 172 l 884 168 l 863 177 l 725 177 l 760 181 l 884 185 q 902 216 888 201 l 1019 216 l 1019 194 l 1014 164 l 1019 155 l 1001 146 q 1014 112 1004 128 q 971 86 996 96 l 992 77 q 958 52 978 64 q 902 43 932 43 l 363 39 q 328 17 348 26 l 328 35 l 199 39 l 139 35 q 117 77 122 52 l 324 77 l 363 82 l 139 82 l 83 95 l 57 95 q 87 108 68 104 l 79 112 l 100 121 q 117 172 110 143 l 113 216 l 134 216 q 113 250 120 229 l 117 311 l 48 311 l 109 315 l 117 509 l 113 634 l 117 647 l 113 677 l 113 690 l 117 724 l 113 738 l 113 819 l 117 863 l 113 880 l 113 949 l 57 962 l 113 970 q 61 987 92 987 q 109 1000 84 997 l 117 1014 l 113 1053 q 61 1061 86 1053 l 104 1065 l 117 1057 l 125 1100 q 160 1135 140 1116 l 117 1143 l 363 1139 l 363 1160 m 281 1048 l 302 1044 l 311 1048 l 281 1048 m 454 1048 l 518 1044 l 587 1044 l 522 1048 l 454 1048 m 225 1027 q 233 1009 226 1017 q 225 1027 233 1019 m 260 1027 q 307 1014 282 1016 q 260 1027 284 1023 m 372 1027 q 423 1014 395 1017 q 372 1027 400 1023 m 458 1027 q 475 1014 464 1017 q 458 1027 469 1023 m 484 1027 q 527 1014 503 1017 l 652 1009 l 652 1014 l 690 1009 l 919 1014 l 889 1027 l 484 1027 m 246 987 q 294 966 265 973 l 260 953 q 246 892 250 924 l 260 880 q 246 850 250 868 l 260 789 l 260 669 q 246 660 251 667 q 260 604 248 633 q 246 543 250 575 q 260 488 256 518 l 260 414 q 246 358 252 389 l 260 323 q 246 315 251 321 l 307 315 l 294 311 l 246 311 l 246 289 l 260 233 l 260 181 l 277 181 l 264 177 l 298 172 l 311 172 l 311 177 l 320 220 l 311 285 l 311 987 l 246 987 m 372 966 l 428 966 l 428 806 l 423 958 q 372 966 397 958 m 458 966 l 566 966 l 544 958 l 484 958 l 484 824 l 475 850 l 475 958 q 458 966 465 958 m 630 966 l 643 962 l 635 958 l 630 966 m 708 966 l 876 966 q 924 958 899 966 l 755 958 q 708 966 732 958 m 954 958 q 984 940 968 951 l 966 923 l 902 910 l 730 919 q 764 932 745 928 l 838 936 l 884 932 l 902 940 l 954 936 l 954 958 m 225 932 q 233 919 227 923 q 225 932 232 927 m 225 863 l 225 720 q 233 711 227 715 l 233 854 q 225 863 233 860 m 432 768 q 454 729 453 755 l 445 682 l 445 569 q 432 616 435 592 l 441 630 l 432 656 l 432 768 m 475 751 q 484 738 481 747 q 475 751 477 741 m 652 703 l 673 703 l 669 647 l 673 591 l 669 578 l 669 500 q 682 457 671 477 l 677 530 q 703 543 689 541 l 703 457 l 734 461 l 889 461 l 871 457 l 721 457 l 721 453 q 790 448 751 449 l 924 448 q 949 513 926 495 l 924 517 l 928 561 l 954 583 q 979 574 966 581 l 979 448 l 1074 453 l 1109 448 l 1122 453 l 1126 435 q 1156 453 1138 448 q 1147 435 1156 442 l 1001 427 l 1019 406 l 1014 384 l 1113 380 l 1122 371 l 1109 358 l 1031 358 l 1131 353 l 1126 336 l 1105 328 l 1031 323 l 1014 298 l 1087 298 q 1113 285 1101 294 l 1040 280 q 1014 233 1016 267 q 954 220 985 224 l 889 220 l 871 280 l 884 285 l 820 293 l 743 293 l 781 285 q 734 267 762 270 q 695 229 703 262 q 656 237 676 230 l 643 224 q 617 276 624 245 l 609 224 q 570 250 584 227 l 591 289 l 583 311 l 613 328 q 583 375 596 349 l 617 393 l 570 393 l 570 543 l 604 543 l 613 470 l 617 505 l 617 660 l 574 677 q 600 699 583 690 l 613 677 l 652 703 m 699 699 l 703 669 l 677 673 l 699 699 m 423 682 l 428 625 l 428 569 l 423 682 m 475 682 q 484 630 481 659 l 479 574 l 475 682 m 225 656 q 233 643 227 647 q 225 656 232 651 m 570 612 l 613 612 q 578 600 597 604 q 570 612 572 604 m 677 612 q 703 600 692 612 q 677 612 690 600 m 941 595 l 1001 591 q 1014 587 1010 591 l 954 587 q 941 595 944 587 m 225 587 l 225 444 q 233 435 227 439 l 233 578 q 225 587 233 584 m 677 591 l 734 591 l 790 587 l 734 587 l 677 591 m 708 509 l 911 509 q 919 500 916 508 l 716 500 q 708 509 711 501 m 984 509 q 1014 500 998 509 q 984 509 1000 500 m 1079 509 q 1092 500 1086 507 q 1079 509 1084 502 m 743 427 q 716 418 725 427 l 924 418 q 949 431 937 419 l 928 431 l 889 427 l 876 431 l 743 427 m 1079 414 q 1092 406 1086 412 q 1079 414 1084 407 m 225 380 q 233 367 227 371 q 225 380 232 375 m 570 336 q 578 323 577 333 q 570 336 572 328 m 225 311 l 225 233 q 233 172 225 204 l 233 250 q 225 311 233 279 m 484 315 l 562 315 l 578 311 l 501 311 l 484 315 m 656 289 l 652 263 l 665 259 l 665 285 l 656 289 m 669 285 l 665 254 l 669 246 l 677 276 q 669 285 677 282 m 854 285 q 867 267 863 278 q 854 285 859 274 m 919 241 q 941 229 927 232 q 919 241 933 239 m 372 181 l 549 181 l 566 177 l 389 177 l 372 181 m 505 82 l 578 77 l 811 77 l 738 82 l 505 82 m 134 31 l 307 26 q 324 0 319 16 l 130 0 q 117 22 121 9 l 134 31 m 406 26 q 419 0 416 14 q 406 26 409 12 m 484 26 l 790 26 l 790 0 l 484 0 l 484 26 m 854 26 q 867 0 864 14 q 854 26 858 12 m 932 26 q 962 9 948 21 l 932 0 l 932 26 z "},"H":{"ha":928,"x_min":-429,"x_max":751,"o":"m 437 1221 q 447 1208 444 1217 q 437 1221 441 1212 m 465 1208 q 488 1171 474 1186 q 515 1203 491 1197 l 515 1181 q 542 1135 531 1161 l 542 432 l 587 432 q 646 446 615 442 l 692 455 l 692 437 l 696 432 l 710 450 q 724 423 710 434 l 719 455 q 751 437 736 450 l 746 373 l 724 373 l 732 405 q 719 414 729 414 q 683 387 696 406 l 710 368 q 692 346 701 360 l 614 337 l 565 337 l 547 332 l 673 332 q 656 314 669 322 l 547 309 q 578 300 562 302 l 642 296 l 610 269 l 547 269 l 542 255 l 542 192 l 406 192 l 401 205 q 406 241 405 220 l 406 269 l -156 269 q -165 196 -165 237 l -165 137 l -170 123 l -206 105 l -174 74 q -206 56 -187 62 l -283 46 l -306 56 l -301 105 l -315 83 l -338 83 l -338 233 l -306 241 l -306 287 l -328 314 l -301 314 q -311 355 -302 335 l -392 359 q -406 391 -404 376 q -338 378 -373 381 l -301 382 q -315 410 -301 397 l -397 410 q -338 423 -370 418 l -338 523 q -347 532 -338 529 l -406 536 l -333 536 q -319 550 -320 539 q -392 559 -352 559 l -342 568 q -306 577 -323 570 l -419 577 l -429 582 l -347 587 q -301 577 -326 585 l -301 604 l -306 623 l -301 673 l -306 668 l -338 663 q -324 700 -336 681 q -351 749 -351 713 l -355 772 l -351 777 l -351 1081 q -324 1112 -349 1108 l -324 940 q -333 913 -326 928 q -324 904 -328 911 l -324 791 l -311 822 l -301 895 l -306 940 l -301 972 l -311 954 l -319 1103 l -315 1112 q -288 1099 -302 1108 l -269 1122 l -247 1140 l -220 1154 l -197 1131 l -170 1154 l -165 1122 l -161 977 l -165 963 l -165 926 l 134 926 l 25 918 l -11 922 l -20 918 l -165 922 l -161 899 l -165 890 l -165 808 l -161 772 l -165 763 l -165 650 l -161 623 l -165 614 l -165 577 l 338 572 q 379 582 363 573 l 370 650 l 370 663 q 401 713 395 681 l 406 854 l 401 854 l 401 808 q 370 818 386 809 l 370 967 l 393 967 l 410 1031 l 401 1072 l 410 1085 l 374 1099 l 379 1171 l 388 1194 l 410 1162 l 410 1112 l 424 1108 l 429 1117 l 442 1181 l 452 1144 l 452 1181 q 465 1208 461 1192 m -238 1167 l -170 1162 l -229 1158 l -301 1158 l -238 1167 m 370 1040 q 401 1026 388 1038 q 370 1040 384 1028 m -319 895 q -306 881 -310 891 q -319 895 -315 884 m -324 768 l -319 709 l -319 768 l -324 768 m 370 749 q 401 736 388 748 q 370 749 384 737 m -351 690 q -342 677 -345 686 q -351 690 -349 682 m -338 604 l -306 604 q -328 591 -315 595 q -338 604 -335 595 m -161 587 l -106 587 l -147 582 l -161 587 m 43 587 l 356 587 l 365 582 l 52 582 l 43 587 m 547 582 l 696 582 l 705 577 l 555 577 l 547 582 m -161 559 l -165 518 l 152 518 l 152 559 l -161 559 m 224 559 l 220 528 q 234 518 223 521 q 224 559 233 539 m 302 559 l 302 518 l 406 518 l 406 555 l 374 559 l 302 559 m -134 509 l -124 505 l 130 505 q 116 482 128 492 l -97 482 q -161 491 -127 482 l -165 455 l -165 432 l 93 432 q 152 446 123 432 l 216 455 l 220 432 l 243 455 q 302 441 273 454 l 361 432 l 406 432 l 406 455 l 401 482 l 292 482 q 279 505 282 491 l 393 505 l 234 513 l 234 509 l 220 513 l -134 509 m 197 505 q 211 482 208 496 q 197 505 201 491 m 547 505 l 601 505 l 601 482 l 547 482 l 547 505 m 669 505 q 683 482 680 496 q 669 505 673 491 m 406 482 l 406 491 l 401 491 l 406 482 m -424 441 l -351 441 l -342 437 l -414 437 l -424 441 m 637 359 l 669 346 q 637 359 656 355 m -165 337 l -97 332 l -83 332 l -152 337 l -165 337 m 66 337 l 143 332 l 388 332 l 311 337 l 66 337 m -83 314 l -161 309 l -115 296 l -52 292 l -11 296 l 2 292 l 193 300 l 202 296 q 275 300 234 300 l 288 296 l 324 300 l 361 296 q 370 305 367 297 q 297 309 338 309 l 75 309 l 61 314 l -2 314 l -11 309 q -83 314 -43 314 m 370 264 l 401 264 l 401 228 l 370 228 l 370 264 m -161 250 q -106 241 -134 250 q -161 250 -134 242 m -38 250 q -24 241 -30 249 q -38 250 -33 243 m 43 250 l 351 250 q 365 241 360 249 l 57 241 q 43 250 49 243 m 547 250 l 628 250 l 646 246 l 560 241 q 547 250 552 243 m 406 187 l 506 187 q 551 137 541 181 l 628 137 l 610 128 l 542 128 l 515 42 q 474 28 498 32 q 488 60 484 41 l 460 28 q 420 42 439 32 q 410 28 411 39 l 393 33 l 383 28 l 374 28 l 370 78 q 401 96 382 91 q 388 128 399 114 l 193 128 q 134 137 165 128 l 361 137 l 406 142 l 406 187 m 370 169 l 401 169 q 379 155 393 159 q 370 169 372 159 m -229 64 q -220 56 -227 59 q -229 64 -220 62 m 456 51 q 469 42 460 45 q 456 51 466 49 m -301 42 l -224 42 l -206 37 l -193 19 q -206 -17 -201 4 q -233 -49 -208 -42 l -220 -21 l -233 -39 l -238 -21 q -256 -44 -248 -29 l -256 -3 l -260 -12 l -265 -49 l -288 -26 l -274 10 l -297 19 l -301 10 l -333 15 q -301 42 -314 24 z "},"I":{"ha":932,"x_min":-999,"x_max":35,"o":"m -539 1236 l -479 1236 l -424 1231 l -484 1231 l -539 1236 m -771 1196 l -300 1196 l -288 1192 q -256 1152 -281 1163 l -96 1152 l -64 1157 l -68 1103 q -140 1088 -100 1089 l -300 1088 l -323 1069 q -292 1059 -311 1063 l -92 1059 l -92 1040 l -284 1040 l -352 1025 l -376 1025 l -348 1054 l -420 1054 l -420 1049 q -384 1010 -390 1047 l -420 1010 l -424 985 l -420 975 l -420 951 q -384 931 -401 946 l -416 931 l -420 867 l -384 867 l -384 696 l -420 696 l -420 642 q -384 617 -402 633 l -412 617 l -424 597 q -412 553 -420 575 l -384 553 l -384 387 q -420 342 -417 385 q -384 318 -408 318 q -399 303 -390 307 l -372 294 l -323 294 q -308 288 -313 293 l -424 288 l -420 254 l -424 244 l -332 230 l -80 230 l -68 235 l -64 224 l -68 224 q -140 210 -100 211 l -348 210 l -363 205 l -120 205 q -92 176 -98 203 l -344 176 q -356 166 -352 174 l -60 166 q -44 132 -54 144 q -33 200 -33 165 l -20 180 q 3 141 -14 155 q -40 107 -6 109 l -76 87 l -52 83 l -20 58 l -48 53 q -112 33 -76 41 l -184 24 l -220 33 l -236 24 l -252 24 q -323 33 -282 31 l -564 33 l -619 24 l -627 33 l -687 24 q -695 33 -692 25 l -983 28 l -987 63 q -963 132 -986 100 l -903 136 l -903 151 l -907 151 l -899 176 q -851 191 -876 187 l -843 161 l -811 176 q -751 205 -786 193 l -703 205 l -687 210 l -927 210 l -895 235 l -835 230 l -823 235 l -663 230 q -635 254 -638 231 l -640 323 l -635 397 l -635 372 l -631 406 l -631 902 l -635 853 l -640 951 l -655 956 l -647 946 l -667 951 l -827 946 q -807 966 -821 960 l -727 966 l -731 975 l -811 975 l -787 981 l -659 985 l -643 981 l -631 981 l -635 1020 l -635 985 l -640 1000 l -640 1025 q -687 1015 -663 1025 l -715 1025 l -779 1025 l -791 1029 q -719 1044 -759 1044 l -739 1054 l -867 1059 l -867 1098 q -851 1152 -863 1126 l -855 1133 l -851 1078 l -851 1064 l -843 1143 l -847 1152 l -843 1181 l -831 1152 l -815 1177 l -799 1143 q -771 1196 -783 1165 m -28 1157 l -12 1152 l -24 1108 l -28 1157 m 7 1157 l 27 1157 l 31 1143 l 23 1108 q 7 1157 12 1129 m -899 1147 l -883 1098 q -899 1049 -886 1073 q -915 1098 -910 1071 l -899 1147 m -771 1128 l -703 1123 l -631 1123 l -699 1128 l -771 1128 m -579 1128 l -551 1123 l -543 1128 l -579 1128 m -356 1128 l -288 1123 l -72 1123 l -140 1128 l -356 1128 m -843 1103 q -835 1093 -842 1097 q -843 1103 -836 1100 m -631 1044 l -631 1054 l -635 1054 l -631 1044 m -863 1054 q -851 1025 -854 1042 q -863 1054 -860 1036 m -591 1044 q -579 981 -591 1013 q -591 1044 -580 1013 m -575 1025 l -575 985 l -543 981 l -543 1025 l -575 1025 m -475 995 q -452 981 -465 985 q -475 995 -463 991 m -631 966 l -631 975 l -635 975 l -631 966 m -591 956 l -591 911 q -579 902 -588 905 l -579 946 q -591 956 -583 954 m -575 946 l -579 873 l -575 828 l -579 814 l -575 603 l -579 534 l -575 519 l -579 485 l -579 446 l -543 450 l -539 514 l -543 583 l -539 597 l -543 858 l -539 902 l -543 917 q -575 946 -549 945 m -475 917 l -475 745 l -452 745 l -452 917 l -475 917 m -591 838 q -579 828 -589 829 l -591 838 m -591 760 l -591 593 l -579 588 l -579 755 l -591 760 m -420 750 l -420 760 l -424 760 l -420 750 m -640 711 l -635 627 l -635 538 l -640 711 m -691 706 l -687 623 l -687 538 l -691 706 m -475 681 q -452 667 -465 671 q -475 681 -463 677 m -475 603 l -475 431 l -452 431 l -452 603 l -475 603 m -591 524 q -579 514 -589 515 l -591 524 m -791 450 l -647 450 l -635 446 l -779 446 l -791 450 m -591 446 l -591 279 l -579 274 l -579 441 l -591 446 m -571 446 l -575 294 l -543 298 l -543 401 l -539 446 l -571 446 m -420 436 l -420 446 l -424 446 l -420 436 m -376 450 l -100 450 l -92 446 l -368 446 l -376 450 m -691 391 l -687 318 l -687 239 l -691 391 m -475 367 q -452 353 -465 357 q -475 367 -463 363 m -635 338 l -631 269 l -631 338 l -635 338 m -999 294 l -723 294 l -715 288 l -991 288 l -999 294 m -575 288 l -579 230 l -543 230 l -539 288 l -575 288 m -475 288 l -475 235 l -452 235 l -452 288 l -475 288 m -168 294 l -36 294 l -28 288 l -160 288 l -168 294 m 7 235 l 27 235 q 12 210 22 220 l 7 235 m -951 220 q -923 185 -935 208 l -951 171 l -963 180 q -991 200 -978 186 l -951 220 m -655 210 l -631 191 q -655 210 -640 204 m -475 210 q -452 176 -475 182 q -475 210 -452 204 m -591 205 q -583 195 -590 199 l -579 200 l -591 205 m -384 205 q -376 176 -384 191 l -376 200 l -384 205 m -635 185 q -699 176 -663 176 l -763 176 l -727 161 l -659 161 l -607 180 l -559 161 l -575 180 l -635 185 m -428 185 l -416 161 q -428 185 -418 174 m 7 176 q 35 127 33 164 l 27 68 l 16 68 l -4 83 l 7 112 q 12 151 10 128 l 3 171 l 7 176 m -843 151 q -831 136 -840 141 q -843 151 -833 147 m -771 151 q -707 136 -743 137 l -631 136 q -695 151 -659 151 l -771 151 m -579 151 q -543 136 -563 141 q -579 151 -559 146 m -420 151 l -424 136 l -416 136 l -416 151 l -420 151 m -356 151 q -292 136 -328 137 l -72 136 q -136 151 -100 151 l -356 151 m -999 14 l -723 14 l -715 9 l -991 9 l -999 14 m -583 14 l -308 14 l -300 9 l -575 9 l -583 14 m -168 14 l -84 14 l -72 9 l -156 9 l -168 14 z "},"J":{"ha":762,"x_min":-510,"x_max":697,"o":"m -68 1179 l 39 1179 l 12 1174 l -82 1169 l -68 1179 m 232 1179 l 425 1179 l 439 1169 l 256 1174 l 241 1169 q 232 1179 236 1171 m -54 1160 l -7 1151 l 12 1160 l 26 1156 l 77 1156 l 77 1160 l 96 1156 l 110 1160 l 153 1160 l 180 1156 l 190 1160 l 345 1156 l 345 1160 l 359 1156 l 373 1146 l 415 1160 q 434 1137 427 1152 q 486 1128 456 1131 l 500 1123 l 575 1128 l 631 1123 l 641 1105 l 636 1096 l 594 1096 l 612 1078 l 514 1078 l 570 1068 q 617 1055 598 1068 l 599 1050 l 500 1050 q 472 1059 488 1052 q 500 1031 479 1042 l 551 1036 q 570 1027 562 1035 l 500 1022 l 538 1022 l 505 1008 l 444 1004 l 472 999 q 434 939 463 968 l 463 888 q 434 819 435 865 l 434 723 l 444 787 l 444 829 l 472 829 l 472 700 l 434 640 q 458 593 454 621 q 420 534 429 574 l 425 483 l 425 520 q 439 566 428 541 l 444 547 l 434 538 l 467 534 l 476 387 q 448 345 449 372 q 476 299 458 319 l 448 299 q 434 220 435 267 l 434 124 q 448 202 447 157 l 448 239 l 476 239 l 476 78 l 448 78 l 458 115 q 415 92 433 109 l 444 68 l 411 50 q 321 41 370 42 l 256 36 l 378 36 q 406 27 390 35 l 340 4 l 298 9 l -458 9 l -467 4 l -486 4 q -510 36 -502 16 l -401 41 l -500 41 l -481 64 q -510 73 -495 64 q -477 138 -507 112 l -477 184 l -157 184 q -148 193 -149 184 l -477 189 l -477 253 l -510 317 l -477 359 l -496 359 q -510 410 -506 383 l -481 418 q -411 446 -451 439 l -143 441 l -143 465 l -214 474 l -228 474 l -313 460 l -369 460 l -406 465 l -481 483 l -491 502 q -430 515 -464 511 l -157 515 q -143 524 -149 517 l -167 502 l -167 483 l -350 483 l -125 479 l -120 460 l -125 456 l -138 418 l -237 414 l -167 414 l -167 387 l -214 387 q -289 363 -252 382 l -294 418 l -317 395 l -317 368 l -364 387 q -382 308 -382 353 l -364 230 l -382 202 l 134 207 l 148 202 l 180 202 q 166 235 176 224 l 166 331 q 176 387 167 359 l 176 349 l 180 410 l 180 990 l 153 981 l -7 981 l -7 1008 l -12 1004 q -40 1017 -29 1006 l -40 962 q -59 1008 -54 983 l -64 939 q -125 925 -91 929 l -106 935 q -125 1004 -121 963 l -129 990 l -129 962 l -162 962 l -162 1101 q -101 1137 -140 1124 q -54 1160 -78 1144 m 688 1123 q 697 1109 694 1119 q 688 1123 690 1114 m -138 1091 l -138 1101 l -143 1101 l -138 1091 m -157 1073 q -143 1040 -157 1053 q -157 1073 -146 1060 m 12 1073 l 82 1068 l 180 1068 l 110 1073 l 12 1073 m 434 1063 l 434 1031 l 453 1036 q 434 1063 447 1050 m 373 1059 l 378 1036 l 378 1055 l 373 1059 m 218 1017 l 218 861 l 237 861 l 237 1017 l 218 1017 m 293 1017 l 298 1004 l 298 1017 l 293 1017 m 246 981 l 241 801 l 246 787 l 241 746 l 246 566 l 241 511 l 246 497 q 241 460 243 481 l 251 290 l 307 294 l 312 313 l 307 331 q 307 340 302 336 l 302 363 l 307 368 l 312 354 l 326 391 l 326 488 l 349 488 q 307 506 328 494 q 326 534 313 522 l 345 538 q 331 552 340 549 q 302 575 314 557 q 298 612 299 591 q 307 626 300 621 l 340 631 l 298 631 l 302 649 l 298 704 l 302 727 l 298 736 l 298 760 l 302 796 l 298 810 l 302 865 l 298 921 l 302 944 l 298 953 l 298 976 l 246 981 m 476 985 l 547 985 l 561 981 l 486 976 q 476 985 480 977 m 166 976 l 176 898 l 176 814 l 166 976 m -35 971 l -12 967 q -26 935 -15 950 l -35 971 m -125 921 l -64 921 l -64 902 q -21 888 -41 901 l -45 888 q -92 875 -68 886 l -125 875 l -125 921 m -162 902 q -129 888 -144 901 q -162 902 -146 892 m 373 875 l 373 727 l 378 713 l 378 875 l 373 875 m -101 870 q -68 842 -81 861 l -92 833 l -125 833 q -101 870 -119 854 m 222 801 l 237 787 q 222 801 233 797 m 166 755 q 176 741 173 751 q 166 755 170 745 m 218 727 l 218 566 l 237 566 l 237 727 l 218 727 m 166 681 l 176 603 l 176 520 l 166 681 m -505 585 l -448 585 l -411 580 l -467 580 l -505 585 m 368 580 q 359 492 359 541 l 359 446 q 378 423 366 433 q 387 465 385 441 l 382 575 l 368 580 m -448 543 l -270 543 q -256 534 -260 543 l -430 529 l -439 534 l -448 543 m -101 538 l -73 538 l -73 515 q -101 538 -90 520 m -59 534 l -16 534 q -21 515 -20 527 q -59 534 -42 516 m -96 511 q -82 483 -85 498 q -96 511 -93 495 m 222 506 l 237 492 q 222 506 233 503 m -298 502 l -284 492 q -298 502 -288 499 m 420 479 q 448 414 420 441 l 420 479 m -106 479 l -68 479 l -73 456 q -59 437 -68 445 l -50 479 l -16 474 l -26 423 q -68 433 -46 425 q -87 391 -79 415 l -92 428 q -106 479 -102 452 m 166 460 q 176 446 173 456 q 166 460 170 450 m 218 433 l 218 271 l 237 271 l 237 433 l 218 433 m -350 359 l -345 294 l -345 225 l -350 359 m 176 331 l 176 271 l 180 258 l 180 331 l 176 331 m -256 290 l 68 290 l 77 285 l -247 285 l -256 290 m 246 285 l 241 216 l 302 207 l 307 276 l 246 285 m 222 212 l 237 202 q 222 212 233 209 m 241 197 l 209 189 l 49 193 l 58 184 l 241 184 l 241 138 l 288 138 q 302 146 298 139 q 331 189 313 173 l 241 197 m -73 193 q -59 184 -68 186 q -73 193 -62 191 m -143 179 q -204 165 -171 170 l -345 165 q -289 151 -320 155 l 138 151 q 166 165 153 152 l -2 165 l -12 179 l -59 179 l -59 174 l -73 179 l -143 179 m -96 174 q -82 165 -87 173 q -96 174 -91 167 m -364 165 q -350 151 -361 155 q -364 165 -353 161 m 176 165 l 180 151 l 180 165 l 176 165 m -364 142 l -321 138 l -143 138 l -186 142 l -364 142 m 12 142 l 82 138 l 180 138 l 110 142 l 12 142 m 363 64 l 387 50 q 363 64 378 60 m -233 41 l -153 36 l 100 36 l 21 41 l -233 41 m -491 -23 l -411 -28 q -420 -42 -413 -36 l -496 -42 l -491 -23 m 321 -23 q 363 -37 347 -26 q 288 -42 330 -41 l 232 -42 q 246 -28 236 -33 l 321 -28 l 321 -23 m -340 -28 q -326 -42 -331 -31 q -340 -28 -336 -38 m -256 -28 l 73 -28 l 77 -42 l -252 -42 l -256 -28 m 148 -28 q 161 -42 157 -31 q 148 -28 152 -38 z "},"K":{"ha":1013,"x_min":-517,"x_max":772,"o":"m -268 1226 l -197 1221 l -258 1217 l -335 1217 l -268 1226 m 180 1226 l 352 1226 l 367 1217 l 218 1221 l 180 1226 m 452 1217 q 443 1226 446 1217 l 452 1217 m -258 1212 q -197 1198 -231 1202 l -192 854 l -187 806 l -192 791 l -192 772 q -182 758 -190 763 l -158 758 l -163 810 l -158 825 l -158 1174 l -153 1188 q -101 1212 -130 1202 q -92 1174 -94 1196 l -101 1126 l -92 1074 q -101 964 -101 1021 l -92 854 l -101 820 l -87 810 l -92 763 l -49 758 l 138 758 l 185 763 l 199 758 l 218 758 q 228 772 226 762 l 242 810 l 262 758 l 286 763 l 300 911 l 185 916 l 300 920 l 314 911 l 333 920 l 304 978 q 352 1016 336 991 l 376 1064 l 328 1064 l 342 1069 l 391 1064 l 405 1069 l 419 1093 l 381 1121 l 395 1149 l 438 1145 l 424 1149 l 433 1169 q 376 1154 410 1160 l 376 1169 l 405 1169 l 424 1198 l 357 1198 q 262 1174 312 1192 l 214 1198 q 190 1174 208 1181 l 157 1174 q 218 1202 178 1202 l 529 1202 l 543 1198 l 529 1179 q 543 1131 539 1156 l 510 1116 l 414 1116 l 429 1112 l 515 1112 q 524 1097 524 1107 l 505 1025 l 519 1011 l 505 954 l 462 987 l 448 945 l 424 1035 l 405 992 q 395 901 396 951 l 410 897 l 376 878 l 391 844 q 314 810 361 815 q 372 787 345 808 q 347 720 357 758 q 328 711 341 713 l 342 744 l 304 734 q 319 686 307 711 l 300 667 q 290 610 292 641 l 352 610 l 367 606 l 281 606 l 304 553 q 347 515 319 535 l 314 486 q 328 457 317 470 l 347 452 l 433 457 l 361 452 l 376 386 q 395 286 394 342 q 457 237 441 283 q 476 209 464 222 l 467 233 l 486 228 l 601 223 q 615 199 611 214 l 529 199 l 486 195 l 438 199 l 300 199 q 281 300 298 245 q 248 252 252 286 l 223 267 q 209 323 222 295 q 233 352 216 340 q 209 376 216 359 l 195 361 q 204 414 197 387 l 161 438 l 171 400 q 128 391 152 393 l 123 457 q 142 510 125 488 l 123 519 l 8 515 l -29 519 l -39 515 l -73 515 l -92 510 l -101 290 l -92 199 l -158 199 l -158 433 l -163 471 l -158 486 l -163 519 l -192 515 l -187 476 l -192 242 l -197 199 l -192 152 l -192 132 q -235 99 -214 121 l -211 85 q -277 47 -230 50 l -397 47 l -378 42 l -258 42 l -230 18 l -254 13 l -263 18 l -307 8 l -349 33 l -445 33 q -454 18 -447 24 l -459 37 l -454 47 l -373 52 q -335 99 -335 56 l -349 85 l -373 85 l -373 252 q -340 267 -355 253 l -335 376 l -340 438 l -340 395 q -397 448 -376 403 l -402 486 l -397 500 l -363 496 q -440 519 -399 513 l -488 529 l -507 524 l -497 548 q -397 562 -450 549 q -497 581 -441 575 l -426 610 l -397 615 q -426 653 -406 637 l -402 653 l -435 658 l -450 648 q -469 672 -460 656 q -407 711 -422 682 l -397 739 l -445 744 l -440 749 l -502 758 l -483 763 l -416 768 l -402 763 l -431 763 l -397 758 l -402 810 l -397 830 l -397 1059 q -382 1088 -393 1073 l -397 1140 l -378 1149 l -368 1097 l -368 983 l -363 959 l -368 949 l -363 810 l -363 859 l -340 863 l -335 949 l -340 987 l -335 1002 l -335 1049 q -363 1002 -336 1020 l -363 1145 l -368 1159 q -297 1183 -330 1161 l -258 1212 m 372 1093 q 381 1078 380 1089 q 372 1093 374 1082 m 486 1064 l 476 1025 l 476 1044 q 467 1006 467 1027 l 491 1025 l 496 1055 q 486 1064 494 1061 m -363 940 q -340 925 -350 938 q -363 940 -353 927 m 433 920 l 433 873 l 424 906 l 433 920 m 214 830 l 223 782 l 218 763 l 214 830 m -368 806 l -368 758 l -349 758 l -368 806 m -87 768 l 99 768 l 118 763 l -68 763 l -87 768 m -368 739 q -335 725 -355 729 q -368 739 -348 735 m -192 739 q -158 725 -178 729 q -192 739 -172 734 m -34 739 q -20 725 -31 729 q -34 739 -23 735 m 52 739 q 113 725 79 729 l 180 730 q 123 739 155 736 l 52 739 m -368 711 l -368 691 q -335 711 -349 694 l -368 711 m -192 711 q -158 691 -179 697 l -158 711 l -192 711 m -34 711 q -20 691 -32 699 q -34 711 -22 703 m 52 711 q 113 691 77 692 l 185 691 q 128 711 163 710 l 52 711 m -101 691 l -101 663 l 52 663 l 37 667 q 52 691 40 681 l -1 691 l -20 686 l -101 691 m -402 682 l -397 667 l -397 682 l -402 682 m -368 682 l -363 667 l -363 682 l -368 682 m -192 682 l -187 667 l -187 682 l -192 682 m -163 682 l -158 667 l -158 682 l -163 682 m -58 686 q -43 667 -48 680 q -58 686 -54 675 m -373 658 l -345 653 l -335 658 l -373 658 m -192 658 l -168 653 l -158 658 l -192 658 m 52 658 l 109 653 l 166 653 l 109 658 l 52 658 m -368 644 q -335 615 -365 618 q -368 644 -338 641 m -192 644 q -158 615 -188 618 q -192 644 -161 641 m -34 644 q -20 615 -33 628 q -34 644 -20 630 m 52 644 l 52 615 l 166 615 l 180 620 q 128 644 162 642 l 52 644 m 237 606 q 248 591 239 596 q 237 606 245 601 m -368 576 q -354 553 -366 562 q -368 576 -356 568 m -192 576 q -158 553 -180 559 q -192 576 -164 576 m -92 576 q -54 553 -83 553 l 128 557 q 94 576 114 570 l -92 576 m 314 519 l 323 515 l 319 529 l 314 519 m 147 467 l 147 476 l 142 476 l 147 467 m -368 467 l -368 433 l -363 457 l -363 467 l -368 467 m -397 419 q -378 405 -386 417 q -397 419 -389 407 m 429 338 l 433 309 l 429 300 l 429 338 m -373 328 l -340 328 q -363 314 -349 318 q -373 328 -370 319 m 524 304 l 601 304 l 610 300 l 534 300 l 524 304 m 496 281 l 510 247 l 496 237 q 486 252 488 241 l 496 281 m 405 223 q 433 209 418 213 q 405 223 420 219 m -158 195 l -96 195 l -92 180 l -101 118 l -101 42 q -149 13 -121 24 q -158 42 -156 26 l -115 42 l -153 47 l -158 195 m 300 195 l 476 195 q 467 161 469 181 q 562 147 509 148 l 634 147 l 634 127 l 610 127 q 576 104 594 119 l 610 85 l 519 23 l 486 28 l 471 23 l 357 23 l 347 37 l 376 42 l 328 71 l 214 71 l 209 85 l 218 90 l 347 90 l 352 109 l 347 123 l 252 123 q 237 127 242 123 q 314 142 273 130 l 276 157 l 295 157 l 300 161 l 300 195 m 214 138 q 223 118 220 131 l 209 109 l 214 138 m 749 127 l 772 123 q 739 99 760 106 l 749 127 m 147 109 l 157 85 l 138 85 l 147 109 m -469 80 l -402 80 l -340 75 l -407 75 l -469 80 m -258 66 q -249 56 -257 60 q -258 66 -250 62 m -511 47 q -483 23 -494 39 l -507 18 l -517 23 l -511 47 m -469 -24 l -292 -24 q -277 -34 -281 -26 q -316 -39 -294 -38 l -326 -34 l -454 -34 q -469 -24 -463 -33 m -153 -24 q -130 -34 -140 -26 q -153 -24 -143 -33 z "},"L":{"ha":975,"x_min":-453,"x_max":557,"o":"m -238 1196 q -191 1187 -215 1195 l -293 1191 l -238 1191 l -238 1196 m -231 1178 q -184 1147 -201 1177 l -184 1124 l -98 1124 l -129 1116 q -187 1106 -157 1115 q -125 1093 -160 1093 l -149 1088 l -184 1088 l -184 1053 l -117 1048 l -180 1044 l -140 1031 q -102 1017 -121 1029 l -121 1013 l -176 1013 q -184 1004 -181 1012 l -187 964 l -184 950 l -184 932 l -187 892 l -184 879 l -184 861 q -164 848 -176 851 l -160 870 l -164 879 l -156 901 l -140 874 q -125 848 -138 859 l -125 884 l -121 848 l -140 834 l -121 834 q -144 817 -136 829 l -137 772 l -153 758 l -153 602 l -149 602 q -140 549 -143 578 l -153 545 q -140 473 -142 514 q -153 406 -149 441 l -153 326 q -140 268 -143 298 l -153 245 l -121 254 l 19 254 q 74 237 42 239 l 117 241 l 128 237 l 144 237 l 175 241 l 155 241 l 159 254 l 374 254 l 417 250 l 417 277 q 444 326 429 302 l 378 330 l 448 339 q 440 357 441 346 q 460 334 450 343 q 452 388 460 361 l 460 455 q 437 419 458 427 l 437 486 l 440 495 l 417 509 l 362 509 q 355 517 357 509 l 425 517 l 378 522 l 393 526 l 440 531 l 452 522 q 464 460 460 492 l 491 460 l 491 531 q 511 513 504 527 l 515 384 l 518 406 q 530 379 527 395 l 511 370 l 526 308 l 526 223 q 534 174 526 199 l 534 272 q 557 286 545 282 l 557 130 l 526 130 l 534 143 l 534 170 l 503 156 q 515 116 511 138 q 460 94 491 98 l 390 94 l 499 90 q 468 67 487 76 q 406 58 440 58 l -215 58 q -222 49 -220 58 q -187 31 -208 34 q -222 14 -201 16 l -262 0 q -277 9 -270 1 l -343 18 q -281 31 -316 31 l -281 58 l -324 58 q -355 14 -350 47 l -371 54 q -410 90 -397 59 l -195 90 l -156 94 l -390 94 q -437 125 -413 106 l -437 156 q -410 138 -427 143 q -433 170 -418 155 l -410 170 q -382 205 -385 176 q -406 232 -390 220 l -378 232 l -394 241 q -382 299 -387 267 l -382 772 l -387 785 l -382 821 l -402 821 l -387 834 l -382 839 l -421 839 l -406 848 l -382 852 l -387 884 l -382 892 l -382 1133 q -355 1169 -373 1154 l -355 1084 l -351 1093 q -328 1137 -343 1116 l -324 1088 l -309 1093 l -300 1142 q -289 1128 -296 1131 l -273 1147 l -250 1084 l -246 1116 l -231 1178 m -320 1124 q -309 1116 -313 1122 q -320 1124 -315 1117 m -300 1080 q -324 1004 -321 1048 l -332 1000 l -328 964 l -332 955 l -332 905 l -324 848 l -300 843 l -304 928 l -300 968 l -309 1013 q -320 1048 -312 1029 l -304 1053 l -293 1071 q -300 1080 -294 1075 m -82 1071 q -58 1062 -71 1071 q -82 1071 -69 1063 m -355 1062 l -351 1031 l -351 1062 l -355 1062 m -421 1048 l -387 1048 l -414 1044 l -421 1048 m -355 972 l -351 959 l -351 972 l -355 972 m -355 901 l -351 843 l -351 901 l -355 901 m -355 821 l -355 754 l -351 745 l -351 821 l -355 821 m -316 821 q -324 723 -323 776 q -332 714 -327 714 l -328 678 l -332 665 l -332 616 q -324 517 -325 572 l -324 437 l -332 401 l -328 388 l -332 348 l -332 330 l -320 334 q -304 401 -304 363 l -309 504 l -304 571 l -304 473 l -300 460 l -304 647 l -300 682 q -309 781 -308 727 l -304 745 l -300 821 l -316 821 m -184 821 l -187 754 l -184 741 l -187 678 l -184 665 l -187 602 l -184 589 l -187 545 l -184 531 l -184 513 l -187 469 l -184 455 l -184 437 l -187 393 l -184 379 l -184 361 l -187 317 l -184 303 l -184 268 l -164 263 l -184 263 l -160 245 l -160 772 l -164 785 l -160 821 l -184 821 m -125 714 l -121 638 l -121 557 l -125 714 m -355 687 l -351 673 l -351 687 l -355 687 m -355 616 l -355 473 l -351 460 l -351 616 l -355 616 m 343 553 l 417 553 l 433 549 l 359 549 l 343 553 m 491 553 q 503 540 499 550 q 491 553 495 543 m 526 531 l 553 531 l 553 429 l 549 415 l 522 415 l 522 517 l 526 531 m 347 455 l 417 455 l 433 446 l 362 446 q 347 455 354 447 m -125 429 l -121 353 l -121 272 l -125 429 m -355 401 l -351 388 l -351 401 l -355 401 m 464 401 q 484 388 471 391 q 491 401 489 392 l 464 401 m 530 357 q 557 344 545 355 q 530 357 543 345 m -453 334 l -398 334 l -387 330 l -441 330 l -453 334 m -355 330 l -355 254 l -351 237 l -351 312 l -355 330 m -324 330 l -328 286 l -324 241 l -304 277 q -316 237 -307 257 q -300 263 -305 245 l -300 330 l -324 330 m -47 334 l 222 334 l 230 330 l -39 330 l -47 334 m 475 330 l 475 187 l 479 174 l 479 330 l 475 330 m -137 268 l 12 268 l 27 263 l -121 263 l -137 268 m 155 268 l 401 268 l 413 263 l 168 263 l 155 268 m 85 254 q 97 241 94 251 q 85 254 89 244 m -231 237 l -164 232 l 46 232 l -20 237 l -231 237 m 179 237 l 237 232 l 452 232 l 390 237 l 179 237 m -184 223 q -160 196 -177 207 q -184 223 -160 218 m -140 223 l -140 196 l -121 210 l -105 201 l 85 196 l 85 201 l 101 196 l 413 201 l 417 214 l 413 223 l 210 223 l 140 214 l 105 223 l 93 214 l 77 214 l 12 223 l -140 223 m -316 214 l -324 196 q -309 210 -316 199 l -316 214 m 464 116 l 491 102 q 464 116 481 112 m -27 94 l 39 90 l 250 90 l 183 94 l -27 94 m -269 45 l -281 14 l -262 9 l -254 14 q -238 45 -243 25 l -269 45 m -398 31 l -371 31 q -406 18 -387 20 l -398 31 m -117 31 q -105 14 -109 24 q -117 31 -114 20 m -47 31 l 230 31 l 230 14 l -47 14 l -47 31 m 288 31 q 300 14 296 24 q 288 31 292 20 m 359 31 l 425 31 q 471 18 449 29 q 409 14 444 14 l 359 14 l 359 31 z "},"M":{"ha":1023,"x_min":-795,"x_max":252,"o":"m -672 1257 q -607 1248 -640 1257 l -650 1243 l -672 1257 m 165 1257 q 222 1248 192 1257 q 186 1243 206 1244 l 178 1248 q 165 1257 170 1249 m -699 1202 l -664 1194 l -611 1189 l -576 1202 l -567 1198 l -506 1198 l -589 1189 l -519 1144 l -506 1131 l -524 1126 l -479 1112 l -492 1126 l -444 1131 l -401 1112 l -431 1095 l -515 1099 l -501 1095 q -467 1085 -482 1095 q -488 1063 -481 1079 l -392 1045 l -383 1018 q -374 1031 -376 1021 l -344 1022 l -296 986 l -317 986 l -269 964 l -287 982 l -173 986 q -164 977 -172 980 l -142 986 l -164 986 l -67 1045 l -19 1049 l 28 1063 q 42 1076 37 1067 l 24 1085 l 42 1095 l 99 1095 l 51 1099 l -1 1095 l -41 1099 q -58 1112 -50 1103 l -37 1122 l 11 1131 l 51 1131 l 37 1122 l 46 1108 l 64 1122 l 51 1135 l 55 1153 q 73 1139 61 1141 l 142 1185 l 121 1194 l 147 1202 l 178 1194 l 217 1194 l 217 1054 l 235 1013 q 217 968 231 992 q 235 928 233 953 l 217 887 l 217 770 l 235 729 l 235 688 l 217 688 q 235 648 227 671 q 217 608 229 628 l 217 490 q 235 450 222 469 q 222 400 235 426 l 231 373 q 235 337 233 357 l 222 328 l 217 215 q 231 170 217 192 l 186 152 q 213 125 195 138 q 186 98 203 110 l 138 89 q 130 143 132 113 q 117 184 129 164 q 103 229 104 203 l 213 229 l 103 233 q 130 256 117 241 l 99 256 l 99 288 q 130 315 103 311 l 130 472 l 112 472 q 99 517 102 493 q 130 545 114 528 q 99 572 105 546 l 99 603 l 130 603 l 130 720 q 117 761 129 741 q 99 806 104 781 q 130 833 114 817 q 99 860 106 835 l 99 892 l 130 892 l 125 941 q 94 914 113 925 l 77 901 l 64 918 l 73 937 l 64 928 l 64 941 l 73 959 q 94 945 83 955 q 125 959 110 947 l 130 1013 l 130 1036 l 117 1018 l 85 991 q 73 1013 73 998 q 51 1031 66 1025 q 33 1000 49 1013 q 3 1018 20 1013 l -10 977 q -54 959 -30 964 l -164 955 q -186 950 -180 955 l -33 950 l -41 932 l -81 918 l -98 901 l -85 892 l -58 882 l -76 873 l -124 865 l -146 838 q -177 855 -159 850 q -208 869 -193 857 q -234 851 -223 863 l -239 802 q -208 815 -225 813 l -181 810 l -177 824 l -159 819 l -151 828 q -120 797 -134 815 l -142 761 l -146 702 l -146 761 l -159 788 l -146 806 q -155 815 -146 814 l -177 779 q -208 797 -193 784 q -239 770 -226 787 q -203 747 -230 747 l -186 747 q -199 720 -190 734 l -199 688 l -230 688 l -208 675 q -199 621 -201 651 q -239 603 -219 617 l -239 486 q -208 458 -235 461 l -199 409 l -239 391 q -208 378 -221 388 l -321 378 l -326 432 q -335 481 -327 454 q -326 535 -334 508 l -335 585 l -326 635 l -326 751 l -335 802 q -326 824 -334 812 l -335 833 l -387 838 l -348 860 q -357 878 -349 870 l -405 887 l -449 882 q -471 860 -456 868 q -488 901 -482 878 q -510 914 -496 913 l -515 860 l -515 323 l -510 288 l -515 274 q -479 256 -500 261 l -366 256 q -330 274 -347 258 l -335 305 l -326 315 l -326 373 l -208 373 l -199 337 q -208 328 -199 332 l -239 328 l -239 305 q -252 256 -239 282 q -291 238 -269 246 l -519 233 q -563 224 -540 233 l -558 170 l -554 224 q -519 229 -539 228 l -510 220 l -335 220 q -304 215 -317 220 l -510 215 l -510 193 l -519 143 l -515 107 l -519 94 l -558 89 l -572 94 l -576 107 l -572 148 l -576 143 l -585 125 q -607 138 -597 127 l -602 165 l -620 161 l -637 148 l -629 134 q -611 116 -620 128 l -624 102 l -668 89 l -730 89 q -738 130 -735 106 l -734 184 q -738 220 -737 199 q -725 229 -734 226 l -699 233 l -721 233 q -738 269 -733 248 l -734 323 l -738 378 l -734 391 q -738 427 -737 407 l -734 463 l -738 477 l -734 535 l -738 585 l -734 608 l -738 612 l -738 652 l -778 652 l -760 662 l -738 662 l -760 671 l -747 675 q -755 693 -747 686 l -795 698 l -738 698 l -734 751 l -738 806 l -734 828 l -738 833 q -734 892 -738 874 l -738 905 l -738 1018 l -734 1063 l -738 1099 l -734 1112 l -725 1153 l -694 1180 l -716 1194 l -699 1202 m -348 1198 l -296 1198 l -335 1194 l -348 1198 m -164 1198 l -98 1198 l -37 1194 l -102 1194 l -164 1198 m 248 1148 l 252 1072 l 252 991 l 248 1148 m -383 1072 q -361 1063 -372 1071 q -383 1072 -373 1063 m -392 1059 l -264 1049 l -330 1049 q -392 1059 -359 1050 m -90 1059 l -58 1059 l -90 1049 l -120 1049 l -90 1059 m -444 1040 l -435 1045 l -453 1049 l -444 1040 m -602 1031 l -602 950 q -572 932 -589 938 l -572 959 q -598 986 -581 972 l -576 995 l -572 1027 l -602 1031 m -24 1018 q -15 1004 -22 1009 q -24 1018 -16 1013 m -177 1004 q -168 991 -171 1000 q -177 1004 -174 995 m 24 986 l 42 977 q 33 950 41 964 l 24 986 m -615 977 l -611 964 l -611 977 l -615 977 m -563 977 q -554 964 -561 968 q -563 977 -555 972 m -190 968 l -181 964 l -177 977 l -186 977 l -190 968 m 51 964 q 60 950 57 960 l 46 945 q 51 964 50 952 m -515 955 l -479 950 l -471 955 l -515 955 m -252 950 q -287 932 -266 941 q -273 918 -283 924 l -225 909 l -208 914 q -177 932 -192 920 l -199 937 q -252 950 -222 945 m -15 941 q 11 918 0 932 l -6 914 l -10 918 q -28 896 -20 911 q -15 905 -20 898 l -10 896 l -33 892 q -15 941 -26 916 m 33 937 q 46 909 45 926 l 20 923 l 33 937 m -602 918 l -602 860 l -581 860 l -576 865 l -572 918 l -602 918 m -615 905 l -615 761 l -611 747 l -611 905 l -615 905 m -563 905 l -563 756 q -554 747 -562 750 l -554 896 q -563 905 -555 902 m -155 896 l -164 860 l -155 865 l -146 887 q -155 896 -147 893 m 28 901 q 42 873 39 888 l 28 865 l 33 887 l 28 901 m -501 892 l -492 873 l -510 878 l -501 892 m -177 887 l -177 869 l -164 882 l -177 887 m 248 860 l 252 783 l 252 702 l 248 860 m -98 851 l -72 842 l -90 833 l -98 851 m -199 842 q -186 833 -191 840 q -199 842 -195 833 m -168 815 l -181 802 q -168 815 -172 806 m -576 747 l -572 734 l -572 747 l -576 747 m -576 711 q -602 693 -589 699 l -602 675 l -576 680 l -572 702 l -572 711 l -576 711 m -615 688 l -611 675 l -611 688 l -615 688 m -563 688 q -554 675 -561 680 q -563 688 -555 684 m -602 652 l -572 630 q -602 652 -582 646 m -602 630 l -602 572 l -581 572 l -576 576 l -572 616 l -576 630 l -602 630 m -615 616 l -615 472 l -611 458 l -611 616 l -615 616 m -563 616 l -563 468 q -554 458 -562 462 l -554 608 q -563 616 -555 614 m 248 572 l 252 495 l 252 414 l 248 572 m -146 567 l -142 490 l -142 414 l -146 567 m -576 458 l -576 414 l -593 414 l -602 364 l -576 355 q -589 342 -580 346 q -602 296 -599 321 q -576 283 -591 287 l -576 301 l -572 355 l -576 395 l -572 409 l -576 458 m -615 400 l -611 387 l -611 400 l -615 400 m -563 400 q -554 387 -561 391 q -563 400 -555 395 m -615 328 l -615 269 l -611 256 l -611 328 l -615 328 m -563 328 l -563 265 q -554 256 -562 259 l -554 319 q -563 328 -555 325 m -203 315 l -199 292 l -203 283 l -203 274 l -216 288 l -203 315 m -256 305 l -300 288 l -243 274 q -256 305 -243 292 m 248 283 l 252 215 l 252 148 l 248 283 m -615 233 l -611 170 l -611 233 l -615 233 m -681 112 l -659 98 q -681 112 -668 108 m -567 112 q -554 98 -564 102 q -567 112 -557 108 m -738 85 l -637 85 q -655 66 -642 75 l -699 48 q -738 85 -728 54 m -572 85 l -524 85 l -519 71 l -528 66 l -572 58 l -572 85 m 130 85 q 182 71 155 83 l 130 62 l 130 85 m -725 26 l -664 22 l -672 8 l -716 3 l -730 8 l -725 26 m -567 22 q -541 12 -555 21 l -563 8 l -567 22 m 130 22 l 142 12 q 130 22 134 13 z "},"N":{"ha":972,"x_min":-385,"x_max":608,"o":"m -279 1243 l -216 1243 q -206 1234 -208 1242 l -252 1230 q -279 1243 -267 1234 m -174 1243 l -119 1243 l -124 1225 q -174 1243 -149 1227 m 269 1243 l 397 1243 l 397 1225 l 324 1225 q 269 1243 296 1230 m 467 1243 q 480 1225 476 1236 q 467 1243 471 1232 m 549 1243 l 590 1243 q 599 1230 598 1240 l 549 1225 l 549 1243 m 420 1206 l 489 1206 l 489 1179 q 558 1206 515 1206 l 608 1160 l 604 735 l 608 721 l 608 611 l 604 593 l 608 474 l 604 437 q 608 364 608 405 l 604 351 l 608 263 l 604 218 l 608 204 l 489 204 q 439 236 460 214 q 467 268 454 248 l 444 277 l 397 281 l 397 204 l 375 204 l 375 291 l 370 291 q 361 259 370 275 l 334 273 l 366 300 l 306 332 l 370 351 q 306 359 339 352 l 329 359 l 269 378 q 297 419 292 393 q 214 428 260 427 q 178 406 200 413 l 155 474 l 178 497 q 104 519 146 503 l 141 556 q 64 574 108 572 l 86 579 q 73 607 83 593 q 45 579 59 596 l 27 593 l 13 616 q -28 634 -2 627 q -55 607 -38 620 l -69 634 l -55 703 l -60 721 l -106 721 q -119 712 -115 720 l -119 241 q -142 199 -121 216 l -119 195 l -119 140 l -128 126 l -119 121 l -124 66 l -55 66 l -51 39 l -128 43 l -124 39 l -165 35 l -206 43 l -321 25 l -344 43 l -385 39 l -380 66 l -357 66 q -380 85 -365 79 l -339 94 l -334 144 l -339 172 q -307 204 -323 195 l -339 204 l -334 218 l -339 259 l -334 300 l -339 346 l -334 364 l -339 414 l -339 428 l -334 446 l -339 497 l -334 511 l -339 574 l -334 589 l -339 675 l -334 735 l -339 762 l -334 808 l -339 845 l -334 886 l -339 932 l -334 950 l -339 1000 l -339 1014 l -334 1092 q -316 1147 -329 1118 l -289 1179 l -321 1179 q -293 1193 -304 1184 l -271 1175 l -261 1028 l -261 1179 q -206 1165 -234 1179 l -201 1019 l -201 1142 l -197 1183 l -156 1179 l -151 1087 q -146 1032 -151 1057 l -146 1183 q -119 1165 -130 1180 l -119 1087 l -115 1078 l -119 1078 l -119 1019 l -115 1005 l -115 991 q -119 955 -118 976 q -83 964 -103 964 q -78 927 -79 948 q -115 918 -97 926 q -64 886 -98 893 q -18 877 -45 878 q 27 836 0 856 l 50 859 l 68 827 l 18 822 l 36 804 l 41 822 l 86 817 q 123 799 104 811 l 91 785 q 45 758 66 777 q 119 739 79 747 l 132 749 l 159 739 l 127 739 l 201 675 q 187 652 189 669 l 229 652 l 210 675 q 283 657 246 674 l 229 629 q 210 611 218 624 l 251 597 l 283 570 q 292 593 284 583 l 366 597 q 306 584 335 594 l 357 538 q 375 519 361 528 l 375 538 l 370 556 l 375 607 q 370 644 374 630 l 375 652 l 375 1014 l 233 1014 l 219 1019 l 229 1046 l 247 1032 l 251 1060 l 306 1050 q 292 1065 302 1061 l 251 1065 l 242 1083 l 233 1069 l 214 1087 l 205 1074 l 174 1069 l 169 1115 q 219 1124 190 1121 l 242 1152 l 247 1124 l 251 1170 q 288 1179 267 1175 l 302 1165 q 357 1179 325 1175 l 420 1179 l 420 1206 m -193 1179 q -197 1142 -196 1163 q -183 1133 -193 1136 l -179 1175 l -193 1179 m 251 1087 q 265 1078 255 1081 q 251 1087 261 1085 m 334 1087 l 366 1078 q 375 1087 372 1080 l 334 1087 m 182 1055 q 210 1028 195 1045 q 196 996 208 1010 l 169 996 q 182 1055 172 1025 m 334 1037 l 366 1032 l 375 1037 l 334 1037 m -115 1037 l 18 1037 l 31 1032 l -101 1032 l -115 1037 m 397 1014 l 397 648 l 402 644 l 397 634 l 397 561 l 402 547 q 397 511 399 532 q 420 524 406 520 l 452 511 q 407 492 433 498 q 397 456 401 477 l 452 446 l 467 456 l 467 968 l 462 987 l 444 982 l 444 827 q 407 845 423 828 l 407 959 l 420 1014 l 397 1014 m 480 996 l 480 927 l 485 872 l 485 941 l 480 996 m -115 945 l -106 945 l -110 955 l -115 945 m 73 890 l 137 890 l 201 886 l 137 886 l 73 890 m 480 812 l 485 799 l 485 812 l 480 812 m -266 790 l -261 726 l -261 790 l -266 790 m -188 781 l -188 790 l -193 790 l -188 781 m -151 790 l -146 726 l -146 790 l -151 790 m -119 790 l -78 785 l 54 785 l 13 790 l -119 790 m -206 785 l -201 726 l -201 785 l -206 785 m 412 767 l 444 767 q 420 753 434 757 q 412 767 414 758 m 311 744 l 366 744 l 324 739 l 311 744 m 480 739 l 480 593 l 485 579 l 485 739 l 480 739 m -183 726 l -197 629 l -183 616 q -197 547 -193 583 q -179 634 -182 587 l -183 666 l -179 680 l -179 726 l -183 726 m -115 712 l -96 694 q -115 712 -109 697 m 412 694 l 444 694 l 444 570 l 439 534 l 407 534 l 407 657 l 412 694 m -206 666 l -201 652 l -201 666 l -206 666 m -151 666 l -146 652 l -146 666 l -151 666 m -60 666 q -51 657 -58 662 q -60 666 -52 663 m 96 644 l 155 639 l 219 639 l 159 644 l 96 644 m 269 621 q 306 607 288 619 q 269 621 287 608 m -266 593 l -266 446 l -261 433 l -261 593 l -266 593 m -206 593 l -206 446 l -201 433 l -201 593 l -206 593 m -151 593 l -151 446 l -146 433 l -146 593 l -151 593 m 480 519 l 485 506 l 485 519 l 480 519 m 334 497 l 366 492 l 375 497 l 334 497 m 434 474 q 444 465 439 473 l 434 474 m -183 433 l -197 341 q -183 328 -194 332 q -197 259 -193 294 q -179 341 -182 296 l -183 373 l -179 387 l -179 433 l -183 433 m 237 401 q 229 410 232 401 l 237 401 m -206 373 l -201 359 l -201 373 l -206 373 m -151 373 l -146 359 l -146 373 l -151 373 m -266 300 l -266 153 l -261 140 l -261 300 l -266 300 m -206 300 l -206 153 l -201 140 l -201 300 l -206 300 m -151 300 l -151 153 l -146 140 l -146 300 l -151 300 m 402 259 l 420 241 q 402 259 409 243 m 375 199 l 397 199 l 397 140 q 425 103 402 113 q 467 135 455 106 l 467 195 l 480 199 l 608 199 l 608 172 q 572 131 602 144 l 576 80 q 549 39 562 62 l 512 48 l 475 39 l 420 43 l 375 35 q 389 53 376 45 q 420 62 404 53 l 393 62 q 375 121 376 86 l 375 199 m 412 181 l 444 181 q 420 168 434 171 q 412 181 414 171 m 480 153 l 485 103 l 485 153 l 480 153 m -216 135 l -234 121 q -197 135 -215 122 l -216 135 m -229 108 q -183 90 -210 94 l -216 85 q -161 66 -193 69 l -179 103 l -229 108 m -115 90 l -78 90 l -106 85 l -115 90 m -376 62 l -307 53 l -55 53 l -216 62 l -376 62 m 489 62 q 503 53 493 56 q 489 62 499 60 m -321 -11 l -279 -11 q -311 -25 -293 -20 l -321 -11 z "},"O":{"ha":989,"x_min":0,"x_max":988,"o":"m 60 1202 l 252 1202 l 247 1184 l 144 1179 q 60 1202 104 1181 m 321 1202 q 336 1184 332 1196 l 321 1179 l 321 1202 m 406 1202 l 736 1202 l 732 1184 l 406 1179 l 406 1202 m 806 1202 q 821 1184 817 1196 l 806 1179 l 806 1202 m 890 1202 l 970 1202 l 956 1184 q 890 1175 924 1182 l 890 1202 m 275 1170 l 345 1170 q 359 1142 345 1155 l 359 1170 q 429 1160 392 1170 q 517 1142 469 1143 l 732 1142 q 811 1170 766 1162 l 844 1142 q 862 1170 846 1158 q 941 1142 903 1162 l 970 1137 q 965 1090 965 1117 l 956 1058 l 960 1002 l 956 988 l 960 956 l 960 923 l 956 909 l 960 709 l 956 675 l 960 662 l 960 629 l 956 610 l 960 522 l 956 456 l 960 443 l 829 443 q 816 522 821 479 q 825 620 825 568 q 816 718 825 667 l 825 760 l 816 806 q 825 960 825 850 l 783 956 q 690 969 743 968 l 378 960 l 345 969 q 289 960 320 962 l 266 969 l 266 602 l 271 587 l 266 583 l 266 443 l 205 443 l 205 568 l 201 592 l 205 597 l 205 988 q 163 1016 194 1013 l 163 983 l 154 886 l 163 853 q 154 844 157 852 l 154 797 q 163 699 163 751 q 154 602 162 652 q 163 559 156 581 l 154 545 l 186 545 q 154 498 155 535 q 163 401 163 453 l 201 401 l 163 387 l 182 387 l 229 438 q 275 387 264 431 l 433 382 l 448 387 l 461 387 l 480 382 l 559 387 l 597 382 l 606 387 l 722 382 l 736 387 l 750 382 l 783 387 l 811 387 l 825 391 l 718 391 q 648 401 684 391 l 787 401 q 858 438 817 424 l 941 438 q 960 429 951 437 q 979 391 963 409 q 956 373 964 387 q 937 345 944 362 l 956 326 l 946 312 l 918 298 q 932 275 928 289 q 862 252 902 253 q 816 201 827 242 l 806 242 l 750 242 q 685 201 730 201 l 406 201 l 406 242 l 396 191 l 974 191 q 895 177 939 178 l 680 177 l 974 172 q 988 149 984 163 l 704 144 l 736 140 l 988 140 q 960 93 979 117 q 979 60 970 79 l 932 47 l 871 47 l 858 52 l 844 47 l 844 56 l 774 47 l 760 52 q 662 60 714 60 l 448 60 l 415 47 q 359 56 387 47 l 289 47 l 275 52 q 182 60 234 60 l 75 60 q 14 70 46 60 l 271 70 l 229 75 l 0 75 q 14 98 3 86 l 33 107 l 14 159 q 79 186 38 186 l 93 177 q 159 186 124 186 l 261 191 l 266 233 q 252 242 262 239 l 252 214 q 154 201 209 201 l 47 201 l 9 210 l 37 242 l 9 252 l 5 289 l 9 303 l 9 368 l 14 378 l 9 382 l 14 391 l 9 406 q 33 443 16 426 q 14 461 20 445 l 9 662 l 14 675 l 9 741 l 14 755 l 9 895 l 14 909 q 9 946 10 924 l 14 988 l 9 1035 l 14 1086 l 9 1100 q 18 1114 12 1108 q 47 1137 35 1122 l 14 1142 l 275 1142 l 275 1170 m 266 1044 q 321 1035 291 1038 l 517 1035 q 461 1044 492 1041 l 266 1044 m 587 1044 q 602 1035 591 1038 q 587 1044 597 1042 m 671 1044 l 741 1035 l 816 1035 l 746 1044 l 671 1044 m 126 1025 q 135 974 126 1001 l 135 1016 q 126 1025 134 1022 m 494 1025 l 433 1016 l 308 1016 q 271 998 288 1015 l 461 998 l 494 993 l 275 993 l 303 983 l 806 988 l 652 998 l 779 998 q 816 1016 799 999 q 764 1002 789 1012 q 718 1016 744 1012 l 652 1016 l 602 1025 l 564 1016 q 555 1025 564 1023 l 494 1025 m 271 946 l 480 946 l 494 941 l 284 941 l 271 946 m 648 946 l 816 946 q 779 899 779 941 l 779 779 l 750 779 l 750 941 l 657 941 l 648 946 m 126 913 q 135 899 127 904 q 126 913 134 909 m 126 839 l 126 685 q 135 675 127 679 l 135 829 q 126 839 134 836 m 755 718 q 779 704 768 716 q 755 718 764 705 m 750 643 l 779 643 l 779 480 l 750 480 l 750 643 m 126 615 q 135 602 127 606 q 126 615 134 610 m 126 541 l 126 456 q 135 387 126 423 l 135 522 q 126 541 135 532 m 406 545 l 727 545 l 736 541 l 415 541 l 406 545 m 755 419 q 779 406 768 418 q 755 419 764 406 m 271 401 l 485 401 q 494 391 490 400 l 279 391 q 271 401 274 392 m 564 401 q 578 391 572 399 q 564 401 570 393 m 298 242 l 298 191 l 317 191 l 321 196 l 326 229 l 321 242 l 298 242 m 336 242 l 340 229 l 340 242 l 336 242 m 373 242 q 387 191 373 218 l 387 233 q 373 242 383 240 m 890 229 l 913 224 q 890 205 905 213 l 890 229 m 186 177 l 256 172 l 326 172 l 256 177 l 186 177 m 349 177 l 420 172 l 517 172 l 448 177 l 349 177 m 5 168 l 9 144 l 0 149 l 5 168 m 186 144 l 266 140 l 517 140 l 438 144 l 186 144 m 429 75 l 508 70 l 760 70 l 680 75 l 429 75 m 9 47 q 0 56 4 47 l 9 47 m 340 23 l 354 18 q 391 23 370 22 l 760 18 l 816 23 l 829 18 l 871 23 l 960 18 l 941 5 l 881 0 l 829 5 l 769 0 l 461 5 l 406 0 l 349 5 l 289 0 l 14 5 l 33 18 l 340 23 z "},"P":{"ha":1081,"x_min":-439,"x_max":685,"o":"m -75 1215 l -71 1183 l -75 1173 l -75 1215 m 44 1206 l 54 1178 q 44 1169 53 1173 l 44 1206 m -56 1201 q -14 1164 -53 1166 l 5 1169 l 54 1164 l 661 1160 q 685 1109 683 1142 l 685 626 l 642 626 l 652 622 l 685 622 l 680 529 l 685 510 q 642 478 675 483 l 355 473 l 661 473 q 675 459 671 471 l 656 436 l 642 427 l 666 399 q 604 380 637 387 l 556 380 l 556 353 q 517 380 540 368 q 470 399 497 392 l 403 408 l 120 408 l 101 404 l 49 399 l 29 404 l 39 394 l 168 394 q 154 380 164 385 l 77 380 q 54 330 54 363 l 54 255 q 44 218 53 236 l 44 380 l 24 380 l -14 399 l -52 399 l -52 292 q -9 260 -45 262 l -9 204 l -33 204 l -14 190 l -28 181 l -71 186 l -71 408 l -119 408 l -119 181 l -142 181 q -119 139 -121 165 q -142 98 -120 113 q -109 70 -130 81 l -71 70 l -71 172 l -9 176 l -9 130 l -52 130 l -56 -14 q -71 18 -66 0 l -56 28 q -100 56 -73 45 q -157 37 -127 50 l -229 33 q -281 56 -256 41 l -343 56 l -358 60 l -286 70 q -267 121 -269 90 l -267 394 q -277 408 -269 404 l -401 404 l -401 427 l -434 427 l -406 446 l -425 473 l -319 473 l -358 478 l -429 478 l -439 506 l -406 510 l -420 487 q -396 496 -407 488 l -382 524 l -420 543 l -420 566 l -300 570 l -377 570 q -401 608 -400 580 l -396 589 l -329 585 q -267 598 -298 585 q -324 612 -293 608 q -396 622 -358 612 q -420 654 -416 631 l -272 659 l -267 705 l -382 705 q -338 724 -366 723 q -300 738 -320 725 l -319 742 l -319 817 l -277 825 l -277 798 q -267 738 -277 770 l -262 882 l -267 941 l -262 1006 l -267 1057 l -262 1076 q -248 1109 -258 1092 l -243 1081 l -243 1006 l -229 1137 l -200 1150 l -186 1127 q -152 1145 -168 1133 q -95 1164 -130 1164 q -56 1201 -62 1167 m -191 1178 l -95 1178 l -152 1169 l -248 1169 l -191 1178 m 77 1178 l 408 1178 l 417 1173 l 87 1173 l 77 1178 m 489 1178 l 503 1173 l 489 1169 l 489 1178 m 575 1178 l 675 1178 l 685 1169 l 585 1169 q 575 1178 579 1170 m -305 1122 q -277 1048 -283 1090 l -277 970 l -291 960 l -319 960 l -319 1034 q -305 1122 -319 1076 m -114 1072 l -80 1067 l -71 1072 l -114 1072 m -9 1072 l 63 1067 l 192 1067 l 120 1072 l -9 1072 m 350 1072 l 408 1067 l 465 1067 l 408 1072 l 350 1072 m 494 1072 l 527 1067 l 536 1072 l 494 1072 m -33 1021 l -52 1016 l -52 858 l -14 858 l -9 798 l -52 798 l -52 793 l -9 784 l -9 724 l 187 724 l 206 733 q 273 724 237 731 l 283 733 l 465 724 l 465 774 l 470 789 l 465 854 l 470 867 l 470 1021 l 278 1025 l 278 1021 l 245 1025 l -33 1021 m -114 1021 l -114 830 q -85 779 -102 805 l -114 779 q -104 724 -114 751 l -71 724 l -71 1021 l -114 1021 m 475 1021 l 475 905 l 494 812 q 475 793 487 802 q 494 733 492 769 l 536 724 l 536 779 q 498 793 517 781 l 536 793 l 536 932 q 498 1011 526 972 l 475 1021 m 551 1021 l 551 858 l 589 858 l 589 1021 l 551 1021 m -109 1016 l -75 1016 l -75 979 l -109 979 l -109 1016 m -3 1016 l 168 1016 l 163 983 l -3 979 l -3 1016 m 240 1016 q 254 988 250 1004 l 240 979 l 240 1016 m 326 1016 l 460 1016 l 460 979 l 326 979 l 326 1016 m 44 974 l 54 895 l 54 812 l 44 974 m 422 974 l 431 895 l 431 812 l 422 974 m 513 974 l 522 895 l 522 812 l 513 974 m -319 900 l -277 900 q -310 886 -290 890 q -319 900 -317 890 m -243 872 l -243 798 l -238 733 l -238 872 l -243 872 m 551 798 q 580 784 564 788 q 589 798 587 788 l 551 798 m -363 793 l -329 793 q -372 779 -348 783 l -363 793 m -3 793 l 163 793 l 168 779 l 1 779 l -3 793 m 240 793 q 254 779 249 789 q 240 793 245 783 m 326 793 l 398 793 q 460 779 429 793 l 389 779 q 326 793 357 780 m 44 751 q 54 738 50 747 q 44 751 47 742 m 422 751 q 431 738 429 747 q 422 751 425 742 m 513 751 q 522 738 519 747 q 513 751 515 742 m -114 705 q -71 691 -94 693 q -114 705 -90 701 m -52 705 l -52 631 l 5 631 l -3 659 l 15 631 l 29 635 l 73 631 q 92 635 87 631 q 77 659 81 645 l 417 659 l 422 635 l 422 668 l 326 682 l 431 686 l 431 635 q 470 631 448 632 l 470 696 q 374 705 428 705 l 10 705 l 10 701 l 1 705 l -52 705 m 475 705 l 475 631 l 494 631 l 498 659 l 508 631 l 513 645 q 498 686 509 667 l 536 686 q 475 705 509 705 m 551 705 l 551 631 l 589 631 l 589 705 l 551 705 m -319 701 l -277 701 l -277 663 l -319 663 l -319 701 m -372 686 l -329 686 l -382 677 l -372 686 m -3 686 l 106 686 q 168 677 135 686 l 54 677 l 54 640 q -3 686 37 671 m 240 686 q 254 677 249 685 q 240 686 245 679 m -114 677 l -71 635 l -71 677 l -114 677 m 522 677 q 536 635 522 655 q 522 677 536 657 m -114 612 l -114 585 l -71 585 l -71 612 l -114 612 m 15 612 q 29 585 16 597 q 15 612 29 600 m 101 612 l 101 585 l 441 585 l 441 612 l 101 612 m 513 612 q 527 585 513 597 q 513 612 527 600 m -114 570 l -75 547 l -71 570 l -114 570 m -52 570 l -18 562 l -3 557 l -3 566 l -52 570 m 10 570 l 5 543 l 44 543 l 44 566 q 68 543 53 553 q 115 566 87 558 l 398 566 q 422 543 412 557 l 422 562 q 460 547 437 549 l 470 566 q 431 570 453 570 l 10 570 m 475 570 l 498 557 l 503 570 l 475 570 m 508 570 l 503 543 l 513 566 l 522 552 l 536 566 l 508 570 m 556 570 l 580 562 q 589 570 586 563 l 556 570 m -119 478 l -80 473 l -71 478 l -119 478 m -9 478 l 63 473 l 192 473 l 120 478 l -9 478 m 623 408 l 637 413 l 627 418 l 623 408 m 599 408 q 618 399 605 399 l 623 408 l 599 408 m 546 399 l 580 390 l 594 394 l 546 399 m -439 399 l -382 394 q -329 380 -357 394 l -434 380 l -439 399 m -319 394 l -277 394 l -277 366 l -319 366 l -319 394 m -114 394 l -75 394 q -104 380 -88 384 q -114 394 -111 385 m 240 394 q 254 380 250 391 q 240 394 245 384 m 326 394 l 460 394 l 431 371 l 408 380 l 331 380 l 326 394 m -319 306 l -277 306 q -310 292 -290 296 q -319 306 -317 296 m -319 232 l -277 232 l -277 93 l -319 93 l -319 232 m 44 158 q 54 144 50 153 q 44 158 47 149 m -267 28 l -186 28 q -147 14 -167 26 l -171 5 q -229 -18 -196 -7 q -267 28 -258 -7 m -319 9 l -281 9 q -310 -4 -294 -1 q -319 9 -317 0 m -248 -27 l -176 -37 l -195 -51 l -248 -56 l -262 -51 q -248 -27 -258 -40 z "},"Q":{"ha":1054,"x_min":-656,"x_max":469,"o":"m -625 1227 q -599 1218 -613 1227 q -625 1227 -612 1218 m -538 1227 l -388 1227 l -393 1209 l -471 1205 q -538 1227 -503 1207 m -322 1227 q -309 1209 -313 1220 l -322 1205 l -322 1227 m -243 1227 l 68 1227 l 64 1209 l -243 1205 l -243 1227 m 134 1227 q 148 1209 144 1220 l 134 1205 l 134 1227 m 214 1227 l 284 1227 q 323 1214 307 1226 l 262 1205 l 214 1205 l 214 1227 m -366 1196 l -300 1196 l -300 1174 q -248 1196 -277 1189 l -191 1170 l 60 1170 l 117 1196 q 170 1174 142 1187 l 170 1196 l 236 1196 l 236 1170 l 293 1170 l 323 1165 l 323 1034 q 332 954 330 1000 l 323 730 l 332 673 q 323 665 326 672 l 302 647 l 328 647 l 323 493 q 284 445 317 460 l 236 445 q 249 427 237 433 l 236 406 l 249 397 l 222 392 l 214 397 l 236 397 l 222 401 l 170 401 l 170 397 l 139 401 l 77 397 l 64 392 l -133 392 l -98 379 l 143 370 l 161 374 l 210 370 l 222 370 l 258 374 l 267 366 l 244 357 q 174 344 214 345 q 157 357 168 353 q 117 344 139 347 q 47 357 85 352 l -94 357 l -94 330 l 68 326 l 29 321 l -133 321 l -133 195 l -98 186 q -85 195 -87 188 l -72 181 l -14 186 l 315 181 l 355 177 l 368 186 l 416 168 l 412 186 q 447 137 441 175 l 469 124 q 447 94 462 109 l 236 85 l 433 85 l 407 67 q 337 54 372 66 l 178 54 l 165 50 l 134 54 l -212 50 l -225 54 l -243 67 l -296 50 l -304 54 q -287 89 -299 70 q -353 76 -319 87 q -370 94 -366 81 q -397 128 -397 100 l -357 155 l -300 151 l -304 225 l -191 225 q -155 181 -176 203 l -155 225 l -138 229 l -155 229 l -155 317 q -173 264 -171 296 l -173 229 l -296 229 l -304 234 l -300 252 l -304 296 l -300 309 l -300 344 l -340 339 q -353 273 -349 308 q -370 326 -368 295 l -357 344 q -397 357 -374 353 l -546 357 l -559 366 l -393 366 l -419 370 l -559 374 l -370 374 l -370 397 l -511 392 q -568 401 -538 393 l -546 406 l -366 401 q -406 422 -379 422 l -555 427 l -366 427 q -428 445 -393 444 l -511 445 l -546 440 l -581 449 l -586 414 l -581 406 l -590 427 l -590 515 l -581 656 l -586 669 l -581 709 l -581 730 l -586 722 l -590 734 l -590 819 l -581 893 l -586 954 l -581 968 l -586 1012 l -586 977 l -590 1108 l -586 1122 q -551 1165 -568 1140 l -542 1170 l -538 1147 q -503 1165 -524 1160 l -366 1170 l -366 1196 m -529 1192 q -520 1183 -524 1191 l -533 1179 l -529 1192 m -648 1174 q -595 1135 -608 1174 l -595 511 l -656 511 l -656 1130 q -634 1165 -648 1147 q -648 1174 -644 1165 m -445 1078 q -375 1069 -414 1069 l -216 1073 l -155 1069 l -142 1073 l -445 1078 m -72 1078 q -58 1069 -68 1072 q -72 1078 -62 1075 m 7 1078 q 100 1069 50 1069 l 201 1069 q 109 1078 157 1077 l 7 1078 m -138 1060 q -208 1051 -168 1054 l -428 1051 q -445 994 -444 1027 l -445 550 l -384 541 l -309 541 q -379 537 -340 537 l -445 532 l -304 537 l -318 572 q -366 546 -344 564 l -384 603 q -370 665 -374 632 q -353 700 -368 684 l -353 608 l -349 608 l -318 612 l -309 603 l -300 669 l -304 796 l -292 823 l -304 840 q -292 871 -301 855 l -287 844 q -239 871 -267 862 q -182 880 -213 880 l -168 787 l -173 779 l -173 673 l -168 647 l -173 638 l -173 608 q -155 642 -161 623 l -155 844 q -133 884 -149 866 l -133 792 q -124 730 -133 763 l -94 730 l -94 682 q -124 660 -113 675 l -94 660 l -94 651 l -90 651 l -94 625 l -94 603 l -63 599 l -54 603 l 7 603 l 16 599 l 139 603 l 157 599 l 218 603 q 231 660 227 629 l 231 734 q 201 779 206 748 l 231 810 l 201 814 l 201 853 q 231 897 218 872 l 231 1025 l 214 1025 q 165 1051 193 1042 l -14 1051 q -1 1060 -4 1054 l -138 1060 m -300 1029 l -234 1029 l -173 1025 l -239 1025 l -300 1029 m -115 954 l -94 950 q -111 932 -98 939 l -133 937 l -115 954 m -225 950 q -191 937 -206 949 l -234 937 l -225 950 m -151 893 l -138 888 l -155 884 l -151 893 m -45 840 l -37 766 l -37 686 l -45 840 m -370 770 q -353 757 -360 768 q -370 770 -363 758 m -45 629 q -37 616 -39 625 q -45 629 -43 621 m -90 612 l 60 612 l 68 608 l -81 608 l -90 612 m -375 594 q -309 581 -343 585 l -375 594 m 7 585 l 73 581 l 201 581 l 134 585 l 7 585 m -133 576 l -133 532 l -81 537 l 196 532 l 201 541 l 196 564 l 196 572 l -50 576 l -63 572 q -133 576 -93 576 m -168 572 q -159 564 -167 566 q -168 572 -161 569 m -168 559 l -173 532 l -155 532 q -168 559 -157 547 m -90 564 l 68 559 l -23 559 l -37 555 l -90 564 m -14 541 l 183 541 l 196 537 l -1 537 l -14 541 m -450 511 q -379 507 -418 507 l -304 507 q -375 511 -336 511 l -450 511 m 7 511 l 82 507 l 319 507 l 244 511 l 7 511 m -656 507 l -595 507 l -595 458 l -621 422 l -595 401 q -656 374 -616 378 l -656 507 m -173 445 q -155 427 -170 433 q -173 445 -158 439 m -94 445 q -10 427 -56 429 l 91 427 q 7 445 54 444 l -94 445 m 157 445 q 170 427 159 434 q 157 445 168 438 m -168 422 l -173 406 l -159 401 l -155 418 l -168 422 m -90 422 l -94 406 l -90 401 l 86 401 l 91 422 l -90 422 m 161 422 l 157 401 l 170 401 q 161 422 169 413 m 288 427 q 297 418 294 427 q 288 427 291 418 m -318 401 l -353 397 q -340 374 -352 382 l -300 370 q -318 401 -301 387 m -173 392 q -159 374 -170 382 q -173 392 -161 386 m -652 366 q -625 357 -640 366 l -643 348 l -652 366 m -173 357 q -159 326 -171 340 l -155 357 l -173 357 m -612 348 l -577 348 l -604 344 l -612 348 m 214 326 l 403 326 l 465 321 l 275 321 l 214 326 m -568 304 l -401 304 q -388 296 -393 302 l -555 296 q -568 304 -563 297 m -322 304 q -309 296 -314 302 q -322 304 -317 297 m -168 304 q -159 296 -163 303 q -168 304 -165 296 m -90 304 l 56 304 q 68 296 64 302 l -76 296 q -90 304 -84 297 m 134 304 q 148 296 142 302 q 134 304 140 297 m 214 304 l 253 304 l 222 296 q 214 304 218 296 m -45 278 l -37 264 l -37 190 l -45 203 l -45 278 m -168 247 l -159 234 q -168 247 -165 238 m -90 247 l -81 234 q -90 247 -86 238 m -14 247 l 293 247 l 297 234 l -10 234 l -14 247 m 368 247 l 376 234 q 368 247 369 237 m -370 208 q -353 195 -360 206 q -370 208 -363 196 m -14 195 l 288 195 l 297 190 l -5 190 l -14 195 m -221 89 l -146 85 l 91 85 l 16 89 l -221 89 m -243 27 l 68 27 l 68 5 l -243 5 l -243 27 m 134 27 q 148 5 144 19 q 134 27 138 14 m 214 27 l 293 27 q 346 14 320 26 l 214 5 l 214 27 z "},"R":{"ha":928,"x_min":-521,"x_max":778,"o":"m -292 1244 l -228 1244 l -163 1240 l -228 1240 l -292 1244 m 0 1244 l 342 1244 l 351 1240 l 9 1240 l 0 1244 m 515 1244 l 565 1244 q 525 1240 548 1241 l 515 1244 m -253 1170 l 59 1170 q 143 1150 96 1157 q 173 1170 161 1156 q 208 1150 186 1157 l 287 1170 l 570 1170 l 570 1140 q 486 1116 534 1116 l 282 1116 q 361 1096 317 1097 l 550 1096 l 565 1090 l 570 927 l 565 912 l 570 779 l 565 759 l 570 704 l 570 689 q 540 654 559 670 l 570 654 l 559 590 l 565 575 q 525 555 548 562 l 545 585 l 475 585 l 466 580 l 282 580 l 282 545 l 466 545 l 480 536 l 406 526 l 188 526 l 178 491 l 153 526 l 123 526 l 129 456 l 134 431 q 173 461 157 440 q 208 451 187 454 l 233 496 l 243 466 q 252 382 252 429 l 272 372 l 287 347 l 252 328 q 292 283 258 297 l 336 223 l 387 218 l 589 218 q 669 193 622 196 q 684 218 680 202 q 724 193 701 203 l 743 114 l 743 189 l 763 193 l 768 189 l 778 169 l 773 114 l 773 99 l 768 64 l 724 64 l 739 75 l 763 114 l 540 99 l 540 75 l 684 75 l 694 69 l 709 60 l 634 39 l 595 45 l 585 39 l 302 39 l 252 50 q 222 39 239 49 l 208 54 l 228 69 l 376 75 l 376 99 l 248 99 l 183 109 l 188 134 l 173 84 q 149 149 166 117 q 114 104 146 111 q 99 193 103 142 q 64 258 94 231 q 84 273 71 268 l 64 307 q 50 337 54 321 l 173 342 l 69 342 l 24 367 q 39 392 28 379 q 14 446 31 418 q -45 486 -22 452 l 29 496 l 44 496 l 94 500 l -35 500 l -50 506 l -60 526 l -134 526 l -149 446 l -144 372 l -149 357 l -144 288 l -149 273 l -144 183 l -233 183 l -228 178 l -144 178 l -144 159 q -193 104 -146 114 l -223 84 l -189 69 q -228 30 -198 43 l -298 35 l -298 64 l -288 84 l -298 129 l -298 526 q -313 511 -309 522 l -313 406 l -322 456 l -322 526 l -456 526 q -515 541 -489 526 l -416 545 q -397 580 -404 560 l -511 580 q -521 590 -519 582 l -446 620 l -347 620 q -298 635 -321 621 l -391 635 l -431 640 q -476 654 -454 644 l -327 654 l -362 659 l -466 659 l -500 650 l -515 659 q -506 684 -514 673 l -491 694 l -302 694 l -298 739 l -298 1061 l -277 1066 l -223 1090 l 119 1096 q 79 1116 102 1109 l -213 1116 l -228 1120 l -238 1135 q -258 1126 -245 1129 l -253 1170 m -198 1155 l -174 1150 l -163 1155 l -198 1155 m -144 1135 l -79 1131 l 119 1131 l 54 1135 l -144 1135 m 282 1135 l 347 1131 l 416 1131 l 351 1135 l 282 1135 m 193 1116 q 208 1096 195 1103 q 193 1116 206 1108 m -144 1056 l -144 1021 l -139 1046 l -139 1056 l -144 1056 m -64 1056 l -64 1021 q -50 1046 -53 1030 q -64 1056 -54 1053 m 24 1056 l 24 1021 l 376 1021 l 376 1056 l 24 1056 m -283 1002 q -253 987 -269 991 q -243 1002 -245 991 l -283 1002 m -149 996 l -144 927 l -149 912 l -144 768 l 74 768 l -144 764 l -149 749 q -129 680 -149 713 q -75 694 -100 684 q -64 680 -73 684 l 0 680 q 14 694 3 689 l 297 694 q 351 680 323 693 q 361 694 359 684 q 406 714 377 714 l 406 684 l 416 753 l 258 768 l 416 768 l 416 996 l 411 996 l 406 858 l 366 858 l 361 996 l -149 996 m -322 952 q -313 937 -315 947 q -322 952 -319 942 m -283 922 l -283 749 l -243 749 l -243 922 l -283 922 m -322 873 l -313 788 l -313 699 l -322 873 m 361 793 l 406 793 q 372 779 393 783 q 361 793 365 783 m -515 768 l -431 768 l -421 764 l -506 764 l -515 768 m -283 684 l -253 680 l -243 684 l -283 684 m 213 659 q 292 654 248 654 l 376 654 q 297 659 341 659 l 213 659 m -144 635 l -139 620 l -139 635 l -144 635 m -64 635 q -50 625 -60 626 q -64 635 -54 632 m 24 635 q 104 620 59 621 l 376 620 q 297 635 342 634 l 24 635 m -322 580 q -307 545 -321 561 q -322 580 -309 565 m -144 580 q -114 545 -143 551 l -54 550 q -79 580 -60 569 l -144 580 m 193 580 l 193 545 q 208 570 204 554 q 193 580 203 577 m -283 526 l -283 456 q -243 431 -273 432 l -243 500 q -283 526 -252 526 m -10 526 q 5 511 -6 515 q -10 526 1 521 m 168 515 l 168 526 l 163 526 l 168 515 m -64 476 q -54 461 -58 471 q -64 476 -61 466 m -25 436 q -5 397 -9 420 q -25 436 -21 411 m -283 367 q -253 352 -269 356 q -243 367 -245 356 l -283 367 m 218 367 q 228 352 220 357 q 218 367 226 362 m -322 317 q -313 302 -315 313 q -322 317 -319 307 m 292 298 l 351 288 q 292 298 322 288 m -283 288 l -283 114 l -243 114 l -243 288 l -283 288 m 515 292 l 694 292 l 703 288 l 525 288 l 515 292 m 89 273 q 119 218 99 245 l 119 268 l 89 273 m -322 238 l -313 154 l -313 64 l -322 238 m 342 198 l 351 193 l 347 208 l 342 198 m 282 183 l 366 178 l 634 178 l 550 183 l 282 183 m 351 169 l 336 149 q 376 139 353 142 l 624 139 l 634 169 l 351 169 m 713 169 l 709 139 l 724 139 q 713 169 723 153 m -149 104 l -144 84 l -159 79 l -149 104 m 451 99 q 466 75 453 84 q 451 99 464 90 m 188 90 l 203 64 q 188 90 192 74 m -283 50 q -253 35 -269 39 q -243 50 -245 39 l -283 50 m -283 20 q -228 5 -258 19 l -273 0 l -288 5 l -277 15 l -283 20 z "}}}
